VelekaWorld-MediumItalic.ufo
<glyph name="ampersand" format="2">
  <advance width="718"/>
  <unicode hex="0026"/>
  <outline>
    <contour>
      <point x="686.333" y="315" type="line"/>
      <point x="613.667" y="307" type="line"/>
      <point x="585.667" y="248.667"/>
      <point x="541" y="183.333"/>
      <point x="490.333" y="130" type="curve"/>
      <point x="537" y="67.6667"/>
      <point x="574.667" y="48.6667"/>
      <point x="651.667" y="48" type="curve" name="n07"/>
      <point x="651.667" y="1.33333" type="line"/>
      <point x="614.333" y="0"/>
      <point x="592.002" y="-2.03327"/>
      <point x="573" y="-3" type="curve" smooth="yes" name="n11"/>
      <point x="550.668" y="-4.3666"/>
      <point x="528.667" y="-4"/>
      <point x="508.333" y="0" type="curve" smooth="yes"/>
      <point x="475.333" y="6.33333"/>
      <point x="448.667" y="22.6667"/>
      <point x="415" y="62.3333" type="curve"/>
      <point x="358.333" y="21.3333"/>
      <point x="291.667" y="-11" name="hr01"/>
      <point x="197.667" y="-11" type="curve" smooth="yes" name="n20"/>
      <point x="89.3333" y="-11"/>
      <point x="12" y="53.3333"/>
      <point x="12" y="155.667" type="curve" smooth="yes" name="n23"/>
      <point x="12" y="254.333"/>
      <point x="88.6667" y="319"/>
      <point x="183.667" y="367.333" type="curve"/>
      <point x="153.667" y="409"/>
      <point x="130" y="448.667" name="hr02"/>
      <point x="130" y="496.333" type="curve" smooth="yes" name="n29"/>
      <point x="130" y="602.667"/>
      <point x="224.333" y="684"/>
      <point x="359.667" y="684" type="curve" smooth="yes" name="n32"/>
      <point x="470.333" y="684"/>
      <point x="519.333" y="617.667"/>
      <point x="519.333" y="551" type="curve" smooth="yes" name="n35"/>
      <point x="519.333" y="455.667"/>
      <point x="436" y="398.667"/>
      <point x="317" y="358.333" type="curve"/>
      <point x="451" y="182.667" type="line"/>
      <point x="481.667" y="218.333"/>
      <point x="506" y="262"/>
      <point x="521" y="293.333" type="curve"/>
      <point x="522" y="296"/>
      <point x="514.667" y="305.667"/>
      <point x="513.667" y="305.667" type="curve"/>
      <point x="460" y="315" type="line"/>
      <point x="460" y="363.667" type="line"/>
      <point x="686.333" y="363.667" type="line"/>
    </contour>
    <contour>
      <point x="408" y="542.333" type="curve" smooth="yes" name="n49"/>
      <point x="408" y="588"/>
      <point x="387.667" y="631.667"/>
      <point x="339.667" y="631.667" type="curve" smooth="yes" name="n52"/>
      <point x="300" y="631.667"/>
      <point x="233.667" y="598.667"/>
      <point x="233.667" y="523" type="curve" smooth="yes" name="n55"/>
      <point x="233.667" y="477.333"/>
      <point x="259.333" y="430.667"/>
      <point x="286" y="397.333" type="curve"/>
      <point x="358.333" y="427.667"/>
      <point x="408" y="469.667"/>
    </contour>
    <contour>
      <point x="376.667" y="108.333" type="curve"/>
      <point x="216" y="321.667" type="line"/>
      <point x="164" y="286"/>
      <point x="131.667" y="242"/>
      <point x="131.667" y="184.667" type="curve" smooth="yes" name="n65"/>
      <point x="131.667" y="104"/>
      <point x="192" y="55.3333"/>
      <point x="248.667" y="55.3333" type="curve" smooth="yes" name="n68"/>
      <point x="294" y="55.3333"/>
      <point x="326.333" y="71.6667"/>
    </contour>
  </outline>
</glyph>
<glyph name="quotesingle" format="2">
  <advance width="171"/>
  <unicode hex="0027"/>
  <outline>
    <contour>
      <point x="221.667" y="673.667" type="curve" smooth="yes" name="n00"/>
      <point x="221.667" y="649"/>
      <point x="146" y="452.333"/>
      <point x="134.333" y="420.333" type="curve" name="n03"/>
      <point x="100" y="420.333" type="line"/>
      <point x="111" y="647" type="line" smooth="yes" name="n05"/>
      <point x="113.223" y="685.696"/>
      <point x="135" y="714" name="n07"/>
      <point x="177" y="714" type="curve" smooth="yes"/>
      <point x="203.333" y="714"/>
      <point x="221.667" y="700"/>
    </contour>
  </outline>
</glyph>
<glyph name="parenright" format="2">
  <advance width="419"/>
  <unicode hex="0029"/>
  <outline>
    <contour>
      <point x="349" y="442.333" type="curve" smooth="yes" name="n00"/>
      <point x="349" y="142.667"/>
      <point x="194.667" y="-122.667"/>
      <point x="-48" y="-143.333" type="curve"/>
      <point x="-38.6667" y="-93.3333" type="line"/>
      <point x="183.333" y="-64"/>
      <point x="243.333" y="322.667"/>
      <point x="243.333" y="466.333" type="curve" smooth="yes" name="n07"/>
      <point x="243.333" y="535.333"/>
      <point x="224.667" y="651.333"/>
      <point x="109" y="669" type="curve"/>
      <point x="118.667" y="717.667" type="line"/>
      <point x="317" y="700"/>
      <point x="349" y="529"/>
    </contour>
  </outline>
</glyph>
<glyph name="four" format="2">
  <advance width="570"/>
  <unicode hex="0034"/>
  <outline>
    <contour>
      <point x="536.333" y="273" type="line" name="n00"/>
      <point x="522.667" y="201" type="line" name="n01"/>
      <point x="429.667" y="201" type="line"/>
      <point x="385.667" y="-27" type="line" name="n03"/>
      <point x="277.667" y="-27" type="line"/>
      <point x="322.667" y="201" type="line"/>
      <point x="21" y="201" type="line"/>
      <point x="34" y="269.667" type="line"/>
      <point x="438.333" y="687" type="line" name="n08"/>
      <point x="525.333" y="687" type="line"/>
      <point x="445.333" y="273" type="line"/>
    </contour>
    <contour>
      <point x="386" y="517" type="line"/>
      <point x="149" y="273" type="line"/>
      <point x="337.333" y="273" type="line"/>
    </contour>
  </outline>
</glyph>
<glyph name="semicolon" format="2">
  <advance width="292"/>
  <unicode hex="003B"/>
  <outline>
    <contour>
      <point x="236.333" y="422.667" type="curve" smooth="yes" name="n00"/>
      <point x="236.333" y="382.667"/>
      <point x="203.333" y="350.333"/>
      <point x="163.333" y="350.333" type="curve" smooth="yes" name="n03"/>
      <point x="123.333" y="350.333"/>
      <point x="90.6667" y="382.667"/>
      <point x="90.6667" y="422.667" type="curve" smooth="yes" name="n06"/>
      <point x="90.6667" y="462.667"/>
      <point x="123.333" y="495.333"/>
      <point x="163.333" y="495.333" type="curve" smooth="yes" name="n09"/>
      <point x="203.333" y="495.333"/>
      <point x="236.333" y="462.667"/>
    </contour>
    <contour>
      <point x="172.667" y="60" type="curve" smooth="yes" name="n12"/>
      <point x="172.667" y="-54.6667" name="hr01"/>
      <point x="55.3333" y="-162.667"/>
      <point x="-55" y="-172" type="curve"/>
      <point x="-47.3333" y="-131.667" type="line"/>
      <point x="32" y="-116"/>
      <point x="79.6667" y="-74"/>
      <point x="93.6667" y="7" type="curve" name="n19"/>
      <point x="31.3333" y="7" type="line"/>
      <point x="22.3333" y="17"/>
      <point x="18" y="32"/>
      <point x="18" y="45.3333" type="curve" smooth="yes" name="n23"/>
      <point x="18" y="89.3333"/>
      <point x="59" y="133"/>
      <point x="103.667" y="133" type="curve" smooth="yes" name="n26"/>
      <point x="149.333" y="133"/>
      <point x="172.667" y="104"/>
    </contour>
  </outline>
</glyph>
<glyph name="equal" format="2">
  <advance width="1000"/>
  <unicode hex="003D"/>
  <outline>
    <contour>
      <point x="800" y="360" type="line" name="n00"/>
      <point x="200" y="360" type="line"/>
      <point x="200" y="422" type="line"/>
      <point x="800" y="422" type="line" name="n03"/>
    </contour>
    <contour>
      <point x="800" y="178" type="line" name="n04"/>
      <point x="200" y="178" type="line"/>
      <point x="200" y="240" type="line"/>
      <point x="800" y="240" type="line" name="n07"/>
    </contour>
  </outline>
</glyph>
<glyph name="question" format="2">
  <advance width="502"/>
  <unicode hex="003F"/>
  <outline>
    <contour>
      <point x="479.667" y="540" type="curve" smooth="yes" name="n00"/>
      <point x="479.667" y="405.333"/>
      <point x="353" y="324.333"/>
      <point x="240" y="286.333" type="curve"/>
      <point x="219" y="178.667" type="line"/>
      <point x="151.667" y="178.667" type="line"/>
      <point x="178.333" y="322.333" type="line"/>
      <point x="270.333" y="348"/>
      <point x="360.333" y="424.333"/>
      <point x="360.333" y="532.333" type="curve" smooth="yes" name="n09"/>
      <point x="360.333" y="600"/>
      <point x="317.667" y="633.333"/>
      <point x="254.667" y="633.333" type="curve" name="n12"/>
      <point x="194.333" y="529" type="line" name="n13"/>
      <point x="191.831" y="528.333"/>
      <point x="169.166" y="526.667"/>
      <point x="167.667" y="526.667" type="curve"/>
      <point x="134" y="526.667"/>
      <point x="105.667" y="539"/>
      <point x="105.667" y="570.333" type="curve" smooth="yes"/>
      <point x="105.667" y="629"/>
      <point x="178.333" y="687"/>
      <point x="293" y="687" type="curve" smooth="yes" name="n22"/>
      <point x="403.667" y="687"/>
      <point x="479.667" y="635.667"/>
    </contour>
    <contour>
      <point x="238" y="51" type="curve" smooth="yes" name="n25"/>
      <point x="238" y="15.6667"/>
      <point x="210" y="-14.6667"/>
      <point x="168" y="-14.6667" type="curve" smooth="yes" name="n28"/>
      <point x="125.333" y="-14.6667"/>
      <point x="98" y="16.6667"/>
      <point x="98" y="51.6667" type="curve" smooth="yes" name="n31"/>
      <point x="98" y="87"/>
      <point x="125.667" y="119"/>
      <point x="168.333" y="119" type="curve" smooth="yes" name="n34"/>
      <point x="211.333" y="119"/>
      <point x="238" y="86.6667"/>
    </contour>
  </outline>
</glyph>
<glyph name="E" format="2">
  <advance width="572"/>
  <unicode hex="0045"/>
  <anchor x="356.667" y="760" name="top"/>
  <outline>
    <contour>
      <point x="594.333" y="671" type="line" name="n00"/>
      <point x="563.667" y="518.333" type="line" name="n01"/>
      <point x="494.333" y="518.333" type="line"/>
      <point x="494.333" y="600.667" type="line" smooth="yes"/>
      <point x="494.333" y="613.333"/>
      <point x="487.667" y="617.667" name="hr01"/>
      <point x="474" y="617.667" type="curve" smooth="yes" name="n06"/>
      <point x="288.667" y="617.667" type="line"/>
      <point x="243" y="376.333" type="line"/>
      <point x="370" y="376.333" type="line" smooth="yes" name="n09"/>
      <point x="382.667" y="376.333"/>
      <point x="392.333" y="381.333"/>
      <point x="396" y="394" type="curve" smooth="yes"/>
      <point x="415.667" y="462" type="line"/>
      <point x="477.333" y="462" type="line"/>
      <point x="432.667" y="231.127" type="line"/>
      <point x="370" y="231.127" type="line" name="n16"/>
      <point x="380" y="303.634" type="line"/>
      <point x="380.062" y="314.733"/>
      <point x="371.681" y="321.667" name="hr02"/>
      <point x="360" y="321.667" type="curve" smooth="yes" name="n20"/>
      <point x="231.667" y="321.667" type="line"/>
      <point x="180.333" y="53.3333" type="line"/>
      <point x="408" y="53.3333" type="line" smooth="yes" name="n23"/>
      <point x="420.667" y="53.3333"/>
      <point x="430.541" y="60.5961"/>
      <point x="434" y="71.3333" type="curve" smooth="yes"/>
      <point x="465.333" y="168.667" type="line" name="n27"/>
      <point x="532.333" y="168.667" type="line"/>
      <point x="498.667" y="0" type="line" name="n29"/>
      <point x="-15" y="0" type="line"/>
      <point x="-15" y="44.6667" type="line"/>
      <point x="43.6667" y="49.6667" type="line" smooth="yes"/>
      <point x="57.3333" y="50.6667"/>
      <point x="64.6165" y="55.4015"/>
      <point x="67" y="67.6667" type="curve" smooth="yes"/>
      <point x="171" y="603" type="line"/>
      <point x="171.209" y="612.193"/>
      <point x="165.528" y="620.209"/>
      <point x="152.333" y="621.333" type="curve" smooth="yes"/>
      <point x="96" y="626.333" type="line"/>
      <point x="96" y="671" type="line"/>
    </contour>
  </outline>
</glyph>
<glyph name="F" format="2">
  <advance width="528"/>
  <unicode hex="0046"/>
  <outline>
    <contour>
      <point x="583.333" y="671" type="line" name="n00"/>
      <point x="551.667" y="507.333" type="line" name="n01"/>
      <point x="482" y="507.333" type="line"/>
      <point x="482" y="600.667" type="line" smooth="yes"/>
      <point x="482" y="613.333"/>
      <point x="474.667" y="617.667" name="hr01"/>
      <point x="461" y="617.667" type="curve" smooth="yes" name="n06"/>
      <point x="288.667" y="617.667" type="line"/>
      <point x="240.333" y="365.667" type="line" name="n08"/>
      <point x="361" y="365.667" type="line" smooth="yes" name="n09"/>
      <point x="373.667" y="365.667"/>
      <point x="383.333" y="370.333"/>
      <point x="386.333" y="383" type="curve"/>
      <point x="405.667" y="452.333" type="line"/>
      <point x="468.333" y="452.333" type="line"/>
      <point x="423.667" y="221.667" type="line"/>
      <point x="360.667" y="221.667" type="line" name="n16"/>
      <point x="371" y="293.333" type="line" smooth="yes"/>
      <point x="372.573" y="305.014"/>
      <point x="362.667" y="311.333" name="hr02"/>
      <point x="350" y="311.333" type="curve" smooth="yes"/>
      <point x="229.667" y="311.333" type="line" name="n21"/>
      <point x="182" y="67.3333" type="line" smooth="yes"/>
      <point x="180" y="56.6667"/>
      <point x="185.333" y="50.6667"/>
      <point x="201" y="49.6667" type="curve"/>
      <point x="201" y="49.6667"/>
      <point x="243.988" y="46.5138"/>
      <point x="266" y="44.6667" type="curve"/>
      <point x="266" y="0" type="line"/>
      <point x="-15" y="0" type="line"/>
      <point x="-15" y="44.6667" type="line"/>
      <point x="3.01965" y="46.4579"/>
      <point x="42" y="49.6667"/>
      <point x="42" y="49.6667" type="curve"/>
      <point x="55.6667" y="50.6667"/>
      <point x="64" y="55.3333"/>
      <point x="67" y="67.6667" type="curve"/>
      <point x="171" y="603" type="line" smooth="yes"/>
      <point x="173" y="614.333"/>
      <point x="167.667" y="620.333"/>
      <point x="151.333" y="621.333" type="curve"/>
      <point x="151.333" y="621.333"/>
      <point x="112.861" y="624.542"/>
      <point x="95" y="626.333" type="curve"/>
      <point x="95" y="671" type="line"/>
    </contour>
  </outline>
</glyph>
<glyph name="G" format="2">
  <advance width="701"/>
  <unicode hex="0047"/>
  <outline>
    <contour>
      <point x="689" y="281" type="line"/>
      <point x="628.333" y="276" type="line" smooth="yes"/>
      <point x="616.667" y="275"/>
      <point x="609.667" y="270"/>
      <point x="607" y="258.333" type="curve"/>
      <point x="561.667" y="24" type="line"/>
      <point x="529.667" y="15.3333"/>
      <point x="422.667" y="-16"/>
      <point x="339" y="-16" type="curve" smooth="yes" name="n08"/>
      <point x="102" y="-16"/>
      <point x="48" y="158.333"/>
      <point x="48" y="268.333" type="curve" smooth="yes" name="n11"/>
      <point x="48" y="522"/>
      <point x="262.333" y="687"/>
      <point x="486" y="687" type="curve" smooth="yes" name="n14"/>
      <point x="554.667" y="687"/>
      <point x="600.667" y="676.333"/>
      <point x="679" y="652" type="curve"/>
      <point x="646" y="484" type="line"/>
      <point x="572.333" y="484" type="line"/>
      <point x="577.333" y="583" type="line" smooth="yes"/>
      <point x="578.333" y="597"/>
      <point x="568.667" y="605.667"/>
      <point x="556" y="609.333" type="curve"/>
      <point x="548.333" y="612"/>
      <point x="516.333" y="629.667"/>
      <point x="474" y="629.667" type="curve" smooth="yes" name="n26"/>
      <point x="333" y="629.667"/>
      <point x="172" y="483.667"/>
      <point x="172" y="252.667" type="curve" smooth="yes" name="n29"/>
      <point x="172" y="91.3333"/>
      <point x="295.667" y="40.3333"/>
      <point x="359" y="40.3333" type="curve" smooth="yes" name="n32"/>
      <point x="394.333" y="40.3333"/>
      <point x="436.333" y="52"/>
      <point x="453" y="56.3333" type="curve"/>
      <point x="492" y="258.333" type="line" smooth="yes"/>
      <point x="494" y="269.667"/>
      <point x="489.667" y="275.333"/>
      <point x="472.333" y="276.333" type="curve"/>
      <point x="472.333" y="276.333"/>
      <point x="434.841" y="279.53"/>
      <point x="417" y="281" type="curve"/>
      <point x="417" y="326" type="line"/>
      <point x="689" y="326" type="line"/>
    </contour>
  </outline>
</glyph>
<glyph name="K" format="2">
  <advance width="669"/>
  <unicode hex="004B"/>
  <outline>
    <contour>
      <point x="706" y="626.333" type="line"/>
      <point x="620.667" y="618.333" type="line"/>
      <point x="360" y="367.667" type="line"/>
      <point x="499" y="100.333" type="line" smooth="yes"/>
      <point x="523.333" y="53"/>
      <point x="537.333" y="43.3333"/>
      <point x="571" y="43" type="curve" name="n06"/>
      <point x="582.333" y="43"/>
      <point x="608.333" y="45"/>
      <point x="620" y="45.6667" type="curve"/>
      <point x="620" y="1" type="line" name="n10"/>
      <point x="587.333" y="-8.66667"/>
      <point x="548.667" y="-16" name="hr02"/>
      <point x="519" y="-16" type="curve" smooth="yes" name="n13"/>
      <point x="453.333" y="-16"/>
      <point x="426.333" y="2.33333"/>
      <point x="396" y="59.3333" type="curve" smooth="yes"/>
      <point x="274" y="293.667" type="line"/>
      <point x="225.667" y="293.667" type="line"/>
      <point x="181" y="67.3333" type="line" smooth="yes"/>
      <point x="179" y="56.3333"/>
      <point x="184.667" y="50.3333"/>
      <point x="199.667" y="49.3333" type="curve"/>
      <point x="199.667" y="49.3333"/>
      <point x="238.739" y="46.103"/>
      <point x="255.667" y="44.6667" type="curve"/>
      <point x="255.667" y="0" type="line"/>
      <point x="-16" y="0" type="line"/>
      <point x="-16" y="44.6667" type="line"/>
      <point x="0.652742" y="46.0218"/>
      <point x="43.6667" y="49.3333"/>
      <point x="43.6667" y="49.3333" type="curve"/>
      <point x="55.6667" y="50"/>
      <point x="64" y="55.3333"/>
      <point x="66" y="67.6667" type="curve"/>
      <point x="171" y="603" type="line" smooth="yes"/>
      <point x="173.333" y="614.333"/>
      <point x="168.667" y="620.667"/>
      <point x="154" y="621.667" type="curve" name="n38"/>
      <point x="154" y="621.667"/>
      <point x="116.855" y="624.513"/>
      <point x="99" y="626.333" type="curve"/>
      <point x="99" y="671" type="line" name="n42"/>
      <point x="366.667" y="671" type="line"/>
      <point x="366.667" y="626.333" type="line"/>
      <point x="347.982" y="624.513"/>
      <point x="309" y="621.667"/>
      <point x="309" y="621.667" type="curve"/>
      <point x="297" y="620.667"/>
      <point x="289" y="615.667"/>
      <point x="286" y="602.667" type="curve"/>
      <point x="237.667" y="355.667" type="line"/>
      <point x="251.667" y="355.667" type="line"/>
      <point x="504" y="603.333" type="line" smooth="yes"/>
      <point x="512.667" y="611.667"/>
      <point x="510.333" y="620.667"/>
      <point x="496.333" y="621.667" type="curve"/>
      <point x="496.333" y="621.667"/>
      <point x="453.443" y="624.929"/>
      <point x="436.333" y="626.333" type="curve"/>
      <point x="436.333" y="671" type="line"/>
      <point x="706" y="671" type="line"/>
    </contour>
  </outline>
</glyph>
<glyph name="Q" format="2">
  <advance width="723"/>
  <unicode hex="0051"/>
  <outline>
    <contour>
      <point x="736" y="-110" type="line"/>
      <point x="720" y="-118.333"/>
      <point x="631.667" y="-160"/>
      <point x="560" y="-160" type="curve" smooth="yes" name="n03"/>
      <point x="450" y="-160"/>
      <point x="404.333" y="-94.6667"/>
      <point x="368" y="-13.3333" type="curve"/>
      <point x="355" y="-14.3333"/>
      <point x="338.667" y="-16.6667"/>
      <point x="324" y="-16.6667" type="curve" smooth="yes" name="n09"/>
      <point x="168.333" y="-16.6667"/>
      <point x="46" y="85.6667"/>
      <point x="46" y="259" type="curve" smooth="yes" name="n12"/>
      <point x="46" y="463.667"/>
      <point x="197" y="687"/>
      <point x="428" y="687" type="curve" smooth="yes" name="n15"/>
      <point x="600" y="687"/>
      <point x="704" y="568.667"/>
      <point x="704" y="417.333" type="curve" smooth="yes" name="n18"/>
      <point x="704" y="310"/>
      <point x="670.333" y="126.667"/>
      <point x="485" y="20.6667" type="curve"/>
      <point x="524.333" y="-51.3333"/>
      <point x="549" y="-98.6667"/>
      <point x="614" y="-98.6667" type="curve" smooth="yes" name="n24"/>
      <point x="651.667" y="-98.6667"/>
      <point x="693.333" y="-80.3333"/>
      <point x="736" y="-61" type="curve"/>
    </contour>
    <contour>
      <point x="577" y="417.333" type="curve" smooth="yes" name="n28"/>
      <point x="577" y="544.333"/>
      <point x="510" y="632.667"/>
      <point x="423" y="632.667" type="curve" smooth="yes" name="n31"/>
      <point x="283.333" y="632.667"/>
      <point x="172" y="441.667"/>
      <point x="172" y="254" type="curve" smooth="yes" name="n34"/>
      <point x="172" y="128"/>
      <point x="238" y="39.3333"/>
      <point x="333" y="39.3333" type="curve" smooth="yes" name="n37"/>
      <point x="467" y="39.3333"/>
      <point x="577" y="242.333"/>
    </contour>
  </outline>
</glyph>
<glyph name="T" format="2">
  <advance width="599"/>
  <unicode hex="0054"/>
  <outline>
    <contour>
      <point x="663.333" y="671" type="line"/>
      <point x="630.667" y="510.667" type="line"/>
      <point x="562.667" y="510.667" type="line"/>
      <point x="567" y="605" type="line"/>
      <point x="568" y="617.333"/>
      <point x="559.667" y="622.667" name="hr01"/>
      <point x="547" y="622.667" type="curve" smooth="yes"/>
      <point x="424.667" y="622.667" type="line"/>
      <point x="321" y="67.3333" type="line" smooth="yes"/>
      <point x="319" y="56.6667"/>
      <point x="324.667" y="50.6667"/>
      <point x="340.667" y="49.6667" type="curve"/>
      <point x="340.667" y="49.6667"/>
      <point x="380.135" y="46.4443"/>
      <point x="398" y="44.6667" type="curve"/>
      <point x="398" y="0" type="line" name="n15"/>
      <point x="124" y="0" type="line"/>
      <point x="124" y="44.6667" type="line"/>
      <point x="141.809" y="46.1215"/>
      <point x="181" y="49.3333"/>
      <point x="181" y="49.3333" type="curve"/>
      <point x="193.667" y="50.3333"/>
      <point x="204" y="55.3333"/>
      <point x="206" y="67.6667" type="curve" smooth="yes"/>
      <point x="309.667" y="622.667" type="line"/>
      <point x="192" y="622.667" type="line" smooth="yes" name="n25"/>
      <point x="181" y="622.667"/>
      <point x="169.667" y="616.333"/>
      <point x="166" y="604.667" type="curve"/>
      <point x="132.667" y="510.667" type="line" name="hr02"/>
      <point x="64.6667" y="510.667" type="line" name="n30"/>
      <point x="95.3333" y="671" type="line" name="n31"/>
    </contour>
  </outline>
</glyph>
<glyph name="W" format="2">
  <advance width="940"/>
  <unicode hex="0057"/>
  <outline>
    <contour>
      <point x="1014" y="626.333" type="line" name="n00"/>
      <point x="954.333" y="620.333" type="line"/>
      <point x="654" y="-16" type="line" name="n02"/>
      <point x="577.333" y="-16" type="line"/>
      <point x="521.667" y="493" type="line"/>
      <point x="282.333" y="-16" type="line"/>
      <point x="199.333" y="-16" type="line"/>
      <point x="149" y="605.667" type="line" smooth="yes"/>
      <point x="148" y="618.667"/>
      <point x="142" y="623"/>
      <point x="125" y="624" type="curve"/>
      <point x="125" y="624"/>
      <point x="95.6682" y="625.365"/>
      <point x="83" y="626" type="curve"/>
      <point x="83" y="671" type="line"/>
      <point x="328" y="671" type="line"/>
      <point x="328" y="626" type="line"/>
      <point x="313.305" y="625.347"/>
      <point x="282.667" y="624"/>
      <point x="282.667" y="624" type="curve"/>
      <point x="270" y="623.333"/>
      <point x="263.667" y="618"/>
      <point x="264" y="606" type="curve"/>
      <point x="297" y="199" type="line"/>
      <point x="520.667" y="671" type="line"/>
      <point x="614.667" y="671" type="line"/>
      <point x="663.333" y="191.333" type="line"/>
      <point x="855" y="606" type="line" smooth="yes"/>
      <point x="861" y="618.333"/>
      <point x="853" y="623.333"/>
      <point x="836" y="624.333" type="curve"/>
      <point x="836" y="624.333"/>
      <point x="804.339" y="625.37"/>
      <point x="791" y="626" type="curve"/>
      <point x="791" y="671" type="line"/>
      <point x="1014" y="671" type="line" name="n35"/>
    </contour>
  </outline>
</glyph>
<glyph name="Y" format="2">
  <advance width="653"/>
  <unicode hex="0059"/>
  <outline>
    <contour>
      <point x="725" y="626.333" type="line"/>
      <point x="666.333" y="622" type="line"/>
      <point x="657.333" y="621"/>
      <point x="647.333" y="612.667"/>
      <point x="643" y="608" type="curve"/>
      <point x="389" y="281" type="line"/>
      <point x="347" y="67.3333" type="line"/>
      <point x="344" y="56.6667"/>
      <point x="349.667" y="50.6667"/>
      <point x="365.667" y="49.6667" type="curve"/>
      <point x="365.667" y="49.6667"/>
      <point x="403.481" y="46.4868"/>
      <point x="422" y="44.6667" type="curve"/>
      <point x="422" y="0" type="line" name="n13"/>
      <point x="148" y="0" type="line"/>
      <point x="148" y="44.6667" type="line"/>
      <point x="166.178" y="46.4579"/>
      <point x="205.667" y="49.6667"/>
      <point x="205.667" y="49.6667" type="curve"/>
      <point x="218" y="50.6667"/>
      <point x="227" y="55.3333"/>
      <point x="230" y="67.6667" type="curve"/>
      <point x="271" y="272.333" type="line"/>
      <point x="159" y="608.333" type="line"/>
      <point x="155.333" y="620.667"/>
      <point x="146.667" y="621.333"/>
      <point x="138" y="622.333" type="curve"/>
      <point x="138" y="622.333"/>
      <point x="100.258" y="625.053"/>
      <point x="84" y="626.333" type="curve"/>
      <point x="84" y="671" type="line"/>
      <point x="357" y="671" type="line"/>
      <point x="357" y="626.333" type="line"/>
      <point x="336.676" y="625.021"/>
      <point x="293.667" y="622.333"/>
      <point x="293.667" y="622.333" type="curve"/>
      <point x="282.667" y="621.667"/>
      <point x="274.667" y="615.333"/>
      <point x="279" y="603.667" type="curve"/>
      <point x="356.667" y="358" type="line"/>
      <point x="540.333" y="604" type="line"/>
      <point x="545.667" y="611.667"/>
      <point x="547.333" y="621.333"/>
      <point x="531" y="622.333" type="curve" smooth="yes"/>
      <point x="470" y="626.333" type="line"/>
      <point x="470" y="671" type="line"/>
      <point x="725" y="671" type="line"/>
    </contour>
  </outline>
</glyph>
<glyph name="Z" format="2">
  <advance width="576"/>
  <unicode hex="005A"/>
  <outline>
    <contour>
      <point x="609.333" y="671" type="line"/>
      <point x="600" y="624.333" type="line"/>
      <point x="130.667" y="56" type="line"/>
      <point x="394" y="56" type="line" smooth="yes" name="n03"/>
      <point x="406.667" y="56"/>
      <point x="416.488" y="61.9571"/>
      <point x="420" y="74.3333" type="curve" smooth="yes"/>
      <point x="452" y="192.333" type="line" name="n07"/>
      <point x="525.333" y="192.333" type="line"/>
      <point x="488.667" y="0" type="line" name="n09"/>
      <point x="-20.3333" y="0" type="line"/>
      <point x="-11" y="45.6667" type="line"/>
      <point x="456.333" y="615.667" type="line"/>
      <point x="231" y="615.667" type="line" smooth="yes" name="n13"/>
      <point x="218.333" y="615.667"/>
      <point x="209.333" y="610.333"/>
      <point x="205.667" y="598.333" type="curve" smooth="yes"/>
      <point x="177" y="504.333" type="line" name="hr02"/>
      <point x="103" y="504.333" type="line" name="n18"/>
      <point x="136.333" y="671" type="line" name="n19"/>
    </contour>
  </outline>
</glyph>
<glyph name="bracketright" format="2">
  <advance width="429"/>
  <unicode hex="005D"/>
  <outline>
    <contour>
      <point x="385" y="708" type="line"/>
      <point x="217.667" y="-132" type="line"/>
      <point x="-41" y="-132" type="line" name="n02"/>
      <point x="-37" y="-80.6667" type="line" name="n03"/>
      <point x="123.667" y="-80.6667" type="line"/>
      <point x="270" y="657.333" type="line"/>
      <point x="116.667" y="657.333" type="line" name="n06"/>
      <point x="120.667" y="708" type="line" name="n07"/>
    </contour>
  </outline>
</glyph>
<glyph name="a" format="2">
  <advance width="536"/>
  <unicode hex="0061"/>
  <anchor x="343.333" y="570" name="top"/>
  <outline>
    <contour>
      <point x="533.667" y="28" type="line"/>
      <point x="507.375" y="16.0161"/>
      <point x="439.333" y="-12"/>
      <point x="391.878" y="-12" type="curve" smooth="yes"/>
      <point x="350.333" y="-12"/>
      <point x="329.333" y="9.33333"/>
      <point x="322.333" y="48.3333" type="curve"/>
      <point x="290.667" y="22"/>
      <point x="240.333" y="-12"/>
      <point x="177.582" y="-12" type="curve" smooth="yes" name="n09"/>
      <point x="64.6667" y="-12"/>
      <point x="32" y="95.2753"/>
      <point x="32" y="171.721" type="curve" smooth="yes" name="n12"/>
      <point x="32" y="320.881"/>
      <point x="131.667" y="496"/>
      <point x="328" y="496" type="curve" smooth="yes" name="n15"/>
      <point x="362.333" y="496"/>
      <point x="396" y="480.897"/>
      <point x="415.667" y="464.759" type="curve"/>
      <point x="428" y="483.862" type="line"/>
      <point x="509" y="483.862" type="line"/>
      <point x="500.36" y="465.843"/>
      <point x="492.735" y="447.89"/>
      <point x="488" y="425.026" type="curve" smooth="yes"/>
      <point x="419.667" y="94.2735" type="line"/>
      <point x="419.667" y="60.993"/>
      <point x="434.667" y="50.3333"/>
      <point x="456.036" y="50.3333" type="curve" smooth="yes"/>
      <point x="471.667" y="50.3333"/>
      <point x="520.301" y="63.0177"/>
      <point x="533.667" y="67.9736" type="curve"/>
    </contour>
    <contour>
      <point x="372.333" y="392.084" type="line"/>
      <point x="373.074" y="398.9"/>
      <point x="354" y="444"/>
      <point x="342.333" y="444" type="curve" smooth="yes" name="n34"/>
      <point x="197.667" y="444"/>
      <point x="145" y="285.266"/>
      <point x="145" y="175.963" type="curve" smooth="yes" name="n37"/>
      <point x="145" y="119.226"/>
      <point x="155.505" y="57"/>
      <point x="212.991" y="57" type="curve" smooth="yes" name="n40"/>
      <point x="261.333" y="57"/>
      <point x="302.685" y="100.999"/>
      <point x="317" y="117.565" type="curve"/>
    </contour>
  </outline>
</glyph>
<glyph name="d" format="2">
  <advance width="538"/>
  <unicode hex="0064"/>
  <outline>
    <contour>
      <point x="542.667" y="737" type="line" name="n00"/>
      <point x="428.333" y="87.3333" type="line" smooth="yes"/>
      <point x="422.003" y="51.6054"/>
      <point x="449" y="43"/>
      <point x="457.667" y="43" type="curve" smooth="yes"/>
      <point x="473.667" y="43"/>
      <point x="523.333" y="60.6667"/>
      <point x="536.667" y="65.6667" type="curve"/>
      <point x="536.667" y="24.6667" type="line"/>
      <point x="514.667" y="14"/>
      <point x="443.333" y="-12"/>
      <point x="398.667" y="-12" type="curve" smooth="yes"/>
      <point x="341.333" y="-12"/>
      <point x="322.333" y="14.6667"/>
      <point x="318.667" y="54" type="curve"/>
      <point x="283.333" y="20.3333"/>
      <point x="233.667" y="-12"/>
      <point x="182" y="-12" type="curve" smooth="yes" name="n17"/>
      <point x="68.6667" y="-12"/>
      <point x="32" y="83"/>
      <point x="32" y="167.667" type="curve" smooth="yes" name="n20"/>
      <point x="32" y="324.667"/>
      <point x="136.333" y="496"/>
      <point x="321.667" y="496" type="curve" smooth="yes" name="n23"/>
      <point x="350" y="496"/>
      <point x="375.333" y="484.667"/>
      <point x="391" y="479.333" type="curve"/>
      <point x="423.667" y="665.667" type="line"/>
      <point x="333" y="674.333" type="line"/>
      <point x="333" y="706.333" type="line"/>
      <point x="492.667" y="737" type="line"/>
    </contour>
    <contour>
      <point x="376" y="394" type="line" smooth="yes"/>
      <point x="377" y="399.667"/>
      <point x="345" y="447"/>
      <point x="319.667" y="447" type="curve" smooth="yes" name="n34"/>
      <point x="231.667" y="447"/>
      <point x="142.667" y="330.667"/>
      <point x="142.667" y="173.667" type="curve" smooth="yes" name="n37"/>
      <point x="142.667" y="89.3333"/>
      <point x="175.333" y="52.3333"/>
      <point x="213.667" y="52.3333" type="curve" smooth="yes" name="n40"/>
      <point x="249" y="52.3333"/>
      <point x="294.667" y="91.3333"/>
      <point x="330" y="132.333" type="curve"/>
    </contour>
  </outline>
</glyph>
<glyph name="e" format="2">
  <advance width="449"/>
  <unicode hex="0065"/>
  <anchor x="306" y="570" name="top"/>
  <outline>
    <contour>
      <point x="432.333" y="390.644" type="curve" smooth="yes" name="n00"/>
      <point x="432.333" y="306.158"/>
      <point x="307.584" y="230.575"/>
      <point x="147" y="219.806" type="curve"/>
      <point x="144.814" y="205.98"/>
      <point x="143.333" y="186.706"/>
      <point x="143.333" y="171.901" type="curve" smooth="yes" name="n06"/>
      <point x="143.333" y="98.3288"/>
      <point x="178.021" y="51.3333"/>
      <point x="232.445" y="51.3333" type="curve" smooth="yes" name="n09"/>
      <point x="272.617" y="51.3333"/>
      <point x="315.771" y="76.8634"/>
      <point x="409.333" y="158.443" type="curve"/>
      <point x="409.333" y="84.6943" type="line"/>
      <point x="348.966" y="25.8866"/>
      <point x="266.109" y="-12"/>
      <point x="193.412" y="-12" type="curve" smooth="yes" name="n16"/>
      <point x="95.9263" y="-12"/>
      <point x="32.3333" y="56.2906"/>
      <point x="32.3333" y="172.717" type="curve" smooth="yes" name="n19"/>
      <point x="32.3333" y="338.232"/>
      <point x="160.855" y="495.333"/>
      <point x="298.477" y="495.333" type="curve" smooth="yes" name="n22"/>
      <point x="373.358" y="495.333"/>
      <point x="432.333" y="448.753"/>
    </contour>
    <contour>
      <point x="329.667" y="395.695" type="curve" smooth="yes" name="n25"/>
      <point x="329.667" y="424.789"/>
      <point x="309.786" y="446.333"/>
      <point x="283.17" y="446.333" type="curve" smooth="yes" name="n28"/>
      <point x="232.145" y="446.333"/>
      <point x="177.687" y="369.566"/>
      <point x="152" y="262.517" type="curve"/>
      <point x="246.868" y="275.472"/>
      <point x="329.667" y="336.581"/>
    </contour>
  </outline>
</glyph>
<glyph name="f" format="2">
  <advance width="334"/>
  <unicode hex="0066"/>
  <outline>
    <contour>
      <point x="454.667" y="667.903" type="curve" smooth="yes"/>
      <point x="454.667" y="642"/>
      <point x="432.333" y="620.667"/>
      <point x="384" y="614" type="curve"/>
      <point x="311.333" y="675.667" type="line"/>
      <point x="265" y="636.333"/>
      <point x="242.667" y="507.667"/>
      <point x="236.667" y="457.667" type="curve"/>
      <point x="358.667" y="457.667" type="line" name="n08"/>
      <point x="358.667" y="404.333" type="line" name="n09"/>
      <point x="227.333" y="404.333" type="line"/>
      <point x="221.333" y="355.667"/>
      <point x="185.333" y="95.3333"/>
      <point x="167.466" y="21.5784" type="curve" smooth="yes"/>
      <point x="141" y="-87.6667"/>
      <point x="47.3333" y="-229.333" name="n15"/>
      <point x="-56.656" y="-229.333" type="curve" smooth="yes"/>
      <point x="-113.333" y="-229.333"/>
      <point x="-130" y="-187.333"/>
      <point x="-130" y="-166.427" type="curve" smooth="yes"/>
      <point x="-130" y="-147.333"/>
      <point x="-116.333" y="-129.667"/>
      <point x="-97.3333" y="-116" type="curve"/>
      <point x="0.666667" y="-152.333" type="line"/>
      <point x="34.3333" y="-109"/>
      <point x="56.3333" y="-28"/>
      <point x="71.8132" y="58.2997" type="curve" smooth="yes"/>
      <point x="89.3333" y="155.667"/>
      <point x="105" y="273"/>
      <point x="120.667" y="402.667" type="curve"/>
      <point x="44.3333" y="394.667" type="line"/>
      <point x="45" y="436.537" type="line"/>
      <point x="132" y="466" type="line"/>
      <point x="152" y="569.667"/>
      <point x="210.667" y="737" name="n34"/>
      <point x="354.859" y="737" type="curve" smooth="yes"/>
      <point x="426" y="737"/>
      <point x="454.667" y="697.333"/>
    </contour>
  </outline>
</glyph>
<glyph name="i" format="2">
  <advance width="281"/>
  <unicode hex="0069"/>
  <outline>
    <contour>
      <point x="271" y="648.333" type="curve" smooth="yes" name="n00"/>
      <point x="271" y="612.209"/>
      <point x="241.987" y="585"/>
      <point x="203.321" y="585" type="curve" smooth="yes" name="n03"/>
      <point x="165.515" y="585"/>
      <point x="137.667" y="611.049"/>
      <point x="137.667" y="646.235" type="curve" smooth="yes" name="n06"/>
      <point x="137.667" y="682.802"/>
      <point x="167.245" y="711.333"/>
      <point x="205.168" y="711.333" type="curve" smooth="yes" name="n09"/>
      <point x="242.168" y="711.333"/>
      <point x="271" y="683.73"/>
    </contour>
    <contour>
      <point x="278" y="30" type="line"/>
      <point x="226.171" y="4.48628"/>
      <point x="166.328" y="-12" name="n14"/>
      <point x="122.271" y="-12" type="curve" smooth="yes"/>
      <point x="76.1325" y="-12"/>
      <point x="47.0811" y="15.3034"/>
      <point x="46.4795" y="61.6725" type="curve" smooth="yes"/>
      <point x="46.3885" y="69.8949"/>
      <point x="47.2684" y="78.5092"/>
      <point x="49" y="87.6667" type="curve" smooth="yes"/>
      <point x="112.667" y="424.333" type="line"/>
      <point x="26.6667" y="433.333" type="line"/>
      <point x="26.6667" y="464.333" type="line"/>
      <point x="182.222" y="496" type="line" name="n25"/>
      <point x="232.738" y="496" type="line"/>
      <point x="156.57" y="95.6667" type="line" smooth="yes"/>
      <point x="155.597" y="90.5593"/>
      <point x="155.057" y="85.9376"/>
      <point x="155.063" y="81.7851" type="curve" smooth="yes"/>
      <point x="155.076" y="60.7211"/>
      <point x="168.302" y="46.3333"/>
      <point x="186.639" y="46.3333" type="curve" smooth="yes"/>
      <point x="204.397" y="46.3333"/>
      <point x="249.278" y="59.9003"/>
      <point x="278" y="73.6667" type="curve"/>
    </contour>
  </outline>
</glyph>
<glyph name="l" format="2">
  <advance width="279"/>
  <unicode hex="006C"/>
  <outline>
    <contour>
      <point x="276.667" y="27" type="line"/>
      <point x="250" y="14.6667"/>
      <point x="179.333" y="-12"/>
      <point x="130.667" y="-12" type="curve" smooth="yes" name="n03"/>
      <point x="68" y="-12"/>
      <point x="39" y="18"/>
      <point x="39" y="62" type="curve" smooth="yes"/>
      <point x="39" y="72.3333"/>
      <point x="40" y="84.3333"/>
      <point x="42.3333" y="97.3333" type="curve" smooth="yes"/>
      <point x="152" y="665.667" type="line"/>
      <point x="63.3333" y="674.333" type="line"/>
      <point x="63.3333" y="706.333" type="line"/>
      <point x="223.667" y="737" type="line" name="n13"/>
      <point x="271.667" y="737" type="line"/>
      <point x="149.333" y="100" type="line" smooth="yes"/>
      <point x="144.667" y="74.3333"/>
      <point x="161.667" y="47"/>
      <point x="188.667" y="47" type="curve" smooth="yes" name="n18"/>
      <point x="206.667" y="47"/>
      <point x="253.667" y="61.3333"/>
      <point x="276.667" y="70.3333" type="curve"/>
    </contour>
  </outline>
</glyph>
<glyph name="z" format="2">
  <advance width="460"/>
  <unicode hex="007A"/>
  <outline>
    <contour>
      <point x="466" y="468.667" type="line"/>
      <point x="130" y="78.1597" type="line"/>
      <point x="207" y="97.1798" type="line"/>
      <point x="244.038" y="76.2883"/>
      <point x="279.776" y="63.7969"/>
      <point x="300.455" y="63.7969" type="curve" smooth="yes" name="n05"/>
      <point x="321.254" y="63.7969"/>
      <point x="345.415" y="76.5779"/>
      <point x="357.333" y="95.5085" type="curve"/>
      <point x="300.667" y="157.608" type="line"/>
      <point x="312.844" y="178.417"/>
      <point x="342.905" y="195.667"/>
      <point x="366.333" y="195.667" type="curve" smooth="yes"/>
      <point x="397.437" y="195.667"/>
      <point x="422.333" y="163.696"/>
      <point x="422.333" y="124.722" type="curve" smooth="yes"/>
      <point x="422.333" y="55.2751"/>
      <point x="343.384" y="-11.6667"/>
      <point x="263.519" y="-11.6667" type="curve" smooth="yes" name="n18"/>
      <point x="234.249" y="-11.6667"/>
      <point x="200.398" y="-1.98931"/>
      <point x="172.043" y="14.4793" type="curve" smooth="yes"/>
      <point x="153.311" y="25.2784"/>
      <point x="134.919" y="31.0651"/>
      <point x="120.036" y="31.0651" type="curve" smooth="yes"/>
      <point x="107.64" y="31.0651"/>
      <point x="98.4235" y="28.8219"/>
      <point x="92.6667" y="22.3891" type="curve"/>
      <point x="63.6667" y="-30.3333" type="line"/>
      <point x="-16" y="12.7085" type="line"/>
      <point x="320" y="404" type="line"/>
      <point x="240.333" y="387" type="line"/>
      <point x="207.107" y="406.952"/>
      <point x="180.891" y="417"/>
      <point x="161.926" y="417" type="curve" smooth="yes" name="n34"/>
      <point x="139.125" y="417"/>
      <point x="109.674" y="403.364"/>
      <point x="100.333" y="388" type="curve"/>
      <point x="155.333" y="324.333" type="line"/>
      <point x="144.843" y="306.817"/>
      <point x="112.894" y="289.333" name="hr01"/>
      <point x="90.1728" y="289.333" type="curve" smooth="yes" name="n41"/>
      <point x="60.3017" y="289.333"/>
      <point x="36" y="319.445"/>
      <point x="36" y="358.651" type="curve" smooth="yes"/>
      <point x="36" y="427.169"/>
      <point x="110.332" y="496"/>
      <point x="185.841" y="496" type="curve" smooth="yes" name="n47"/>
      <point x="217.368" y="496"/>
      <point x="248.631" y="484.252"/>
      <point x="286.696" y="465.196" type="curve" smooth="yes"/>
      <point x="311.941" y="452.584"/>
      <point x="323.85" y="448.333"/>
      <point x="334.395" y="448.333" type="curve" smooth="yes"/>
      <point x="340.921" y="448.333"/>
      <point x="348.073" y="450.623"/>
      <point x="355.667" y="455" type="curve"/>
      <point x="379.333" y="513.333" type="line"/>
    </contour>
  </outline>
</glyph>
<glyph name="braceleft" format="2">
  <advance width="488"/>
  <unicode hex="007B"/>
  <outline>
    <contour>
      <point x="510.333" y="704" type="curve" name="n00"/>
      <point x="502.333" y="657.667" type="line" name="n01"/>
      <point x="466.333" y="657.667"/>
      <point x="422.333" y="649.333"/>
      <point x="395.333" y="625.333" type="curve" smooth="yes"/>
      <point x="325.667" y="562.333"/>
      <point x="363" y="417.667"/>
      <point x="280" y="341.333" type="curve" smooth="yes"/>
      <point x="248.667" y="313.667"/>
      <point x="209.333" y="300"/>
      <point x="171.667" y="291.333" type="curve"/>
      <point x="195.333" y="284.667"/>
      <point x="227.333" y="275.667"/>
      <point x="249.333" y="252.333" type="curve"/>
      <point x="327" y="174.333"/>
      <point x="208.667" y="3.66667"/>
      <point x="269.667" y="-54" type="curve" smooth="yes"/>
      <point x="292" y="-76"/>
      <point x="336.667" y="-76.3333"/>
      <point x="358" y="-76.3333" type="curve"/>
      <point x="349" y="-122.667" type="line" name="n20"/>
      <point x="292.667" y="-122.667"/>
      <point x="209" y="-120.667"/>
      <point x="172.667" y="-81.6667" type="curve" smooth="yes"/>
      <point x="97.6667" y="0"/>
      <point x="219.333" y="183"/>
      <point x="157.667" y="243.333" type="curve"/>
      <point x="131.333" y="271"/>
      <point x="78.3333" y="265.333"/>
      <point x="52.3333" y="265.333" type="curve" name="n29"/>
      <point x="62" y="316" type="line" name="n30"/>
      <point x="98.6667" y="316"/>
      <point x="149.667" y="312.667"/>
      <point x="184.333" y="345" type="curve" smooth="yes"/>
      <point x="257" y="412"/>
      <point x="213.667" y="590.667"/>
      <point x="322" y="666.333" type="curve" smooth="yes"/>
      <point x="369" y="700"/>
      <point x="448.667" y="704"/>
    </contour>
  </outline>
</glyph>
<glyph name="braceright" format="2">
  <advance width="488"/>
  <unicode hex="007D"/>
  <outline>
    <contour>
      <point x="447" y="316" type="curve" name="n00"/>
      <point x="437.333" y="265.333" type="line" name="n01"/>
      <point x="400.667" y="265.333"/>
      <point x="349.667" y="268.333"/>
      <point x="314.667" y="236" type="curve" smooth="yes"/>
      <point x="242" y="168.667"/>
      <point x="285.667" y="-9.33333"/>
      <point x="178.333" y="-85" type="curve" smooth="yes"/>
      <point x="130.667" y="-118.667"/>
      <point x="50.6667" y="-122.667"/>
      <point x="-11" y="-122.667" type="curve" name="n10"/>
      <point x="-2.66667" y="-76.3333" type="line" name="n11"/>
      <point x="33.3333" y="-76.3333"/>
      <point x="77" y="-68"/>
      <point x="104.667" y="-44" type="curve" smooth="yes"/>
      <point x="173.667" y="18.6667"/>
      <point x="136" y="163.667"/>
      <point x="219" y="239.667" type="curve" smooth="yes"/>
      <point x="250" y="267.333"/>
      <point x="289" y="281"/>
      <point x="327.333" y="290.667" type="curve"/>
      <point x="304.333" y="296.667"/>
      <point x="272" y="305"/>
      <point x="250.333" y="328.667" type="curve"/>
      <point x="172" y="406.667"/>
      <point x="290.333" y="578.667"/>
      <point x="230.333" y="635.333" type="curve" smooth="yes"/>
      <point x="207.667" y="657.333"/>
      <point x="162.667" y="657.667"/>
      <point x="141.333" y="657.667" type="curve"/>
      <point x="151" y="704" type="line" name="n30"/>
      <point x="206.667" y="704"/>
      <point x="290.333" y="702"/>
      <point x="327" y="663" type="curve" smooth="yes"/>
      <point x="401.667" y="581.333"/>
      <point x="280" y="398"/>
      <point x="341.667" y="337.667" type="curve"/>
      <point x="368" y="310"/>
      <point x="421" y="316"/>
    </contour>
  </outline>
</glyph>
<glyph name="asciitilde" format="2">
  <advance width="833"/>
  <unicode hex="007E"/>
  <outline>
    <contour>
      <point x="751.667" y="304" type="line"/>
      <point x="673.333" y="249.333"/>
      <point x="619" y="232"/>
      <point x="564.749" y="232" type="curve" smooth="yes" name="n03"/>
      <point x="522.969" y="232"/>
      <point x="485.034" y="242.757"/>
      <point x="423.327" y="264.78" type="curve" smooth="yes"/>
      <point x="375.884" y="281.765"/>
      <point x="327.736" y="299"/>
      <point x="283.599" y="299" type="curve" smooth="yes" name="n09"/>
      <point x="227" y="299"/>
      <point x="163.667" y="270.667"/>
      <point x="91.3333" y="217" type="curve"/>
      <point x="91.3333" y="292" type="line"/>
      <point x="163.667" y="345"/>
      <point x="229" y="365"/>
      <point x="283" y="365" type="curve" smooth="yes" name="n16"/>
      <point x="324.587" y="365"/>
      <point x="365.361" y="353.354"/>
      <point x="430.289" y="330.194" type="curve" smooth="yes"/>
      <point x="490.801" y="308.607"/>
      <point x="527.009" y="298"/>
      <point x="562.363" y="298" type="curve" smooth="yes" name="n22"/>
      <point x="609.333" y="298"/>
      <point x="666.667" y="316.667"/>
      <point x="751.667" y="379" type="curve"/>
    </contour>
  </outline>
</glyph>
<glyph name="exclamdown" format="2">
  <advance width="338"/>
  <unicode hex="00A1"/>
  <outline>
    <contour>
      <point x="271.333" y="430.667" type="curve" smooth="yes" name="n00"/>
      <point x="271.333" y="392.667"/>
      <point x="240.333" y="363.667"/>
      <point x="201" y="363.667" type="curve" smooth="yes" name="n03"/>
      <point x="162.667" y="363.667"/>
      <point x="132" y="393.667"/>
      <point x="132" y="429.333" type="curve" smooth="yes" name="n06"/>
      <point x="132" y="466.667"/>
      <point x="161" y="496"/>
      <point x="201.333" y="496" type="curve" smooth="yes" name="n09"/>
      <point x="236.667" y="496"/>
      <point x="271.333" y="470.333"/>
    </contour>
    <contour>
      <point x="213.333" y="304" type="line"/>
      <point x="171" y="-119.333" type="line" smooth="yes"/>
      <point x="165.333" y="-175.333"/>
      <point x="128.667" y="-198.333" name="n15"/>
      <point x="86.3333" y="-198.333" type="curve" smooth="yes"/>
      <point x="48" y="-198.333"/>
      <point x="28.3333" y="-178.667"/>
      <point x="28.3333" y="-143.667" type="curve" smooth="yes"/>
      <point x="28.3333" y="-120"/>
      <point x="137.333" y="257.667"/>
      <point x="152.667" y="304" type="curve"/>
    </contour>
  </outline>
</glyph>
<glyph name="cent" format="2">
  <advance width="570"/>
  <unicode hex="00A2"/>
  <outline>
    <contour>
      <point x="533.333" y="467.333" type="curve"/>
      <point x="510.333" y="323.667" type="line"/>
      <point x="448" y="323.667" type="line"/>
      <point x="449.333" y="336.333"/>
      <point x="460" y="423.333"/>
      <point x="433" y="430.667" type="curve"/>
      <point x="428.333" y="433"/>
      <point x="407.333" y="443"/>
      <point x="380.333" y="446" type="curve"/>
      <point x="302" y="38.6667" type="line"/>
      <point x="328.333" y="41"/>
      <point x="351.333" y="47.3333"/>
      <point x="356" y="49" type="curve"/>
      <point x="393" y="56.3333"/>
      <point x="399.333" y="139.667"/>
      <point x="405.667" y="162.333" type="curve"/>
      <point x="468.333" y="162.333" type="line"/>
      <point x="445.667" y="18.6667" type="line"/>
      <point x="406.333" y="-0.666667"/>
      <point x="358.333" y="-10.3333" name="n19"/>
      <point x="292.667" y="-11.6667" type="curve"/>
      <point x="273.333" y="-110" type="line" name="n21"/>
      <point x="206.333" y="-110" type="line"/>
      <point x="226.333" y="-9" type="line"/>
      <point x="103" y="9"/>
      <point x="50.3333" y="95.6667"/>
      <point x="50.3333" y="180.333" type="curve" smooth="yes" name="n26"/>
      <point x="50.3333" y="321"/>
      <point x="148" y="470.667"/>
      <point x="322.667" y="493.667" type="curve"/>
      <point x="342" y="592" type="line" name="n30"/>
      <point x="408.667" y="592" type="line"/>
      <point x="390" y="495.667" type="line"/>
      <point x="449.667" y="493.667"/>
      <point x="485.667" y="484"/>
    </contour>
    <contour>
      <point x="312" y="436" type="line"/>
      <point x="227.333" y="403"/>
      <point x="160.333" y="307"/>
      <point x="160.333" y="186" type="curve" smooth="yes" name="n38"/>
      <point x="160.333" y="112"/>
      <point x="191" y="67"/>
      <point x="237.667" y="47.3333" type="curve"/>
    </contour>
  </outline>
</glyph>
<glyph name="yen" format="2">
  <advance width="570"/>
  <unicode hex="00A5"/>
  <outline>
    <contour>
      <point x="657.667" y="621" type="line"/>
      <point x="596.667" y="608.333" type="line"/>
      <point x="455" y="424" type="line"/>
      <point x="564.667" y="424" type="line" name="n03"/>
      <point x="564.667" y="375.667" type="line" name="n04"/>
      <point x="414" y="375.667" type="line"/>
      <point x="342.667" y="282" type="line"/>
      <point x="536" y="282" type="line" name="n07"/>
      <point x="536" y="233" type="line" name="n08"/>
      <point x="332.667" y="233" type="line"/>
      <point x="301" y="68" type="line" smooth="yes"/>
      <point x="299.667" y="60"/>
      <point x="301.333" y="52.6667"/>
      <point x="316" y="51" type="curve"/>
      <point x="316" y="51"/>
      <point x="359.343" y="47.8202"/>
      <point x="379.667" y="46" type="curve"/>
      <point x="379.667" y="0" type="line"/>
      <point x="98.3333" y="0" type="line" name="n18"/>
      <point x="98.3333" y="46" type="line"/>
      <point x="120" y="47.6667"/>
      <point x="144.677" y="47.5846"/>
      <point x="156" y="49" type="curve" smooth="yes" name="n22"/>
      <point x="170.344" y="50.5847"/>
      <point x="186.667" y="54"/>
      <point x="189" y="68.3333" type="curve"/>
      <point x="220.333" y="233" type="line"/>
      <point x="28" y="233" type="line"/>
      <point x="28" y="282" type="line"/>
      <point x="227" y="282" type="line"/>
      <point x="196" y="375.667" type="line"/>
      <point x="56.6667" y="375.667" type="line"/>
      <point x="56.6667" y="424" type="line"/>
      <point x="177.333" y="424" type="line"/>
      <point x="117.333" y="610" type="line"/>
      <point x="59.6667" y="621.667" type="line"/>
      <point x="59.6667" y="666.333" type="line" name="n36"/>
      <point x="309.667" y="666.333" type="line"/>
      <point x="309.667" y="620.333" type="line"/>
      <point x="289.494" y="618.79"/>
      <point x="252" y="615.667"/>
      <point x="252" y="615.667" type="curve"/>
      <point x="242.333" y="614.667"/>
      <point x="236.333" y="608.667"/>
      <point x="240" y="598.333" type="curve"/>
      <point x="315" y="362.667" type="line"/>
      <point x="493" y="595.333" type="line" smooth="yes"/>
      <point x="498" y="601.667"/>
      <point x="501" y="610.667"/>
      <point x="485.333" y="613" type="curve" smooth="yes"/>
      <point x="439.333" y="621" type="line"/>
      <point x="439.333" y="666.333" type="line"/>
      <point x="657.667" y="666.333" type="line"/>
    </contour>
  </outline>
</glyph>
<glyph name="ordfeminine" format="2">
  <advance width="348"/>
  <unicode hex="00AA"/>
  <outline>
    <contour>
      <point x="403" y="399.667" type="line"/>
      <point x="385.667" y="393.333"/>
      <point x="341" y="376"/>
      <point x="313.333" y="376" type="curve" smooth="yes"/>
      <point x="282.667" y="376"/>
      <point x="269" y="388.333"/>
      <point x="265" y="412.333" type="curve" name="hr01"/>
      <point x="244" y="395.667"/>
      <point x="211" y="376" name="hr02"/>
      <point x="175" y="376" type="curve" smooth="yes" name="n09"/>
      <point x="97.3333" y="376"/>
      <point x="76" y="440.333"/>
      <point x="76" y="483.667" type="curve" smooth="yes" name="n12"/>
      <point x="76" y="575.667"/>
      <point x="141" y="680.333"/>
      <point x="269" y="680.333" type="curve" smooth="yes" name="n15"/>
      <point x="291.333" y="680.333"/>
      <point x="312.667" y="671"/>
      <point x="325.667" y="662" type="curve"/>
      <point x="333.667" y="673" type="line" name="n19"/>
      <point x="386.333" y="673" type="line"/>
      <point x="382" y="663"/>
      <point x="374" y="644"/>
      <point x="372" y="638.333" type="curve"/>
      <point x="365.539" y="611.682"/>
      <point x="330.923" y="461.353"/>
      <point x="330" y="439" type="curve" name="n26"/>
      <point x="330" y="419.667"/>
      <point x="338" y="413"/>
      <point x="355.333" y="413" type="curve" smooth="yes" name="n29"/>
      <point x="362.333" y="413"/>
      <point x="396" y="422"/>
      <point x="403" y="423.333" type="curve"/>
    </contour>
    <contour>
      <point x="354.333" y="343.667" type="line" name="n33"/>
      <point x="346.333" y="303.333" type="line" name="n34"/>
      <point x="41.6667" y="303.333" type="line"/>
      <point x="50.3333" y="343.667" type="line"/>
    </contour>
    <contour>
      <point x="297.667" y="618.333" type="curve"/>
      <point x="298.667" y="622.333"/>
      <point x="286" y="649.333"/>
      <point x="278.333" y="649.333" type="curve" smooth="yes" name="n40"/>
      <point x="183.667" y="649.333"/>
      <point x="150" y="554.667"/>
      <point x="150" y="487.667" type="curve" smooth="yes" name="n43"/>
      <point x="150" y="454.333"/>
      <point x="155.333" y="417"/>
      <point x="196" y="417" type="curve" smooth="yes" name="n46"/>
      <point x="225.667" y="417"/>
      <point x="254" y="445.333"/>
      <point x="263.667" y="454" type="curve"/>
      <point x="269.749" y="483.009"/>
      <point x="279.083" y="527.676"/>
    </contour>
  </outline>
</glyph>
<glyph name="uni00AD" format="2">
  <advance width="328"/>
  <unicode hex="00AD"/>
  <outline>
    <contour>
      <point x="293" y="281.333" type="line" name="n00"/>
      <point x="277.333" y="200.667" type="line" name="n01"/>
      <point x="30" y="200.667" type="line"/>
      <point x="45.6667" y="281.333" type="line"/>
    </contour>
  </outline>
</glyph>
<glyph name="threesuperior" format="2">
  <advance width="370"/>
  <unicode hex="00B3"/>
  <outline>
    <contour>
      <point x="411" y="706.667" type="curve" smooth="yes" name="n00"/>
      <point x="411" y="664"/>
      <point x="375" y="621"/>
      <point x="303.667" y="598.667" type="curve"/>
      <point x="350.667" y="590.667"/>
      <point x="385.333" y="567.333" name="hr01"/>
      <point x="385.333" y="521" type="curve" smooth="yes" name="n06"/>
      <point x="385.333" y="444"/>
      <point x="300.333" y="375"/>
      <point x="188.333" y="375" type="curve" smooth="yes" name="n09"/>
      <point x="103" y="375"/>
      <point x="66.6667" y="414"/>
      <point x="66.6667" y="443" type="curve" smooth="yes"/>
      <point x="66.6667" y="455"/>
      <point x="77" y="482.333" name="hr02"/>
      <point x="109.667" y="482.333" type="curve" smooth="yes" name="n15"/>
      <point x="125.667" y="482.333"/>
      <point x="137" y="475.667"/>
      <point x="140" y="474.333" type="curve"/>
      <point x="150" y="423.333" type="line"/>
      <point x="155.667" y="420.667"/>
      <point x="175" y="411.333" name="hr03"/>
      <point x="195.333" y="411.333" type="curve" smooth="yes" name="n22"/>
      <point x="254.667" y="411.333"/>
      <point x="306.333" y="455"/>
      <point x="306.333" y="512.667" type="curve" smooth="yes" name="n25"/>
      <point x="306.333" y="565.667"/>
      <point x="259.667" y="573"/>
      <point x="238" y="573" type="curve" smooth="yes" name="n28"/>
      <point x="218.667" y="573"/>
      <point x="201.667" y="570.333"/>
      <point x="189.333" y="568.667" type="curve"/>
      <point x="195.667" y="612.333" type="line" name="n32"/>
      <point x="278" y="607.667"/>
      <point x="330.667" y="645.667" name="hr04"/>
      <point x="330.667" y="698.667" type="curve" smooth="yes" name="n35"/>
      <point x="330.667" y="743.333"/>
      <point x="292.333" y="757.333"/>
      <point x="270" y="757.333" type="curve" smooth="yes" name="n38"/>
      <point x="241.667" y="757.333"/>
      <point x="221.333" y="744.667"/>
      <point x="215.667" y="740.333" type="curve"/>
      <point x="206.333" y="684.333" type="line"/>
      <point x="203.333" y="683"/>
      <point x="182" y="674"/>
      <point x="168.333" y="674" type="curve" smooth="yes"/>
      <point x="154.667" y="674"/>
      <point x="132.333" y="686.333"/>
      <point x="132.333" y="709" type="curve" smooth="yes"/>
      <point x="132.333" y="759"/>
      <point x="213" y="793"/>
      <point x="291.333" y="793" type="curve" smooth="yes" name="n51"/>
      <point x="367" y="793"/>
      <point x="411" y="763"/>
    </contour>
  </outline>
</glyph>
<glyph name="acute" format="2">
  <advance width="301"/>
  <unicode hex="00B4"/>
  <outline>
    <contour>
      <point x="387.667" y="686.333" type="curve" smooth="yes"/>
      <point x="387.667" y="669.333"/>
      <point x="378.092" y="654.193"/>
      <point x="363" y="645" type="curve" smooth="yes"/>
      <point x="209.333" y="551" type="line" name="n04"/>
      <point x="139.333" y="551" type="line"/>
      <point x="275.667" y="705.333" type="line" smooth="yes"/>
      <point x="291.667" y="723.667"/>
      <point x="305.667" y="732.667" name="n08"/>
      <point x="334.667" y="732.667" type="curve" smooth="yes"/>
      <point x="372.333" y="732.667"/>
      <point x="387.667" y="707.667"/>
    </contour>
  </outline>
</glyph>
<glyph name="onequarter" format="2">
  <advance width="888"/>
  <unicode hex="00BC"/>
  <outline>
    <contour>
      <point x="807.333" y="160" type="line" name="n00"/>
      <point x="797.667" y="113" type="line" name="n01"/>
      <point x="725.333" y="113" type="line"/>
      <point x="697.667" y="-20" type="line" name="n03"/>
      <point x="631.333" y="-20" type="line"/>
      <point x="658.333" y="113" type="line" name="hr02"/>
      <point x="454" y="113" type="line"/>
      <point x="463.333" y="159.333" type="line"/>
      <point x="732.333" y="408.667" type="line"/>
      <point x="786.333" y="408.667" type="line"/>
      <point x="735.333" y="160" type="line"/>
    </contour>
    <contour>
      <point x="769.667" y="697" type="line"/>
      <point x="189" y="0" type="line" name="n12"/>
      <point x="117.333" y="0" type="line"/>
      <point x="697.667" y="697" type="line"/>
    </contour>
    <contour>
      <point x="295" y="703.333" type="line" name="n15"/>
      <point x="220.333" y="344.333" type="line" smooth="yes"/>
      <point x="218.499" y="335.699"/>
      <point x="224" y="330.667"/>
      <point x="233.667" y="330.333" type="curve"/>
      <point x="278.667" y="326.333" type="line"/>
      <point x="278.667" y="293.333" type="line"/>
      <point x="71.6667" y="293.333" type="line"/>
      <point x="71.6667" y="327" type="line"/>
      <point x="130.333" y="330.333" type="line"/>
      <point x="141.667" y="330.333"/>
      <point x="147.333" y="336"/>
      <point x="149.667" y="344.667" type="curve"/>
      <point x="210.333" y="642.667" type="line"/>
      <point x="113" y="631" type="line"/>
      <point x="113" y="663.667" type="line"/>
      <point x="266.333" y="703.333" type="line"/>
    </contour>
    <contour>
      <point x="702.333" y="325.667" type="line"/>
      <point x="526" y="160" type="line"/>
      <point x="669" y="160" type="line" name="n34"/>
    </contour>
  </outline>
</glyph>
<glyph name="threequarters" format="2">
  <advance width="888"/>
  <unicode hex="00BE"/>
  <outline>
    <contour>
      <point x="831.667" y="160" type="line" name="n00"/>
      <point x="821.667" y="113" type="line" name="n01"/>
      <point x="749.333" y="113" type="line"/>
      <point x="722.333" y="-20" type="line" name="n03"/>
      <point x="656" y="-20" type="line"/>
      <point x="683" y="113" type="line" name="hr02"/>
      <point x="478.333" y="113" type="line"/>
      <point x="487.667" y="159.333" type="line"/>
      <point x="757" y="408.667" type="line"/>
      <point x="810.333" y="408.667" type="line"/>
      <point x="759" y="160" type="line"/>
    </contour>
    <contour>
      <point x="802.667" y="697" type="line"/>
      <point x="222.333" y="0" type="line" name="n12"/>
      <point x="150.667" y="0" type="line"/>
      <point x="731" y="697" type="line"/>
    </contour>
    <contour>
      <point x="390.667" y="619.333" type="curve" smooth="yes" name="n15"/>
      <point x="390.667" y="567.333"/>
      <point x="342.333" y="525"/>
      <point x="276.667" y="509" type="curve"/>
      <point x="320.333" y="504.333"/>
      <point x="366" y="483" name="hr03"/>
      <point x="366" y="431.333" type="curve" smooth="yes" name="n21"/>
      <point x="366" y="344.333"/>
      <point x="265" y="287"/>
      <point x="167.667" y="287" type="curve" smooth="yes" name="n24"/>
      <point x="99" y="287"/>
      <point x="48.6667" y="316.333"/>
      <point x="48.6667" y="355" type="curve" smooth="yes"/>
      <point x="48.6667" y="373.667"/>
      <point x="61.3333" y="397.333" name="hr04"/>
      <point x="93.3333" y="397.333" type="curve" smooth="yes" name="n30"/>
      <point x="105.667" y="397.333"/>
      <point x="117.333" y="392.667"/>
      <point x="120" y="391.333" type="curve"/>
      <point x="129.333" y="334.667" type="line"/>
      <point x="138" y="331.333"/>
      <point x="156" y="323.333" name="hr05"/>
      <point x="176.667" y="323.333" type="curve" smooth="yes" name="n37"/>
      <point x="238.333" y="323.333"/>
      <point x="287.333" y="368"/>
      <point x="287.333" y="422.333" type="curve" smooth="yes" name="n40"/>
      <point x="287.333" y="488"/>
      <point x="215.667" y="485.667"/>
      <point x="169.333" y="479.667" type="curve"/>
      <point x="177" y="523.333" type="line" name="n44"/>
      <point x="254.333" y="518.667"/>
      <point x="311.333" y="551"/>
      <point x="311.333" y="609.667" type="curve" smooth="yes" name="n47"/>
      <point x="311.333" y="651"/>
      <point x="276" y="667.667"/>
      <point x="244.667" y="667.667" type="curve" smooth="yes" name="n50"/>
      <point x="219.667" y="667.667"/>
      <point x="201.667" y="658.333"/>
      <point x="194.667" y="654.667" type="curve"/>
      <point x="184" y="592" type="line"/>
      <point x="180" y="590"/>
      <point x="161.333" y="583.333"/>
      <point x="148.667" y="583.333" type="curve" smooth="yes"/>
      <point x="133.333" y="583.333"/>
      <point x="112.667" y="592.333"/>
      <point x="112.667" y="616.667" type="curve" smooth="yes"/>
      <point x="112.667" y="674.333"/>
      <point x="205.667" y="705.667"/>
      <point x="271" y="705.667" type="curve" smooth="yes" name="n63"/>
      <point x="334.667" y="705.667"/>
      <point x="390.667" y="680.333"/>
    </contour>
    <contour>
      <point x="727" y="325.667" type="line"/>
      <point x="550.333" y="160" type="line"/>
      <point x="692.667" y="160" type="line" name="n68"/>
    </contour>
  </outline>
</glyph>
<glyph name="questiondown" format="2">
  <advance width="497"/>
  <unicode hex="00BF"/>
  <outline>
    <contour>
      <point x="394.667" y="428.667" type="curve" smooth="yes" name="n00"/>
      <point x="394.667" y="393.333"/>
      <point x="364.667" y="361.667"/>
      <point x="323" y="361.667" type="curve" smooth="yes" name="n03"/>
      <point x="280.667" y="361.667"/>
      <point x="255.333" y="394.667"/>
      <point x="255.333" y="429.333" type="curve" smooth="yes" name="n06"/>
      <point x="255.333" y="464.333"/>
      <point x="281" y="496"/>
      <point x="323.333" y="496" type="curve" smooth="yes" name="n09"/>
      <point x="366.333" y="496"/>
      <point x="394.667" y="464.667"/>
    </contour>
    <contour>
      <point x="385.333" y="-88.6667" type="curve" smooth="yes"/>
      <point x="385.333" y="-147.667"/>
      <point x="312.667" y="-205.667"/>
      <point x="198" y="-205.667" type="curve" smooth="yes" name="n15"/>
      <point x="87.6667" y="-205.667"/>
      <point x="11.6667" y="-154"/>
      <point x="11.6667" y="-59.3333" type="curve" smooth="yes" name="n18"/>
      <point x="11.6667" y="76.3333"/>
      <point x="138.333" y="157"/>
      <point x="251.333" y="195" type="curve"/>
      <point x="272.333" y="302.667" type="line"/>
      <point x="340.333" y="302.667" type="line"/>
      <point x="312.667" y="159" type="line"/>
      <point x="221" y="133.333"/>
      <point x="131" y="57"/>
      <point x="131" y="-51" type="curve" smooth="yes" name="n27"/>
      <point x="131" y="-118.667"/>
      <point x="173.667" y="-152"/>
      <point x="237.333" y="-152" type="curve" name="n30"/>
      <point x="245.815" y="-138.039"/>
      <point x="301" y="-45.3333"/>
      <point x="301" y="-45.3333" type="curve" name="n33"/>
      <point x="330" y="-45.3333" type="line" smooth="yes"/>
      <point x="362" y="-45.3333"/>
      <point x="385.333" y="-61"/>
    </contour>
  </outline>
</glyph>
<glyph name="AE" format="2">
  <advance width="950"/>
  <unicode hex="00C6"/>
  <outline>
    <contour>
      <point x="977" y="671" type="line" name="n00"/>
      <point x="946.667" y="518.333" type="line" name="n01"/>
      <point x="877" y="518.333" type="line"/>
      <point x="877" y="600.667" type="line" smooth="yes"/>
      <point x="877" y="613.333"/>
      <point x="870.333" y="617.667" name="hr01"/>
      <point x="856.667" y="617.667" type="curve" smooth="yes" name="n06"/>
      <point x="678.333" y="617.667" type="line"/>
      <point x="631" y="376.333" type="line" name="n08"/>
      <point x="749" y="376.333" type="line" smooth="yes" name="n09"/>
      <point x="761.667" y="376.333"/>
      <point x="770.667" y="381.333"/>
      <point x="774.333" y="394" type="curve" smooth="yes"/>
      <point x="793.667" y="462" type="line"/>
      <point x="856.333" y="462" type="line"/>
      <point x="810.667" y="231" type="line"/>
      <point x="749" y="231" type="line" name="n16"/>
      <point x="759" y="302.704" type="line"/>
      <point x="759" y="315.417"/>
      <point x="755.015" y="321" name="hr02"/>
      <point x="741.936" y="321" type="curve" smooth="yes"/>
      <point x="620.333" y="321" type="line" name="n21"/>
      <point x="568" y="53.3333" type="line"/>
      <point x="787" y="53.3333" type="line" smooth="yes" name="n23"/>
      <point x="798.667" y="53.3333"/>
      <point x="808.874" y="60.5961"/>
      <point x="812.333" y="71.3333" type="curve" smooth="yes"/>
      <point x="843.667" y="168.667" type="line" name="n27"/>
      <point x="910.333" y="168.667" type="line"/>
      <point x="877.667" y="0" type="line" name="n29"/>
      <point x="375" y="0" type="line"/>
      <point x="375" y="44.6667" type="line"/>
      <point x="433.479" y="49.1235" type="line" smooth="yes"/>
      <point x="446.806" y="50.1262"/>
      <point x="453.349" y="59.5456"/>
      <point x="455" y="67.6667" type="curve" smooth="yes"/>
      <point x="491.667" y="252" type="line" name="n36"/>
      <point x="276.333" y="252" type="line"/>
      <point x="126.23" y="70.6643" type="line" smooth="yes"/>
      <point x="124.183" y="68.1984"/>
      <point x="123.206" y="65.5885"/>
      <point x="123.23" y="63.0678" type="curve" smooth="yes"/>
      <point x="123.272" y="56.6666"/>
      <point x="130.333" y="50.8921"/>
      <point x="141.333" y="49.6667" type="curve" smooth="yes"/>
      <point x="189" y="44.6667" type="line"/>
      <point x="189" y="0" type="line"/>
      <point x="-53" y="0" type="line"/>
      <point x="-53" y="44.6667" type="line"/>
      <point x="-5.33333" y="49.3333" type="line" smooth="yes"/>
      <point x="3.55419" y="50.1758"/>
      <point x="8.09654" y="53.3142" name="hr04"/>
      <point x="20" y="68" type="curve" smooth="yes"/>
      <point x="459.333" y="603" type="line"/>
      <point x="461.335" y="606.093"/>
      <point x="463.3" y="609.696"/>
      <point x="463.285" y="613.09" type="curve" smooth="yes"/>
      <point x="463.264" y="617.636"/>
      <point x="460.63" y="620.489"/>
      <point x="455.617" y="621.378" type="curve"/>
      <point x="400" y="626.333" type="line"/>
      <point x="400" y="671" type="line"/>
    </contour>
    <contour>
      <point x="583.344" y="628.541" type="line"/>
      <point x="321.333" y="307.333" type="line"/>
      <point x="502.333" y="307.333" type="line" name="n64"/>
      <point x="565.755" y="628.27" type="line"/>
    </contour>
  </outline>
</glyph>
<glyph name="Oslash" format="2">
  <advance width="723"/>
  <unicode hex="00D8"/>
  <outline>
    <contour>
      <point x="705" y="417" type="curve" smooth="yes" name="n00"/>
      <point x="705" y="208"/>
      <point x="571" y="-16"/>
      <point x="327" y="-16" type="curve" smooth="yes" name="n03"/>
      <point x="275.333" y="-16"/>
      <point x="228.667" y="-5.33333"/>
      <point x="189.333" y="15" type="curve"/>
      <point x="123.333" y="-85.3333" type="line"/>
      <point x="70.6667" y="-46.6667" type="line"/>
      <point x="134" y="51.3333" type="line"/>
      <point x="79.3333" y="100.667"/>
      <point x="48" y="173.667"/>
      <point x="48" y="262.333" type="curve" smooth="yes" name="n12"/>
      <point x="48" y="475"/>
      <point x="198" y="687"/>
      <point x="427" y="687" type="curve" smooth="yes" name="n15"/>
      <point x="467.333" y="687"/>
      <point x="503.667" y="680"/>
      <point x="535.667" y="668.667" type="curve"/>
      <point x="591.333" y="753.667" type="line"/>
      <point x="652" y="716.333" type="line"/>
      <point x="598.333" y="635.667" type="line"/>
      <point x="667.333" y="586.333"/>
      <point x="705" y="506"/>
    </contour>
    <contour>
      <point x="496.667" y="607.667" type="line"/>
      <point x="473.333" y="624.667"/>
      <point x="446.667" y="633.667"/>
      <point x="418" y="633.667" type="curve" smooth="yes" name="n27"/>
      <point x="281" y="633.667"/>
      <point x="175" y="432.333"/>
      <point x="175" y="254.333" type="curve" smooth="yes" name="n30"/>
      <point x="175" y="212.333"/>
      <point x="182.333" y="175.333"/>
      <point x="195.667" y="144.667" type="curve"/>
    </contour>
    <contour>
      <point x="577" y="417" type="curve" smooth="yes" name="n34"/>
      <point x="577" y="472"/>
      <point x="565.333" y="517.667"/>
      <point x="544.333" y="553" type="curve"/>
      <point x="234.333" y="83" type="line"/>
      <point x="262.333" y="54.3333"/>
      <point x="297.333" y="39.3333"/>
      <point x="334" y="39.3333" type="curve" smooth="yes" name="n41"/>
      <point x="470.667" y="39.3333"/>
      <point x="577" y="245"/>
    </contour>
  </outline>
</glyph>
<glyph name="Thorn" format="2">
  <advance width="579"/>
  <unicode hex="00DE"/>
  <outline>
    <contour>
      <point x="559" y="384.667" type="curve" smooth="yes" name="n00"/>
      <point x="559" y="225.667"/>
      <point x="430.667" y="124.333"/>
      <point x="248" y="124.333" type="curve" smooth="yes"/>
      <point x="231" y="124.333"/>
      <point x="195.667" y="125.333"/>
      <point x="190.667" y="125.333" type="curve"/>
      <point x="180" y="67.3333" type="line" smooth="yes"/>
      <point x="178" y="56.6667"/>
      <point x="183.667" y="50.6667"/>
      <point x="199.667" y="49.6667" type="curve"/>
      <point x="199.667" y="49.6667"/>
      <point x="238.477" y="46.4728"/>
      <point x="257" y="44.6667" type="curve"/>
      <point x="257" y="0" type="line" name="n14"/>
      <point x="-17" y="0" type="line"/>
      <point x="-17" y="44.6667" type="line"/>
      <point x="3.01311" y="46.5011"/>
      <point x="42.3333" y="49.6667"/>
      <point x="42.3333" y="49.6667" type="curve"/>
      <point x="54.6667" y="50.6667"/>
      <point x="62.3333" y="55.6667"/>
      <point x="65" y="67.6667" type="curve" smooth="yes"/>
      <point x="170" y="603" type="line" smooth="yes"/>
      <point x="172" y="614.333"/>
      <point x="167.667" y="620.333"/>
      <point x="150" y="621.333" type="curve"/>
      <point x="150" y="621.333"/>
      <point x="112.019" y="624.528"/>
      <point x="94" y="626.333" type="curve"/>
      <point x="94" y="671" type="line"/>
      <point x="366" y="671" type="line" name="n31"/>
      <point x="366" y="626.333" type="line"/>
      <point x="345.344" y="624.472"/>
      <point x="306.667" y="621.333"/>
      <point x="306.667" y="621.333" type="curve"/>
      <point x="295" y="620.333"/>
      <point x="286" y="615.333"/>
      <point x="284" y="602.667" type="curve"/>
      <point x="273.333" y="545.667" type="line" name="n39"/>
      <point x="325" y="545.667" type="line" smooth="yes"/>
      <point x="496.667" y="545.667"/>
      <point x="559" y="477.333"/>
    </contour>
    <contour>
      <point x="441" y="368.667" type="curve" smooth="yes" name="n43"/>
      <point x="441" y="446.333"/>
      <point x="397" y="496.333"/>
      <point x="298" y="496.333" type="curve" smooth="yes" name="n46"/>
      <point x="288.333" y="496.333"/>
      <point x="270.667" y="495.667"/>
      <point x="263" y="494.667" type="curve"/>
      <point x="201.333" y="180.333" type="line"/>
      <point x="253" y="176.333"/>
      <point x="308.667" y="184.667"/>
      <point x="354.333" y="211.333" type="curve" smooth="yes"/>
      <point x="403" y="241"/>
      <point x="441" y="291.333"/>
    </contour>
  </outline>
</glyph>
<glyph name="ydieresis" format="2">
  <advance width="512"/>
  <unicode hex="00FF"/>
  <outline>
    <contour>
      <point x="540" y="444" type="line"/>
      <point x="489.333" y="412.667" type="line"/>
      <point x="473.333" y="397.667"/>
      <point x="425.333" y="322"/>
      <point x="407.333" y="280.333" type="curve" smooth="yes"/>
      <point x="379" y="216.333"/>
      <point x="329.333" y="92.6667"/>
      <point x="265.667" y="-15.3333" type="curve" smooth="yes"/>
      <point x="202" y="-124.667"/>
      <point x="121" y="-229"/>
      <point x="16.6667" y="-229" type="curve" smooth="yes" name="n10"/>
      <point x="-59" y="-229"/>
      <point x="-80.3333" y="-185.667"/>
      <point x="-80.3333" y="-159.667" type="curve" smooth="yes"/>
      <point x="-80.3333" y="-128.667"/>
      <point x="-54.6667" y="-94.6667"/>
      <point x="-7.33333" y="-92.6667" type="curve" name="n16"/>
      <point x="45.6667" y="-156.667" type="line"/>
      <point x="88.6667" y="-150.667"/>
      <point x="128.667" y="-97"/>
      <point x="192.667" y="19" type="curve"/>
      <point x="189.667" y="35"/>
      <point x="171.667" y="133.667"/>
      <point x="150.667" y="229.333" type="curve" smooth="yes"/>
      <point x="130" y="322.667"/>
      <point x="107.333" y="426"/>
      <point x="98.3333" y="426.667" type="curve" smooth="yes"/>
      <point x="2.33333" y="434" type="line"/>
      <point x="2.33333" y="461" type="line"/>
      <point x="22" y="467.667"/>
      <point x="110.667" y="496" name="n30"/>
      <point x="129.667" y="496" type="curve" smooth="yes"/>
      <point x="173.333" y="496"/>
      <point x="195.667" y="466.667"/>
      <point x="218.333" y="391.333" type="curve" smooth="yes"/>
      <point x="234.333" y="336.667"/>
      <point x="252" y="250"/>
      <point x="270.667" y="152.667" type="curve"/>
      <point x="417.667" y="496" type="line"/>
      <point x="453" y="496" type="line"/>
      <point x="540" y="468" type="line"/>
    </contour>
    <contour>
      <point x="493.333" y="645.333" type="curve" smooth="yes" name="n41"/>
      <point x="493.333" y="612.667"/>
      <point x="466.667" y="585"/>
      <point x="434" y="585" type="curve" smooth="yes" name="n44"/>
      <point x="401.333" y="585"/>
      <point x="375.333" y="612.667"/>
      <point x="375.333" y="645.333" type="curve" smooth="yes" name="n47"/>
      <point x="375.333" y="676.667"/>
      <point x="402.667" y="705"/>
      <point x="434" y="705" type="curve" smooth="yes" name="n50"/>
      <point x="466.667" y="705"/>
      <point x="493.333" y="678"/>
    </contour>
    <contour>
      <point x="284.667" y="645.333" type="curve" smooth="yes" name="n53"/>
      <point x="284.667" y="612.667"/>
      <point x="258" y="585"/>
      <point x="225.333" y="585" type="curve" smooth="yes"/>
      <point x="193.333" y="585"/>
      <point x="167" y="612.667"/>
      <point x="167" y="644.667" type="curve" smooth="yes" name="n59"/>
      <point x="167" y="676.667"/>
      <point x="193.333" y="705"/>
      <point x="225.333" y="705" type="curve" smooth="yes"/>
      <point x="258" y="705"/>
      <point x="284.667" y="678"/>
    </contour>
  </outline>
</glyph>
<glyph name="Dcroat" format="2">
  <advance width="684"/>
  <unicode hex="0110"/>
  <outline>
    <contour>
      <point x="26" y="324.333" type="line" name="n00"/>
      <point x="26" y="380.667" type="line" name="n01"/>
      <point x="361.667" y="380.667" type="line"/>
      <point x="361.667" y="324.333" type="line"/>
    </contour>
    <contour>
      <point x="667" y="414.667" type="curve" smooth="yes" name="n04"/>
      <point x="667" y="171.333"/>
      <point x="491.667" y="0"/>
      <point x="227" y="0" type="curve" smooth="yes" name="n07"/>
      <point x="-15" y="0" type="line"/>
      <point x="-15" y="44.6667" type="line"/>
      <point x="4.68348" y="46.4745"/>
      <point x="46.3333" y="49.3333"/>
      <point x="46.3333" y="49.3333" type="curve"/>
      <point x="60.3333" y="50.3333"/>
      <point x="64" y="55"/>
      <point x="67" y="67.6667" type="curve"/>
      <point x="171" y="603" type="line" smooth="yes"/>
      <point x="173" y="614.333"/>
      <point x="167.667" y="620.333"/>
      <point x="151.667" y="621.333" type="curve"/>
      <point x="151.667" y="621.333"/>
      <point x="113.362" y="624.527"/>
      <point x="95" y="626.333" type="curve"/>
      <point x="95" y="671" type="line"/>
      <point x="341" y="671" type="line" smooth="yes" name="n24"/>
      <point x="531.333" y="671"/>
      <point x="667" y="602.667"/>
    </contour>
    <contour>
      <point x="545" y="423.667" type="curve" smooth="yes" name="n27"/>
      <point x="545" y="590"/>
      <point x="434.333" y="614"/>
      <point x="317.333" y="617.667" type="curve" name="n30"/>
      <point x="288.667" y="617.667" type="line"/>
      <point x="179.333" y="55.3333" type="line"/>
      <point x="245" y="55.3333" type="line" name="n33"/>
      <point x="438.333" y="57.3333"/>
      <point x="545" y="233.333"/>
    </contour>
  </outline>
</glyph>
<glyph name="gcedilla" format="2">
  <advance width="454"/>
  <unicode hex="0123"/>
  <outline>
    <contour>
      <point x="501" y="419.667" type="line" name="n00"/>
      <point x="409" y="419.667" type="line"/>
      <point x="415" y="404.667"/>
      <point x="421.333" y="380.333"/>
      <point x="421.333" y="354.333" type="curve" smooth="yes" name="n04"/>
      <point x="421.333" y="236.667"/>
      <point x="328.333" y="162"/>
      <point x="202.667" y="161.667" type="curve" name="n07"/>
      <point x="194.333" y="142"/>
      <point x="189.667" y="115.667"/>
      <point x="192.333" y="104.667" type="curve"/>
      <point x="326" y="44" type="line" smooth="yes"/>
      <point x="388" y="16"/>
      <point x="429.333" y="-8.33333" name="hr01"/>
      <point x="429.333" y="-66.3333" type="curve" smooth="yes" name="n14"/>
      <point x="429.333" y="-151.667"/>
      <point x="303.667" y="-229"/>
      <point x="168.667" y="-229" type="curve" smooth="yes" name="n17"/>
      <point x="28.6667" y="-229"/>
      <point x="-31" y="-156.333"/>
      <point x="-31" y="-81.6667" type="curve" smooth="yes" name="n20"/>
      <point x="-31" y="-13.6667"/>
      <point x="28.6667" y="32.3333"/>
      <point x="102.333" y="57" type="curve"/>
      <point x="96.6667" y="88"/>
      <point x="114.333" y="145"/>
      <point x="141" y="172" type="curve"/>
      <point x="88" y="195.667"/>
      <point x="48.3333" y="232.667" name="hr02"/>
      <point x="48.3333" y="296.333" type="curve" smooth="yes" name="n29"/>
      <point x="48.3333" y="392"/>
      <point x="121.667" y="496"/>
      <point x="258" y="496" type="curve" smooth="yes" name="n32"/>
      <point x="306.667" y="496"/>
      <point x="347.333" y="477.667"/>
      <point x="361.667" y="470.333" type="curve" name="hr03"/>
      <point x="501" y="470.333" type="line" name="n36"/>
    </contour>
    <contour>
      <point x="311.333" y="359.333" type="curve" smooth="yes" name="n37"/>
      <point x="311.333" y="407.667"/>
      <point x="299.333" y="450.667" name="hr04"/>
      <point x="260" y="450.667" type="curve" smooth="yes" name="n40"/>
      <point x="220.667" y="450.667"/>
      <point x="158.333" y="379"/>
      <point x="158.333" y="283.667" type="curve" smooth="yes" name="n43"/>
      <point x="158.333" y="236.333"/>
      <point x="174.333" y="202"/>
      <point x="208.667" y="202" type="curve" smooth="yes" name="n46"/>
      <point x="275.333" y="202"/>
      <point x="311.333" y="297"/>
    </contour>
    <contour>
      <point x="322.333" y="-86.3333" type="curve" smooth="yes" name="n49"/>
      <point x="322.333" y="-62.6667" name="hr05"/>
      <point x="310.333" y="-42.6667"/>
      <point x="272" y="-25" type="curve" smooth="yes"/>
      <point x="151.333" y="29.3333" type="line"/>
      <point x="94" y="13"/>
      <point x="77" y="-25.6667"/>
      <point x="77" y="-64.6667" type="curve" smooth="yes" name="n56"/>
      <point x="77" y="-109.667"/>
      <point x="110.667" y="-179.667"/>
      <point x="194.667" y="-179.667" type="curve" smooth="yes" name="n59"/>
      <point x="289" y="-179.667"/>
      <point x="322.333" y="-118.667"/>
    </contour>
    <contour>
      <point x="236.667" y="613" type="curve" smooth="yes" name="n62"/>
      <point x="236.667" y="697"/>
      <point x="317" y="746" name="hr06"/>
      <point x="390.667" y="759.667" type="curve"/>
      <point x="384" y="724.333" type="line"/>
      <point x="337" y="710"/>
      <point x="308.667" y="691"/>
      <point x="298.667" y="640.667" type="curve" name="n69"/>
      <point x="355" y="640.667" type="line"/>
      <point x="362" y="633"/>
      <point x="364.667" y="621"/>
      <point x="364.667" y="611" type="curve" smooth="yes" name="n73"/>
      <point x="364.667" y="574.333"/>
      <point x="331.667" y="550.667"/>
      <point x="297.333" y="550.667" type="curve" smooth="yes" name="n76"/>
      <point x="259" y="550.667"/>
      <point x="236.667" y="575"/>
    </contour>
  </outline>
</glyph>
<glyph name="jcircumflex" format="2">
  <advance width="287"/>
  <unicode hex="0135"/>
  <outline>
    <contour>
      <point x="245.667" y="496" type="line" name="n00"/>
      <point x="174.667" y="81.3333" type="line" smooth="yes"/>
      <point x="157.236" y="-18.9834"/>
      <point x="80" y="-229" name="n03"/>
      <point x="-55.3333" y="-229" type="curve" smooth="yes"/>
      <point x="-99" y="-229"/>
      <point x="-129" y="-205.333"/>
      <point x="-129" y="-174.333" type="curve" smooth="yes"/>
      <point x="-129" y="-149.333"/>
      <point x="-111" y="-135.333"/>
      <point x="-96.6667" y="-126.333" type="curve"/>
      <point x="1.66667" y="-152.667" type="line"/>
      <point x="20.3333" y="-129.333"/>
      <point x="43.3333" y="-63"/>
      <point x="53" y="-10" type="curve" smooth="yes"/>
      <point x="127.667" y="424" type="line"/>
      <point x="43" y="433" type="line"/>
      <point x="43" y="464.333" type="line"/>
      <point x="199" y="496" type="line"/>
    </contour>
    <contour>
      <point x="387.667" y="551" type="line"/>
      <point x="313" y="551" type="line"/>
      <point x="236" y="644" type="line"/>
      <point x="120.667" y="551" type="line"/>
      <point x="46.3333" y="551" type="line"/>
      <point x="204.667" y="720.667" type="line" name="n24"/>
      <point x="296.667" y="720.667" type="line"/>
    </contour>
  </outline>
</glyph>
<glyph name="lcaron" format="2">
  <advance width="431"/>
  <unicode hex="013E"/>
  <outline>
    <contour>
      <point x="276.667" y="27" type="line"/>
      <point x="250" y="14.6667"/>
      <point x="179.333" y="-12"/>
      <point x="130.667" y="-12" type="curve" smooth="yes" name="n03"/>
      <point x="68" y="-12"/>
      <point x="39" y="18"/>
      <point x="39" y="62" type="curve" smooth="yes"/>
      <point x="39" y="72.3333"/>
      <point x="40" y="84.3333"/>
      <point x="42.3333" y="97.3333" type="curve" smooth="yes"/>
      <point x="152" y="665.667" type="line"/>
      <point x="63.3333" y="674.333" type="line"/>
      <point x="63.3333" y="706.333" type="line"/>
      <point x="223.667" y="737" type="line"/>
      <point x="271.667" y="737" type="line"/>
      <point x="149.333" y="100" type="line" smooth="yes"/>
      <point x="144.667" y="74.3333"/>
      <point x="161.667" y="47"/>
      <point x="188.667" y="47" type="curve" smooth="yes" name="n18"/>
      <point x="206.667" y="47"/>
      <point x="253.667" y="61.3333"/>
      <point x="276.667" y="70.3333" type="curve"/>
    </contour>
    <contour>
      <point x="449.667" y="697.333" type="curve" smooth="yes" name="n22"/>
      <point x="449.667" y="613.333"/>
      <point x="369.333" y="564.667"/>
      <point x="295.667" y="551" type="curve"/>
      <point x="302.333" y="586.333" type="line"/>
      <point x="349.333" y="600.667"/>
      <point x="377.667" y="619.333"/>
      <point x="387.667" y="669.667" type="curve" name="n29"/>
      <point x="331.333" y="669.667" type="line"/>
      <point x="324.333" y="677.333"/>
      <point x="321.667" y="688.667"/>
      <point x="321.667" y="698.667" type="curve" smooth="yes" name="n33"/>
      <point x="321.667" y="735.333"/>
      <point x="354.667" y="759.667"/>
      <point x="389" y="759.667" type="curve" smooth="yes" name="n36"/>
      <point x="427.333" y="759.667"/>
      <point x="449.667" y="735.333"/>
    </contour>
  </outline>
</glyph>
<glyph name="OE" format="2">
  <advance width="1018"/>
  <unicode hex="0152"/>
  <outline>
    <contour>
      <point x="1044.67" y="671" type="line" name="n00"/>
      <point x="1014.67" y="518.333" type="line" name="n01"/>
      <point x="945.333" y="518.333" type="line"/>
      <point x="945.333" y="600.667" type="line" smooth="yes"/>
      <point x="945.333" y="613.333"/>
      <point x="938" y="618" name="hr01"/>
      <point x="924.333" y="618" type="curve" smooth="yes"/>
      <point x="737.667" y="618" type="line" name="n07"/>
      <point x="690.333" y="376.333" type="line" name="n08"/>
      <point x="818" y="376.333" type="line" smooth="yes" name="n09"/>
      <point x="830.667" y="376.333"/>
      <point x="839.667" y="381.333"/>
      <point x="843" y="394" type="curve" smooth="yes"/>
      <point x="862.667" y="462" type="line"/>
      <point x="925.333" y="462" type="line"/>
      <point x="879.667" y="231" type="line"/>
      <point x="817.667" y="231" type="line" name="n16"/>
      <point x="827.333" y="303.333" type="line" smooth="yes"/>
      <point x="829" y="314.667"/>
      <point x="819.667" y="321.333" name="hr02"/>
      <point x="807" y="321.333" type="curve" smooth="yes"/>
      <point x="680.667" y="321.333" type="line" name="n21"/>
      <point x="627.333" y="53.3333" type="line"/>
      <point x="856" y="53.3333" type="line" smooth="yes" name="n23"/>
      <point x="867.667" y="53.3333"/>
      <point x="877.742" y="60.6419"/>
      <point x="881" y="71.3333" type="curve" smooth="yes"/>
      <point x="912.667" y="168.667" type="line" name="n27"/>
      <point x="979.333" y="168.667" type="line"/>
      <point x="946.667" y="0" type="line" name="n29"/>
      <point x="503.667" y="0" type="line"/>
      <point x="517" y="61.6667" type="line"/>
      <point x="458.667" y="10.3333"/>
      <point x="397.333" y="-16" name="hr04"/>
      <point x="327" y="-16" type="curve" smooth="yes" name="n34"/>
      <point x="167.333" y="-16"/>
      <point x="48" y="89.3333"/>
      <point x="48" y="263.333" type="curve" smooth="yes" name="n37"/>
      <point x="48" y="467"/>
      <point x="195" y="687"/>
      <point x="426" y="687" type="curve" smooth="yes" name="n40"/>
      <point x="524.333" y="687"/>
      <point x="582.333" y="647.667"/>
      <point x="619" y="592.333" type="curve"/>
      <point x="633.333" y="671" type="line" name="n44"/>
    </contour>
    <contour>
      <point x="577" y="417" type="curve" smooth="yes"/>
      <point x="577" y="573"/>
      <point x="491" y="633.667" name="hr06"/>
      <point x="417" y="633.667" type="curve" smooth="yes" name="n48"/>
      <point x="285" y="633.667"/>
      <point x="175" y="434"/>
      <point x="175" y="252.667" type="curve" smooth="yes" name="n51"/>
      <point x="175" y="108"/>
      <point x="255.667" y="39.3333"/>
      <point x="334" y="39.3333" type="curve" smooth="yes" name="n54"/>
      <point x="469" y="39.3333"/>
      <point x="577" y="239"/>
    </contour>
  </outline>
</glyph>
<glyph name="oe" format="2">
  <advance width="761"/>
  <unicode hex="0153"/>
  <outline>
    <contour>
      <point x="743" y="383.667" type="curve" smooth="yes" name="n00"/>
      <point x="743" y="256.667"/>
      <point x="545.667" y="225.667"/>
      <point x="467" y="219.667" type="curve" name="n03"/>
      <point x="465.333" y="206.667"/>
      <point x="464.333" y="186.667"/>
      <point x="464.333" y="176.333" type="curve" smooth="yes" name="n06"/>
      <point x="464.333" y="99.3333"/>
      <point x="501.667" y="51.3333"/>
      <point x="557" y="51.3333" type="curve" smooth="yes" name="n09"/>
      <point x="607.667" y="51.3333"/>
      <point x="662.333" y="96"/>
      <point x="730.667" y="159" type="curve"/>
      <point x="730.667" y="83" type="line"/>
      <point x="675.333" y="32.3333"/>
      <point x="611.333" y="-12"/>
      <point x="523" y="-12" type="curve" smooth="yes" name="n16"/>
      <point x="463" y="-12"/>
      <point x="417.667" y="16.6667"/>
      <point x="388" y="76.6667" type="curve"/>
      <point x="344.333" y="12"/>
      <point x="287.667" y="-12"/>
      <point x="217" y="-12" type="curve" smooth="yes" name="n22"/>
      <point x="102.333" y="-12"/>
      <point x="32" y="62.6667"/>
      <point x="32" y="179" type="curve" smooth="yes" name="n25"/>
      <point x="32" y="326.333"/>
      <point x="127" y="496"/>
      <point x="303" y="496" type="curve" smooth="yes" name="n28"/>
      <point x="372" y="496"/>
      <point x="424.333" y="451.667"/>
      <point x="448.667" y="395.667" type="curve"/>
      <point x="480.667" y="456.667"/>
      <point x="562.667" y="496"/>
      <point x="630.333" y="496" type="curve" smooth="yes" name="n34"/>
      <point x="716" y="496"/>
      <point x="743" y="426"/>
    </contour>
    <contour>
      <point x="644.333" y="383.667" type="curve" smooth="yes" name="n37"/>
      <point x="644.333" y="400"/>
      <point x="642.667" y="445.667"/>
      <point x="605" y="445.667" type="curve" smooth="yes" name="n40"/>
      <point x="540.333" y="445.667"/>
      <point x="495" y="347.667"/>
      <point x="473.333" y="262" type="curve" name="n43"/>
      <point x="539" y="269"/>
      <point x="644.333" y="306"/>
    </contour>
    <contour>
      <point x="368" y="294" type="curve" smooth="yes" name="n46"/>
      <point x="368" y="370.667"/>
      <point x="345.333" y="449.333"/>
      <point x="288.667" y="449.333" type="curve" smooth="yes" name="n49"/>
      <point x="210.667" y="449.333" name="hr01"/>
      <point x="147" y="311.333"/>
      <point x="147" y="183" type="curve" smooth="yes" name="n52"/>
      <point x="147" y="98.3333"/>
      <point x="173.667" y="36.3333"/>
      <point x="226.667" y="36.3333" type="curve" smooth="yes" name="n55"/>
      <point x="314" y="36.3333"/>
      <point x="368" y="178.333"/>
    </contour>
  </outline>
</glyph>
<glyph name="uni0162" format="2">
  <advance width="599"/>
  <unicode hex="0162"/>
  <outline>
    <contour>
      <point x="663.333" y="671" type="line"/>
      <point x="630.667" y="510.667" type="line"/>
      <point x="562.667" y="510.667" type="line"/>
      <point x="567" y="605" type="line"/>
      <point x="568" y="617.333"/>
      <point x="559.667" y="622.667" name="hr01"/>
      <point x="547" y="622.667" type="curve" smooth="yes"/>
      <point x="424.667" y="622.667" type="line"/>
      <point x="321" y="67.3333" type="line" smooth="yes"/>
      <point x="319" y="56.6667"/>
      <point x="324.667" y="50.6667"/>
      <point x="340.667" y="49.6667" type="curve"/>
      <point x="340.667" y="49.6667"/>
      <point x="380.135" y="46.4443"/>
      <point x="398" y="44.6667" type="curve"/>
      <point x="398" y="0" type="line" name="n15"/>
      <point x="124" y="0" type="line"/>
      <point x="124" y="44.6667" type="line"/>
      <point x="141.809" y="46.1215"/>
      <point x="181" y="49.3333"/>
      <point x="181" y="49.3333" type="curve"/>
      <point x="193.667" y="50.3333"/>
      <point x="204" y="55.3333"/>
      <point x="206" y="67.6667" type="curve" smooth="yes"/>
      <point x="309.667" y="622.667" type="line"/>
      <point x="192" y="622.667" type="line" smooth="yes" name="n25"/>
      <point x="181" y="622.667"/>
      <point x="169.667" y="616.333"/>
      <point x="166" y="604.667" type="curve"/>
      <point x="132.667" y="510.667" type="line" name="hr02"/>
      <point x="64.6667" y="510.667" type="line" name="n30"/>
      <point x="95.3333" y="671" type="line" name="n31"/>
    </contour>
    <contour>
      <point x="350.333" y="-112.333" type="curve" smooth="yes" name="n32"/>
      <point x="350.333" y="-184.333"/>
      <point x="282" y="-225.667"/>
      <point x="208" y="-225.667" type="curve" smooth="yes" name="n35"/>
      <point x="174.333" y="-225.667"/>
      <point x="137.667" y="-216.667"/>
      <point x="128.333" y="-214" type="curve"/>
      <point x="137.667" y="-170.667" type="line"/>
      <point x="147.667" y="-173.333"/>
      <point x="178.667" y="-180.667"/>
      <point x="201.667" y="-180.667" type="curve" smooth="yes" name="n42"/>
      <point x="222.333" y="-180.667"/>
      <point x="267.333" y="-173"/>
      <point x="267.333" y="-135.667" type="curve" smooth="yes" name="n45"/>
      <point x="267.333" y="-116"/>
      <point x="249.667" y="-108.667"/>
      <point x="233" y="-108.667" type="curve" smooth="yes"/>
      <point x="226.667" y="-108.667"/>
      <point x="218" y="-111.333"/>
      <point x="204" y="-118" type="curve"/>
      <point x="231.667" y="24" type="line"/>
      <point x="282.667" y="24" type="line"/>
      <point x="267.333" y="-58.6667" type="line"/>
      <point x="270.667" y="-58"/>
      <point x="275.333" y="-57.6667"/>
      <point x="282" y="-57.6667" type="curve" smooth="yes"/>
      <point x="324.667" y="-57.6667"/>
      <point x="350.333" y="-75"/>
    </contour>
  </outline>
</glyph>
<glyph name="uni0163" format="2">
  <advance width="314"/>
  <unicode hex="0163"/>
  <outline>
    <contour>
      <point x="363.667" y="418.667" type="line" name="n00"/>
      <point x="216" y="418.667" type="line" name="n01"/>
      <point x="153" y="106.333" type="line" smooth="yes"/>
      <point x="145.986" y="72.6695"/>
      <point x="171.667" y="51.6667"/>
      <point x="204.667" y="51.6667" type="curve" smooth="yes"/>
      <point x="240.333" y="51.6667"/>
      <point x="291" y="71"/>
      <point x="315.667" y="79.3333" type="curve"/>
      <point x="315.667" y="34.3333" type="line"/>
      <point x="297" y="26.3333"/>
      <point x="205" y="-12"/>
      <point x="145.333" y="-12" type="curve" smooth="yes"/>
      <point x="71.6667" y="-12"/>
      <point x="44.6667" y="25.3333"/>
      <point x="44.6667" y="75.3333" type="curve" smooth="yes"/>
      <point x="44.6667" y="88.3333"/>
      <point x="45.6667" y="102"/>
      <point x="48.6667" y="116" type="curve" smooth="yes"/>
      <point x="109.667" y="418" type="line"/>
      <point x="43.6667" y="411.333" type="line"/>
      <point x="43.6667" y="447" type="line"/>
      <point x="122" y="480.333" type="line"/>
      <point x="171.667" y="581.333" type="line"/>
      <point x="245.667" y="581.333" type="line" name="n24"/>
      <point x="225.333" y="467.667" type="line" name="hr01"/>
      <point x="363.667" y="467.667" type="line" name="n26"/>
    </contour>
    <contour>
      <point x="230" y="-112.333" type="curve" smooth="yes"/>
      <point x="230" y="-184.333"/>
      <point x="161.667" y="-225.667"/>
      <point x="87.6667" y="-225.667" type="curve" smooth="yes" name="n30"/>
      <point x="54" y="-225.667"/>
      <point x="16.6667" y="-216.667"/>
      <point x="7.33333" y="-214" type="curve"/>
      <point x="17.3333" y="-170.667" type="line"/>
      <point x="27.3333" y="-173.333"/>
      <point x="58.3333" y="-180.667"/>
      <point x="81.3333" y="-180.667" type="curve" smooth="yes" name="n37"/>
      <point x="102" y="-180.667"/>
      <point x="147" y="-173"/>
      <point x="147" y="-135.667" type="curve" smooth="yes"/>
      <point x="147" y="-116"/>
      <point x="128.667" y="-108.667"/>
      <point x="112" y="-108.667" type="curve" smooth="yes"/>
      <point x="105.667" y="-108.667"/>
      <point x="97.6667" y="-111.333"/>
      <point x="83.6667" y="-118" type="curve"/>
      <point x="110.667" y="24" type="line"/>
      <point x="162.333" y="24" type="line"/>
      <point x="147" y="-58.6667" type="line"/>
      <point x="150.333" y="-58"/>
      <point x="155" y="-57.6667"/>
      <point x="161.667" y="-57.6667" type="curve" smooth="yes"/>
      <point x="204.333" y="-57.6667"/>
      <point x="230" y="-75"/>
    </contour>
  </outline>
</glyph>
<glyph name="Tbar" format="2">
  <advance width="599"/>
  <unicode hex="0166"/>
  <outline>
    <contour>
      <point x="663.333" y="671" type="line"/>
      <point x="630.667" y="510.667" type="line"/>
      <point x="562.667" y="510.667" type="line"/>
      <point x="567" y="605" type="line"/>
      <point x="568" y="617.333"/>
      <point x="559.667" y="622.667" name="hr01"/>
      <point x="547" y="622.667" type="curve" smooth="yes"/>
      <point x="424.667" y="622.667" type="line"/>
      <point x="379.333" y="377.333" type="line"/>
      <point x="513" y="377.333" type="line" name="n09"/>
      <point x="513" y="323.333" type="line" name="n10"/>
      <point x="368.667" y="323.333" type="line"/>
      <point x="321" y="67.3333" type="line" smooth="yes"/>
      <point x="319" y="56.6667"/>
      <point x="324.667" y="50.6667"/>
      <point x="340.667" y="49.6667" type="curve" smooth="yes"/>
      <point x="398" y="44.6667" type="line"/>
      <point x="398" y="0" type="line" name="n17"/>
      <point x="124" y="0" type="line"/>
      <point x="124" y="44.6667" type="line"/>
      <point x="141.809" y="46.1215"/>
      <point x="181" y="49.3333"/>
      <point x="181" y="49.3333" type="curve"/>
      <point x="193.667" y="50.3333"/>
      <point x="204" y="55.3333"/>
      <point x="206" y="67.6667" type="curve" smooth="yes"/>
      <point x="253.667" y="323.333" type="line"/>
      <point x="120" y="323.333" type="line"/>
      <point x="120" y="377.333" type="line"/>
      <point x="264.333" y="377.333" type="line"/>
      <point x="309.667" y="622.667" type="line"/>
      <point x="192" y="622.667" type="line" smooth="yes" name="n31"/>
      <point x="181" y="622.667"/>
      <point x="169.667" y="616.333"/>
      <point x="166" y="604.667" type="curve"/>
      <point x="132.667" y="510.667" type="line" name="hr02"/>
      <point x="64.6667" y="510.667" type="line" name="n36"/>
      <point x="95.3333" y="671" type="line" name="n37"/>
    </contour>
  </outline>
</glyph>
<glyph name="longs" format="2">
  <advance width="334"/>
  <unicode hex="017F"/>
  <outline>
    <contour>
      <point x="454.667" y="673.333" type="curve" smooth="yes"/>
      <point x="454.667" y="642"/>
      <point x="432.333" y="620.667"/>
      <point x="384" y="614" type="curve"/>
      <point x="311.333" y="675.667" type="line"/>
      <point x="265" y="636.333"/>
      <point x="243" y="507.667"/>
      <point x="227.333" y="404.667" type="curve" smooth="yes"/>
      <point x="220.333" y="356"/>
      <point x="185.333" y="95.6667"/>
      <point x="167.667" y="22.6667" type="curve" smooth="yes"/>
      <point x="141" y="-87.3333"/>
      <point x="47.3333" y="-229" name="n12"/>
      <point x="-60.3333" y="-229" type="curve" smooth="yes"/>
      <point x="-113.333" y="-229"/>
      <point x="-130" y="-187"/>
      <point x="-130" y="-172.333" type="curve" smooth="yes"/>
      <point x="-130" y="-147"/>
      <point x="-116.333" y="-129.333"/>
      <point x="-97.3333" y="-115.667" type="curve"/>
      <point x="0.666667" y="-152" type="line"/>
      <point x="34.3333" y="-108.667"/>
      <point x="56.3333" y="-27.6667"/>
      <point x="72.3333" y="62.6667" type="curve" smooth="yes"/>
      <point x="89.3333" y="156"/>
      <point x="98.3333" y="274.333"/>
      <point x="132" y="466" type="curve" smooth="yes"/>
      <point x="150.667" y="570"/>
      <point x="210.667" y="737" name="n28"/>
      <point x="356" y="737" type="curve" smooth="yes"/>
      <point x="426" y="737"/>
      <point x="454.667" y="697.333"/>
    </contour>
  </outline>
</glyph>
<glyph name="uni0183" format="2">
  <advance width="535"/>
  <unicode hex="0183"/>
  <outline>
    <contour>
      <point x="189.333" y="713" type="curve"/>
      <point x="403.333" y="647.333" type="line" name="n01"/>
      <point x="411.727" y="635.52"/>
      <point x="411.101" y="569.603"/>
      <point x="419.667" y="554" type="curve" name="n04"/>
      <point x="448.252" y="554"/>
      <point x="441.225" y="519"/>
      <point x="435.667" y="491" type="curve"/>
      <point x="435.982" y="458.425"/>
      <point x="413.393" y="429.687"/>
      <point x="337.667" y="443.333" type="curve"/>
      <point x="314.333" y="449.333"/>
      <point x="291.333" y="462.333"/>
      <point x="268.667" y="472.667" type="curve" name="n13"/>
      <point x="219" y="705.667" type="line"/>
      <point x="235.077" y="705.667"/>
      <point x="317.033" y="697"/>
      <point x="330.667" y="691.667" type="curve"/>
      <point x="290.333" y="480.333" type="line"/>
      <point x="310.555" y="502.333"/>
      <point x="329.714" y="520.333" name="hr02"/>
      <point x="358" y="520.333" type="curve" name="n21"/>
      <point x="426.798" y="525.914"/>
      <point x="450.561" y="476.836"/>
      <point x="450.667" y="426" type="curve" smooth="yes" name="n24"/>
      <point x="451" y="348.667"/>
      <point x="397" y="218.667"/>
      <point x="257" y="218.667" type="curve" smooth="yes" name="n27"/>
      <point x="212.641" y="218.667"/>
      <point x="146.328" y="229.333"/>
      <point x="108" y="249.333" type="curve"/>
      <point x="121.819" y="341.382"/>
      <point x="179.233" y="659.009"/>
    </contour>
    <contour>
      <point x="361.333" y="306.333" type="curve" smooth="yes" name="n33"/>
      <point x="361.333" y="394.333"/>
      <point x="319.667" y="426.667"/>
      <point x="296" y="426.667" type="curve" smooth="yes" name="n36"/>
      <point x="265.333" y="426.667"/>
      <point x="220.333" y="405.333"/>
      <point x="187.667" y="377.333" type="curve"/>
      <point x="131.667" y="75.6667" type="line"/>
      <point x="144" y="57.3333"/>
      <point x="172.333" y="38"/>
      <point x="206.667" y="38" type="curve" smooth="yes" name="n43"/>
      <point x="290" y="38"/>
      <point x="361.333" y="185"/>
    </contour>
  </outline>
</glyph>
<glyph name="uni0186" format="2">
  <advance width="643"/>
  <unicode hex="0186"/>
  <outline>
    <contour>
      <point x="624" y="403.667" type="curve" smooth="yes" name="n00"/>
      <point x="624" y="193"/>
      <point x="462" y="-16"/>
      <point x="215" y="-16" type="curve" smooth="yes" name="n03"/>
      <point x="146" y="-16"/>
      <point x="91" y="-0.333333"/>
      <point x="14" y="24" type="curve"/>
      <point x="42" y="187.333" type="line"/>
      <point x="106" y="187.333" type="line"/>
      <point x="105.667" y="88" type="line"/>
      <point x="105.667" y="77.6667"/>
      <point x="113.333" y="65.3333"/>
      <point x="122.667" y="62.3333" type="curve"/>
      <point x="129.667" y="58.3333"/>
      <point x="168" y="38.3333"/>
      <point x="210.333" y="38.3333" type="curve" smooth="yes" name="n15"/>
      <point x="354.333" y="38.3333"/>
      <point x="503.333" y="183.333"/>
      <point x="503.333" y="414.667" type="curve" smooth="yes" name="n18"/>
      <point x="503.333" y="565.333"/>
      <point x="409.333" y="632.667"/>
      <point x="306" y="632.667" type="curve" smooth="yes" name="n21"/>
      <point x="268" y="632.667"/>
      <point x="236" y="619.333"/>
      <point x="228.333" y="616.333" type="curve"/>
      <point x="219.667" y="615.333"/>
      <point x="210.667" y="606"/>
      <point x="207" y="597.667" type="curve"/>
      <point x="161.667" y="477.667" type="line"/>
      <point x="98.3333" y="477.667" type="line"/>
      <point x="126.333" y="646" type="line"/>
      <point x="152.667" y="655"/>
      <point x="243" y="687"/>
      <point x="339" y="687" type="curve" smooth="yes" name="n33"/>
      <point x="546.333" y="687"/>
      <point x="624" y="543.333"/>
    </contour>
  </outline>
</glyph>
<glyph name="uni0187" format="2">
  <advance width="643"/>
  <unicode hex="0187"/>
  <outline>
    <contour>
      <point x="866.667" y="784.667" type="curve" smooth="yes"/>
      <point x="866.667" y="752.333"/>
      <point x="837" y="723"/>
      <point x="808.667" y="715" type="curve"/>
      <point x="728.667" y="792.667" type="line"/>
      <point x="685" y="781.333"/>
      <point x="674.333" y="738.333"/>
      <point x="658.333" y="646.333" type="curve" smooth="yes"/>
      <point x="630" y="483.667" type="line"/>
      <point x="566" y="483.667" type="line"/>
      <point x="566.333" y="583" type="line"/>
      <point x="566.667" y="592.333"/>
      <point x="558.667" y="605.667"/>
      <point x="549.333" y="608.667" type="curve"/>
      <point x="542.333" y="612.667"/>
      <point x="504" y="632.667"/>
      <point x="462" y="632.667" type="curve" smooth="yes"/>
      <point x="317.667" y="632.667"/>
      <point x="168" y="487.667"/>
      <point x="168" y="256.333" type="curve" smooth="yes" name="n19"/>
      <point x="168" y="105"/>
      <point x="262.667" y="38.3333"/>
      <point x="366" y="38.3333" type="curve" smooth="yes" name="n22"/>
      <point x="404" y="38.3333"/>
      <point x="436.333" y="51.3333"/>
      <point x="443.667" y="54.6667" type="curve"/>
      <point x="452.333" y="55.6667"/>
      <point x="461.333" y="65"/>
      <point x="465" y="73.3333" type="curve"/>
      <point x="509.667" y="193.333" type="line"/>
      <point x="574" y="193.333" type="line"/>
      <point x="545.667" y="25" type="line"/>
      <point x="518.667" y="15.6667"/>
      <point x="429" y="-16"/>
      <point x="333" y="-16" type="curve" smooth="yes" name="n34"/>
      <point x="125.333" y="-16"/>
      <point x="48" y="127.333"/>
      <point x="48" y="267.333" type="curve" smooth="yes" name="n37"/>
      <point x="48" y="478"/>
      <point x="210" y="687" name="n39"/>
      <point x="457" y="687" type="curve" smooth="yes"/>
      <point x="497.333" y="687"/>
      <point x="525.667" y="683"/>
      <point x="576" y="671" type="curve"/>
      <point x="600.667" y="780.667"/>
      <point x="675" y="846.333" name="n45"/>
      <point x="783" y="846.333" type="curve" smooth="yes"/>
      <point x="833.333" y="846.333"/>
      <point x="866.667" y="816"/>
    </contour>
  </outline>
</glyph>
<glyph name="uni0188" format="2">
  <advance width="449"/>
  <unicode hex="0188"/>
  <outline>
    <contour>
      <point x="538.667" y="552.667" type="curve" smooth="yes"/>
      <point x="538.667" y="517"/>
      <point x="500.333" y="506.333"/>
      <point x="490.667" y="504.333" type="curve"/>
      <point x="441" y="560.333" type="line"/>
      <point x="418" y="555"/>
      <point x="405.333" y="528.667"/>
      <point x="393.333" y="468.333" type="curve"/>
      <point x="410.667" y="457.333"/>
      <point x="416.667" y="438"/>
      <point x="416.667" y="425" type="curve" smooth="yes"/>
      <point x="416.667" y="399.333"/>
      <point x="407" y="362.667"/>
      <point x="332.333" y="357.333" type="curve"/>
      <point x="277.667" y="433.333" type="line"/>
      <point x="247" y="432.667"/>
      <point x="212.667" y="408.333"/>
      <point x="188" y="371.667" type="curve" smooth="yes"/>
      <point x="157.333" y="324.667"/>
      <point x="140.667" y="254.667"/>
      <point x="140.667" y="187.333" type="curve" smooth="yes" name="n20"/>
      <point x="140.667" y="123.333"/>
      <point x="158" y="56.3333"/>
      <point x="222.667" y="56.3333" type="curve" smooth="yes" name="n23"/>
      <point x="274.667" y="56.3333"/>
      <point x="327.667" y="90.6667"/>
      <point x="395.333" y="164.333" type="curve"/>
      <point x="395.667" y="92.3333" type="line"/>
      <point x="347.333" y="39"/>
      <point x="283.333" y="-12"/>
      <point x="192.667" y="-12" type="curve" smooth="yes" name="n30"/>
      <point x="89.3333" y="-12"/>
      <point x="32" y="58"/>
      <point x="32" y="175.667" type="curve" smooth="yes" name="n33"/>
      <point x="32" y="353"/>
      <point x="167.667" y="497.667" name="n35"/>
      <point x="303" y="496" type="curve"/>
      <point x="310.667" y="495.667"/>
      <point x="323.667" y="494.333"/>
      <point x="330.667" y="493.667" type="curve"/>
      <point x="353.667" y="563"/>
      <point x="388.667" y="603" name="n41"/>
      <point x="464.667" y="603" type="curve" smooth="yes"/>
      <point x="516.333" y="603"/>
      <point x="538.667" y="581.667"/>
    </contour>
  </outline>
</glyph>
<glyph name="uni018C" format="2">
  <advance width="538"/>
  <unicode hex="018C"/>
  <outline>
    <contour>
      <point x="391" y="479.333" type="curve"/>
      <point x="423.667" y="662.667" type="line" smooth="yes"/>
      <point x="425.333" y="673.667"/>
      <point x="422.333" y="684"/>
      <point x="407.667" y="684" type="curve" smooth="yes"/>
      <point x="271" y="684" type="line" smooth="yes" name="n05"/>
      <point x="261" y="684"/>
      <point x="251.667" y="676"/>
      <point x="248.333" y="665.667" type="curve"/>
      <point x="216.667" y="576.333" type="line" name="n09"/>
      <point x="155.667" y="576.333" type="line"/>
      <point x="187" y="737" type="line" name="n11"/>
      <point x="542.667" y="737" type="line"/>
      <point x="428.333" y="87.3333" type="line" smooth="yes"/>
      <point x="422.023" y="51.719"/>
      <point x="449" y="43"/>
      <point x="457.667" y="43" type="curve" smooth="yes"/>
      <point x="473.667" y="43"/>
      <point x="523.333" y="60.6667"/>
      <point x="536.667" y="65.6667" type="curve"/>
      <point x="536.667" y="24.6667" type="line"/>
      <point x="514.667" y="14"/>
      <point x="443.333" y="-12"/>
      <point x="398.667" y="-12" type="curve" smooth="yes"/>
      <point x="341.333" y="-12"/>
      <point x="322.333" y="14.6667"/>
      <point x="318.667" y="54" type="curve"/>
      <point x="283.333" y="20.3333"/>
      <point x="233.667" y="-12"/>
      <point x="182" y="-12" type="curve" smooth="yes" name="n29"/>
      <point x="68.6667" y="-12"/>
      <point x="32" y="83"/>
      <point x="32" y="167.667" type="curve" smooth="yes" name="n32"/>
      <point x="32" y="324.667"/>
      <point x="136.333" y="496"/>
      <point x="321.667" y="496" type="curve" smooth="yes" name="n35"/>
      <point x="350" y="496"/>
      <point x="375.333" y="484.667"/>
    </contour>
    <contour>
      <point x="376" y="394" type="line" smooth="yes"/>
      <point x="377" y="399.667"/>
      <point x="345" y="447"/>
      <point x="319.667" y="447" type="curve" smooth="yes" name="n41"/>
      <point x="231.667" y="447"/>
      <point x="142.667" y="330.667"/>
      <point x="142.667" y="173.667" type="curve" smooth="yes" name="n44"/>
      <point x="142.667" y="89.3333"/>
      <point x="175.333" y="52.3333"/>
      <point x="213.667" y="52.3333" type="curve" smooth="yes" name="n47"/>
      <point x="249" y="52.3333"/>
      <point x="294.667" y="91.3333"/>
      <point x="330" y="132.333" type="curve"/>
    </contour>
  </outline>
</glyph>
<glyph name="uni018D" format="2">
  <advance width="525"/>
  <unicode hex="018D"/>
  <outline>
    <contour>
      <point x="52.3333" y="117.667" type="curve" name="n00"/>
      <point x="55.3333" y="238.333"/>
      <point x="162.333" y="305"/>
      <point x="236" y="303" type="curve" name="n03"/>
      <point x="299.536" y="298.481"/>
      <point x="358.613" y="253.147"/>
      <point x="359.667" y="171.667" type="curve" name="n06"/>
      <point x="366.667" y="57.3333"/>
      <point x="284.667" y="-1.33333"/>
      <point x="209.667" y="-31.3333" type="curve"/>
      <point x="257.333" y="-72"/>
      <point x="314.667" y="-100"/>
      <point x="314.667" y="-120" type="curve" smooth="yes" name="n12"/>
      <point x="314.667" y="-152"/>
      <point x="163.333" y="-166"/>
      <point x="113.333" y="-96.6667" type="curve" name="n15"/>
      <point x="41.3333" y="-35.6667"/>
      <point x="61.6667" y="38"/>
      <point x="101" y="68" type="curve"/>
      <point x="135.667" y="90.6667"/>
      <point x="192" y="101.333"/>
      <point x="219.333" y="62" type="curve" name="n21"/>
      <point x="226" y="8.33333"/>
      <point x="192.333" y="-22"/>
      <point x="152.667" y="-41.3333" type="curve"/>
      <point x="172.524" y="-69.8203"/>
      <point x="195.309" y="-119.854"/>
      <point x="195.667" y="-145" type="curve"/>
      <point x="210.333" y="-192.667"/>
      <point x="180.667" y="-216.333" name="hr01"/>
      <point x="174" y="-216.333" type="curve" smooth="yes" name="n30"/>
      <point x="155.333" y="-216.333"/>
      <point x="167.333" y="-191.667"/>
      <point x="167.333" y="-145.667" type="curve" smooth="yes" name="n33"/>
      <point x="167.333" y="-72.3333"/>
      <point x="37.3333" y="-8.33333"/>
    </contour>
    <contour>
      <point x="148.333" y="224.333" type="curve" smooth="yes" name="n36"/>
      <point x="148.333" y="165.667"/>
      <point x="173" y="119.333"/>
      <point x="205.333" y="78.6667" type="curve"/>
      <point x="289.333" y="118.667"/>
      <point x="380.333" y="211"/>
      <point x="380.333" y="329.667" type="curve" smooth="yes" name="n42"/>
      <point x="380.333" y="410.333"/>
      <point x="351.667" y="447.667"/>
      <point x="303" y="447.667" type="curve" smooth="yes" name="n45"/>
      <point x="215.333" y="447.667"/>
      <point x="148.333" y="340.667"/>
    </contour>
  </outline>
</glyph>
<glyph name="uni0190" format="2">
  <advance width="557"/>
  <unicode hex="0190"/>
  <outline>
    <contour>
      <point x="573" y="568" type="curve" smooth="yes"/>
      <point x="573" y="530"/>
      <point x="542" y="491"/>
      <point x="489.667" y="491" type="curve" smooth="yes" name="n03"/>
      <point x="461.333" y="491"/>
      <point x="445" y="509.667"/>
      <point x="445" y="509.667" type="curve"/>
      <point x="402.667" y="622.333" type="line"/>
      <point x="393.667" y="626.667"/>
      <point x="386" y="628" name="hr01"/>
      <point x="382" y="628" type="curve" smooth="yes" name="n10"/>
      <point x="308" y="628"/>
      <point x="246" y="555.333"/>
      <point x="246" y="470.333" type="curve" smooth="yes" name="n13"/>
      <point x="246" y="395.667"/>
      <point x="302.333" y="378.333"/>
      <point x="347" y="378.333" type="curve" smooth="yes" name="n16"/>
      <point x="353" y="378.333"/>
      <point x="363.333" y="378.667"/>
      <point x="387.333" y="379.667" type="curve"/>
      <point x="374.333" y="310.667" type="line"/>
      <point x="347" y="313.667"/>
      <point x="322.667" y="316.333"/>
      <point x="310" y="316.333" type="curve" smooth="yes" name="n23"/>
      <point x="224.333" y="316.333"/>
      <point x="146" y="265.333" name="hr02"/>
      <point x="146" y="163" type="curve" smooth="yes" name="n26"/>
      <point x="146" y="83.3333"/>
      <point x="213.333" y="39"/>
      <point x="272" y="39" type="curve" smooth="yes" name="n29"/>
      <point x="298" y="39"/>
      <point x="324" y="46.3333"/>
      <point x="351.333" y="67" type="curve"/>
      <point x="394.333" y="152.667" type="line"/>
      <point x="403" y="155.333"/>
      <point x="425.667" y="161.333"/>
      <point x="438" y="161.333" type="curve" smooth="yes"/>
      <point x="476.667" y="161.333"/>
      <point x="495.667" y="140.333"/>
      <point x="495.667" y="112.333" type="curve" smooth="yes"/>
      <point x="495.667" y="42"/>
      <point x="373.333" y="-16"/>
      <point x="261" y="-16" type="curve" smooth="yes" name="n42"/>
      <point x="122" y="-16"/>
      <point x="20" y="29.3333"/>
      <point x="20" y="147" type="curve" smooth="yes" name="n45"/>
      <point x="20" y="298"/>
      <point x="148.333" y="342.667"/>
      <point x="229.667" y="355.333" type="curve"/>
      <point x="164.667" y="382.667"/>
      <point x="123" y="420.667" name="hr03"/>
      <point x="123" y="481.333" type="curve" smooth="yes" name="n51"/>
      <point x="123" y="602"/>
      <point x="232.333" y="687"/>
      <point x="370" y="687" type="curve" smooth="yes" name="n54"/>
      <point x="480.333" y="687"/>
      <point x="573" y="659.333"/>
    </contour>
  </outline>
</glyph>
<glyph name="uni0194" format="2">
  <advance width="676"/>
  <unicode hex="0194"/>
  <outline>
    <contour>
      <point x="740.333" y="628" type="line"/>
      <point x="671.333" y="621.333" type="line"/>
      <point x="392" y="265" type="line"/>
      <point x="402.667" y="233.333"/>
      <point x="438" y="149.667"/>
      <point x="438" y="111.667" type="curve" smooth="yes" name="n05"/>
      <point x="438" y="34.6667"/>
      <point x="360" y="-16"/>
      <point x="289" y="-16" type="curve" smooth="yes" name="n08"/>
      <point x="239.333" y="-16"/>
      <point x="178.333" y="4"/>
      <point x="178.333" y="63.3333" type="curve" smooth="yes" name="n11"/>
      <point x="178.333" y="109.333"/>
      <point x="260.333" y="199.333"/>
      <point x="281.333" y="224.333" type="curve"/>
      <point x="149" y="621.667" type="line"/>
      <point x="82" y="628" type="line"/>
      <point x="82" y="671" type="line"/>
      <point x="356.333" y="671" type="line"/>
      <point x="356.333" y="628" type="line"/>
      <point x="300.333" y="624" type="line" smooth="yes"/>
      <point x="284.334" y="622.987"/>
      <point x="276" y="613.333"/>
      <point x="280.667" y="597.333" type="curve"/>
      <point x="280.667" y="597.333"/>
      <point x="362.667" y="353.667"/>
      <point x="370.333" y="331.333" type="curve"/>
      <point x="390.667" y="357.333"/>
      <point x="582" y="600"/>
      <point x="582" y="600" type="curve"/>
      <point x="591" y="612"/>
      <point x="586" y="622.333"/>
      <point x="564" y="624.667" type="curve" name="n32"/>
      <point x="521" y="628" type="line"/>
      <point x="521" y="671" type="line" name="n34"/>
      <point x="740.333" y="671" type="line"/>
    </contour>
    <contour>
      <point x="325.333" y="83" type="curve" smooth="yes" name="n36"/>
      <point x="325.333" y="99"/>
      <point x="309" y="141.667"/>
      <point x="303.667" y="157.333" type="curve"/>
      <point x="287.667" y="138.333"/>
      <point x="249.667" y="95"/>
      <point x="249.667" y="69" type="curve" smooth="yes" name="n42"/>
      <point x="249.667" y="50.3333"/>
      <point x="266.333" y="41.3333"/>
      <point x="283.667" y="41.3333" type="curve" smooth="yes" name="n45"/>
      <point x="307.667" y="41.3333"/>
      <point x="325.333" y="58.3333"/>
    </contour>
  </outline>
</glyph>
<glyph name="uni0196" format="2">
  <advance width="422"/>
  <unicode hex="0196"/>
  <outline>
    <contour>
      <point x="408" y="93.6667" type="curve" smooth="yes"/>
      <point x="408" y="19.3333"/>
      <point x="287.333" y="-16"/>
      <point x="221.333" y="-16" type="curve" smooth="yes" name="n03"/>
      <point x="138" y="-16"/>
      <point x="77" y="12.3333"/>
      <point x="77" y="95" type="curve" smooth="yes" name="n06"/>
      <point x="77" y="110"/>
      <point x="79" y="125"/>
      <point x="82" y="140" type="curve" smooth="yes"/>
      <point x="170.667" y="601.333" type="line" smooth="yes"/>
      <point x="172.667" y="612"/>
      <point x="168" y="620.333"/>
      <point x="151" y="621.667" type="curve"/>
      <point x="151" y="621.667"/>
      <point x="115.221" y="624.451"/>
      <point x="96" y="626.333" type="curve"/>
      <point x="96" y="671" type="line" name="n17"/>
      <point x="300.333" y="671" type="line"/>
      <point x="201" y="161.667" type="line"/>
      <point x="199" y="149.667"/>
      <point x="197" y="137"/>
      <point x="197" y="125" type="curve" smooth="yes" name="n22"/>
      <point x="197" y="77.6667"/>
      <point x="226.667" y="51.6667"/>
      <point x="272.333" y="49.6667" type="curve" name="n25"/>
      <point x="335.333" y="170.333" type="line"/>
      <point x="377.333" y="166.667"/>
      <point x="408" y="127.333"/>
    </contour>
  </outline>
</glyph>
<glyph name="uni0198" format="2">
  <advance width="669"/>
  <unicode hex="0198"/>
  <outline>
    <contour>
      <point x="757" y="588" type="curve" smooth="yes" name="n00"/>
      <point x="757" y="555.333"/>
      <point x="732.333" y="511"/>
      <point x="695" y="510.667" type="curve"/>
      <point x="669.667" y="509.667"/>
      <point x="653.333" y="521.667"/>
      <point x="646.667" y="525.333" type="curve"/>
      <point x="646.667" y="625.667" type="line" name="n07"/>
      <point x="640.667" y="631.667"/>
      <point x="629" y="637.667"/>
      <point x="615.333" y="637.667" type="curve" smooth="yes" name="n10"/>
      <point x="599.333" y="637.667"/>
      <point x="585" y="625.333"/>
      <point x="568" y="605.667" type="curve" smooth="yes"/>
      <point x="360" y="367.667" type="line"/>
      <point x="499" y="100.333" type="line" smooth="yes"/>
      <point x="523.333" y="53"/>
      <point x="537.333" y="43.3333"/>
      <point x="571" y="43" type="curve" name="n18"/>
      <point x="582.333" y="43"/>
      <point x="608.333" y="45"/>
      <point x="620" y="45.6667" type="curve"/>
      <point x="620" y="1" type="line" name="n22"/>
      <point x="587.333" y="-8.66667"/>
      <point x="548.667" y="-16" name="hr02"/>
      <point x="519" y="-16" type="curve" smooth="yes" name="n25"/>
      <point x="453.333" y="-16"/>
      <point x="423" y="2.33333"/>
      <point x="393.333" y="59.3333" type="curve" smooth="yes"/>
      <point x="271.333" y="293.667" type="line"/>
      <point x="225.667" y="293.667" type="line"/>
      <point x="181" y="67.3333" type="line" smooth="yes"/>
      <point x="179" y="56.3333"/>
      <point x="184.667" y="50.3333"/>
      <point x="199.667" y="49.3333" type="curve"/>
      <point x="199.667" y="49.3333"/>
      <point x="238.739" y="46.103"/>
      <point x="255.667" y="44.6667" type="curve"/>
      <point x="255.667" y="0" type="line"/>
      <point x="-16" y="0" type="line"/>
      <point x="-16" y="44.6667" type="line"/>
      <point x="0.652742" y="46.0218"/>
      <point x="43.6667" y="49.3333"/>
      <point x="43.6667" y="49.3333" type="curve"/>
      <point x="55.6667" y="50"/>
      <point x="64" y="55.3333"/>
      <point x="66" y="67.6667" type="curve"/>
      <point x="171" y="603" type="line" smooth="yes"/>
      <point x="173.333" y="614.333"/>
      <point x="168.667" y="620.667"/>
      <point x="154" y="621.667" type="curve"/>
      <point x="154" y="621.667"/>
      <point x="116.855" y="624.513"/>
      <point x="99" y="626.333" type="curve"/>
      <point x="99" y="671" type="line" name="n54"/>
      <point x="366.667" y="671" type="line"/>
      <point x="366.667" y="626.333" type="line"/>
      <point x="347.982" y="624.513"/>
      <point x="309" y="621.667"/>
      <point x="309" y="621.667" type="curve"/>
      <point x="297" y="620.667"/>
      <point x="289" y="615.667"/>
      <point x="286" y="602.667" type="curve"/>
      <point x="238.333" y="355.667" type="line"/>
      <point x="251.667" y="355.667" type="line"/>
      <point x="491" y="632.667" type="line" smooth="yes"/>
      <point x="522.667" y="669.333"/>
      <point x="573" y="687" name="hr03"/>
      <point x="613.667" y="687" type="curve" smooth="yes" name="n68"/>
      <point x="675.333" y="687"/>
      <point x="757" y="648.333"/>
    </contour>
  </outline>
</glyph>
<glyph name="uni0199" format="2">
  <advance width="522"/>
  <unicode hex="0199"/>
  <outline>
    <contour>
      <point x="510.667" y="24" type="line"/>
      <point x="477.667" y="7"/>
      <point x="416.667" y="-12"/>
      <point x="380" y="-12" type="curve" smooth="yes" name="n03"/>
      <point x="346.667" y="-12"/>
      <point x="311" y="12.6667"/>
      <point x="294.333" y="37.6667" type="curve" smooth="yes"/>
      <point x="269" y="76.3333"/>
      <point x="219.667" y="190"/>
      <point x="197.333" y="237.333" type="curve"/>
      <point x="159.667" y="203.667" type="line"/>
      <point x="118.333" y="0" type="line" name="n11"/>
      <point x="12.6667" y="0" type="line"/>
      <point x="110.333" y="489.333" type="line" smooth="yes"/>
      <point x="121.667" y="544.333"/>
      <point x="135.333" y="586.333"/>
      <point x="165" y="628.667" type="curve" smooth="yes"/>
      <point x="215.667" y="701"/>
      <point x="292.667" y="737"/>
      <point x="385" y="737" type="curve" smooth="yes" name="n19"/>
      <point x="449.333" y="737"/>
      <point x="469" y="704.667"/>
      <point x="465" y="673.667" type="curve" smooth="yes"/>
      <point x="459.667" y="628"/>
      <point x="403.667" y="615"/>
      <point x="393.333" y="613" type="curve"/>
      <point x="345" y="677.333" type="line" name="n26"/>
      <point x="288.667" y="676.667"/>
      <point x="245.333" y="623.667"/>
      <point x="227" y="535.333" type="curve" smooth="yes"/>
      <point x="177" y="290" type="line"/>
      <point x="322.333" y="439.667" type="line" smooth="yes"/>
      <point x="361.333" y="480"/>
      <point x="387.667" y="496" name="n33"/>
      <point x="424" y="496" type="curve" smooth="yes"/>
      <point x="470.333" y="496"/>
      <point x="496.333" y="466.333"/>
      <point x="495.667" y="440.667" type="curve"/>
      <point x="495.667" y="417.333"/>
      <point x="480.333" y="383.667"/>
      <point x="423.333" y="364.333" type="curve"/>
      <point x="387.333" y="410" type="line"/>
      <point x="352" y="382.333"/>
      <point x="303.667" y="337.333"/>
      <point x="274.667" y="311.333" type="curve"/>
      <point x="292.667" y="277.333"/>
      <point x="315.667" y="204"/>
      <point x="345.333" y="150" type="curve" smooth="yes"/>
      <point x="375" y="95.3333"/>
      <point x="407.333" y="45" name="hr02"/>
      <point x="442" y="45" type="curve" smooth="yes" name="n50"/>
      <point x="451.667" y="45"/>
      <point x="480.667" y="51.3333"/>
      <point x="510.667" y="64.3333" type="curve"/>
    </contour>
  </outline>
</glyph>
<glyph name="uni019C" format="2">
  <advance width="1084"/>
  <unicode hex="019C"/>
  <outline>
    <contour>
      <point x="291.333" y="599" type="curve" smooth="yes"/>
      <point x="215.333" y="218.667" type="line" smooth="yes"/>
      <point x="198" y="129"/>
      <point x="252.333" y="70"/>
      <point x="332.333" y="70" type="curve" smooth="yes"/>
      <point x="371" y="70"/>
      <point x="427.333" y="95.3333"/>
      <point x="468" y="114.667" type="curve"/>
      <point x="465" y="139.333"/>
      <point x="466.333" y="167.333"/>
      <point x="472.333" y="198.667" type="curve" smooth="yes"/>
      <point x="552.333" y="599" type="line" smooth="yes"/>
      <point x="554.333" y="610"/>
      <point x="548.002" y="620.023"/>
      <point x="535" y="621" type="curve" smooth="yes" name="n14"/>
      <point x="479.333" y="625.333" type="line"/>
      <point x="479.333" y="671" type="line" name="n16"/>
      <point x="751.333" y="671" type="line"/>
      <point x="751.333" y="625.333" type="line"/>
      <point x="692.667" y="621" type="line" smooth="yes"/>
      <point x="679.333" y="620"/>
      <point x="669.333" y="610"/>
      <point x="667.333" y="599" type="curve" smooth="yes"/>
      <point x="591.333" y="218.667" type="line" smooth="yes"/>
      <point x="574" y="128.667"/>
      <point x="601.667" y="70"/>
      <point x="681.667" y="70" type="curve" smooth="yes" name="n26"/>
      <point x="743.667" y="70"/>
      <point x="781.333" y="102"/>
      <point x="837" y="139.333" type="curve"/>
      <point x="928.333" y="599" type="line" smooth="yes"/>
      <point x="930.333" y="610"/>
      <point x="924" y="620"/>
      <point x="911" y="621" type="curve" smooth="yes"/>
      <point x="855.333" y="625.333" type="line"/>
      <point x="855.333" y="671" type="line"/>
      <point x="1127.33" y="671" type="line"/>
      <point x="1127.33" y="625.333" type="line"/>
      <point x="1068.67" y="621" type="line" smooth="yes"/>
      <point x="1055.33" y="620"/>
      <point x="1045.33" y="610"/>
      <point x="1043.33" y="599" type="curve" smooth="yes"/>
      <point x="938" y="68" type="line"/>
      <point x="936" y="59.3333"/>
      <point x="939.667" y="51.6667"/>
      <point x="951.333" y="50.6667" type="curve"/>
      <point x="951.333" y="50.6667"/>
      <point x="994.638" y="47.0255"/>
      <point x="1011.67" y="45.6667" type="curve"/>
      <point x="1011.67" y="0" type="line" name="n49"/>
      <point x="809" y="0" type="line"/>
      <point x="824.333" y="72.6667" type="line"/>
      <point x="743" y="16.3333"/>
      <point x="707.667" y="-16" name="hr02"/>
      <point x="625" y="-16" type="curve" smooth="yes" name="n54"/>
      <point x="554.667" y="-16"/>
      <point x="506.333" y="12.6667"/>
      <point x="483.333" y="61" type="curve"/>
      <point x="413" y="15.3333"/>
      <point x="351" y="-16"/>
      <point x="276" y="-16" type="curve" smooth="yes"/>
      <point x="170.667" y="-16"/>
      <point x="92" y="45.6667"/>
      <point x="92" y="151.667" type="curve" smooth="yes"/>
      <point x="92" y="166.667"/>
      <point x="93.3333" y="182"/>
      <point x="97" y="198.667" type="curve" smooth="yes"/>
      <point x="176.333" y="599" type="line" smooth="yes"/>
      <point x="178.333" y="610"/>
      <point x="172" y="620"/>
      <point x="159" y="621" type="curve" smooth="yes"/>
      <point x="103.333" y="625.333" type="line"/>
      <point x="103.333" y="671" type="line"/>
      <point x="375.333" y="671" type="line"/>
      <point x="375.333" y="625.333" type="line"/>
      <point x="316.667" y="621" type="line" smooth="yes"/>
      <point x="303.333" y="620"/>
      <point x="293.333" y="610"/>
    </contour>
  </outline>
</glyph>
<glyph name="Ohorn" format="2">
  <advance width="779"/>
  <unicode hex="01A0"/>
  <outline>
    <contour>
      <point x="833" y="715.425" type="curve" smooth="yes" name="n00"/>
      <point x="833" y="635"/>
      <point x="775.333" y="547.667"/>
      <point x="693" y="502.333" type="curve"/>
      <point x="701" y="475.667"/>
      <point x="705" y="447" name="hr01"/>
      <point x="705" y="411.839" type="curve" smooth="yes" name="n06"/>
      <point x="705" y="208.333"/>
      <point x="571.436" y="-16"/>
      <point x="329.771" y="-16" type="curve" smooth="yes" name="n09"/>
      <point x="158.333" y="-16"/>
      <point x="48" y="96.6667"/>
      <point x="48" y="271.491" type="curve" smooth="yes" name="n12"/>
      <point x="48" y="475.333"/>
      <point x="198" y="687.333"/>
      <point x="428.691" y="687.333" type="curve" smooth="yes" name="n15"/>
      <point x="543.642" y="687.333"/>
      <point x="628.053" y="634"/>
      <point x="672" y="552.667" type="curve"/>
      <point x="713.667" y="580.667"/>
      <point x="732.667" y="625.333"/>
      <point x="743" y="678" type="curve" name="n21"/>
      <point x="654.333" y="678" type="line"/>
      <point x="643.291" y="694.065"/>
      <point x="636" y="715.438"/>
      <point x="636" y="734.995" type="curve" smooth="yes" name="n25"/>
      <point x="636" y="787.667"/>
      <point x="683.667" y="824"/>
      <point x="735.464" y="824" type="curve" smooth="yes" name="n28"/>
      <point x="788.667" y="824"/>
      <point x="833" y="785.667"/>
    </contour>
    <contour>
      <point x="577.667" y="413.026" type="curve" smooth="yes" name="n31"/>
      <point x="577.667" y="551" name="hr03"/>
      <point x="505.531" y="634"/>
      <point x="417.3" y="634" type="curve" smooth="yes" name="n34"/>
      <point x="281.196" y="634"/>
      <point x="175" y="432.667"/>
      <point x="175" y="262.112" type="curve" smooth="yes" name="n37"/>
      <point x="175" y="118.667"/>
      <point x="250.141" y="39.3333"/>
      <point x="335.336" y="39.3333" type="curve" smooth="yes" name="n40"/>
      <point x="471.135" y="39.3333"/>
      <point x="577.667" y="245.333"/>
    </contour>
  </outline>
</glyph>
<glyph name="ohorn" format="2">
  <advance width="617"/>
  <unicode hex="01A1"/>
  <outline>
    <contour>
      <point x="612.667" y="492" type="curve" smooth="yes" name="n00"/>
      <point x="612.667" y="421"/>
      <point x="560.333" y="343.667"/>
      <point x="490.667" y="310.667" type="curve" name="hr01"/>
      <point x="490.667" y="301" type="line" smooth="yes" name="n04"/>
      <point x="490.667" y="140.667"/>
      <point x="380" y="-12"/>
      <point x="216.667" y="-12" type="curve" smooth="yes" name="n07"/>
      <point x="97.6667" y="-12"/>
      <point x="31.3333" y="64"/>
      <point x="31.3333" y="178.333" type="curve" smooth="yes" name="n10"/>
      <point x="31.3333" y="338.667"/>
      <point x="137.667" y="496"/>
      <point x="304" y="496" type="curve" smooth="yes" name="n13"/>
      <point x="392.667" y="496"/>
      <point x="464.333" y="452"/>
      <point x="484.667" y="359" type="curve"/>
      <point x="514.667" y="385.333"/>
      <point x="533.333" y="421"/>
      <point x="538" y="455.333" type="curve" name="n19"/>
      <point x="471.333" y="455.333" type="line"/>
      <point x="471.333" y="455.333"/>
      <point x="454.667" y="475.667"/>
      <point x="454.667" y="503" type="curve" smooth="yes" name="n23"/>
      <point x="454.667" y="544.333"/>
      <point x="489" y="576.333"/>
      <point x="533.333" y="576.333" type="curve" smooth="yes" name="n26"/>
      <point x="578.333" y="576.333"/>
      <point x="612.667" y="541"/>
    </contour>
    <contour>
      <point x="375.333" y="305" type="curve" smooth="yes" name="n29"/>
      <point x="375.333" y="401" name="hr03"/>
      <point x="335.333" y="449.667"/>
      <point x="293" y="449.667" type="curve" smooth="yes" name="n32"/>
      <point x="214.667" y="449.667"/>
      <point x="146.333" y="314.667"/>
      <point x="146.333" y="183" type="curve" smooth="yes" name="n35"/>
      <point x="146.333" y="82.6667"/>
      <point x="187.667" y="36.3333"/>
      <point x="228.667" y="36.3333" type="curve" smooth="yes" name="n38"/>
      <point x="315.333" y="36.3333"/>
      <point x="375.333" y="185.333"/>
    </contour>
  </outline>
</glyph>
<glyph name="uni01A5" format="2">
  <advance width="510"/>
  <unicode hex="01A5"/>
  <outline>
    <contour>
      <point x="523" y="638.333" type="curve" smooth="yes"/>
      <point x="523" y="606.333"/>
      <point x="486.333" y="579.667"/>
      <point x="455" y="579.667" type="curve" smooth="yes" name="n03"/>
      <point x="438.333" y="579.667"/>
      <point x="425.667" y="586"/>
      <point x="425.667" y="586" type="curve"/>
      <point x="408.333" y="670" type="line"/>
      <point x="399" y="679.333"/>
      <point x="382.667" y="682.333" name="hr01"/>
      <point x="365" y="682.333" type="curve" smooth="yes" name="n10"/>
      <point x="309.333" y="682.333"/>
      <point x="240.667" y="630.667"/>
      <point x="219" y="520" type="curve" smooth="yes"/>
      <point x="203.333" y="442.333" type="line"/>
      <point x="233" y="461"/>
      <point x="284.333" y="496"/>
      <point x="339.333" y="496" type="curve" smooth="yes" name="n17"/>
      <point x="441.667" y="496"/>
      <point x="477.667" y="399.333"/>
      <point x="477.667" y="309.667" type="curve" smooth="yes" name="n20"/>
      <point x="477.667" y="147"/>
      <point x="356" y="-12"/>
      <point x="184" y="-12" type="curve" smooth="yes" name="n23"/>
      <point x="156" y="-12"/>
      <point x="133" y="-3.33333"/>
      <point x="118" y="2.66667" type="curve"/>
      <point x="86.6667" y="-154" type="line" smooth="yes"/>
      <point x="84.6667" y="-164.333"/>
      <point x="89.3333" y="-171.333"/>
      <point x="105" y="-172.667" type="curve" smooth="yes"/>
      <point x="170" y="-178" type="line"/>
      <point x="170" y="-218.333" type="line"/>
      <point x="-96" y="-218.333" type="line"/>
      <point x="-96" y="-178" type="line"/>
      <point x="-82.927" y="-176.749"/>
      <point x="-41.3333" y="-173"/>
      <point x="-41.3333" y="-173" type="curve"/>
      <point x="-29.3333" y="-172"/>
      <point x="-21.6667" y="-165.667"/>
      <point x="-19.6667" y="-154" type="curve" smooth="yes"/>
      <point x="115.667" y="541" type="line" smooth="yes"/>
      <point x="134.333" y="634.667"/>
      <point x="224.333" y="737"/>
      <point x="370" y="737" type="curve" smooth="yes" name="n44"/>
      <point x="465.667" y="737"/>
      <point x="523" y="706"/>
    </contour>
    <contour>
      <point x="365" y="305.667" type="curve" smooth="yes" name="n47"/>
      <point x="365" y="363.667"/>
      <point x="346.667" y="432"/>
      <point x="293" y="432" type="curve" smooth="yes" name="n50"/>
      <point x="251.667" y="432"/>
      <point x="203.667" y="386.667"/>
      <point x="190.333" y="375.333" type="curve"/>
      <point x="130" y="66" type="line"/>
      <point x="143.333" y="58"/>
      <point x="174.333" y="37"/>
      <point x="203.667" y="37" type="curve" smooth="yes" name="n57"/>
      <point x="304.333" y="37"/>
      <point x="365" y="192.667"/>
    </contour>
  </outline>
</glyph>
<glyph name="uni01A7" format="2">
  <advance width="545"/>
  <unicode hex="01A7"/>
  <outline>
    <contour>
      <point x="486.667" y="200.333" type="line"/>
      <point x="456.667" y="37.6667" type="line"/>
      <point x="422.667" y="16.6667"/>
      <point x="353" y="-16"/>
      <point x="259.667" y="-16" type="curve" smooth="yes" name="n04"/>
      <point x="92.6667" y="-16"/>
      <point x="25" y="53"/>
      <point x="25" y="139.667" type="curve" smooth="yes" name="n07"/>
      <point x="25" y="261.667"/>
      <point x="118.667" y="323"/>
      <point x="258" y="386.333" type="curve" smooth="yes"/>
      <point x="361.667" y="433"/>
      <point x="415.333" y="479.667"/>
      <point x="415.333" y="547.333" type="curve" smooth="yes" name="n13"/>
      <point x="415.333" y="602"/>
      <point x="377.667" y="634.667"/>
      <point x="316.667" y="634.667" type="curve" smooth="yes" name="n16"/>
      <point x="260.667" y="634.667"/>
      <point x="217" y="610.667"/>
      <point x="212.333" y="593" type="curve"/>
      <point x="177" y="495.667" type="line"/>
      <point x="111" y="495.667" type="line"/>
      <point x="139.667" y="649.667" type="line"/>
      <point x="187.667" y="668.667"/>
      <point x="242.333" y="687"/>
      <point x="328.667" y="687" type="curve" smooth="yes" name="n25"/>
      <point x="447.667" y="687"/>
      <point x="531.667" y="645"/>
      <point x="531.667" y="550" type="curve" smooth="yes" name="n28"/>
      <point x="531.667" y="431.667"/>
      <point x="434.333" y="357.667"/>
      <point x="336.333" y="307.667" type="curve" smooth="yes"/>
      <point x="250" y="263.667"/>
      <point x="140" y="229.333"/>
      <point x="140" y="136" type="curve" smooth="yes" name="n34"/>
      <point x="140" y="75.3333"/>
      <point x="187.333" y="39.3333"/>
      <point x="253.333" y="39.3333" type="curve" smooth="yes" name="n37"/>
      <point x="322.333" y="39.3333"/>
      <point x="372.333" y="70.6667"/>
      <point x="376.333" y="84.3333" type="curve" smooth="yes"/>
      <point x="412.333" y="200.333" type="line"/>
    </contour>
  </outline>
</glyph>
<glyph name="uni01B6" format="2">
  <advance width="460"/>
  <unicode hex="01B6"/>
  <outline>
    <contour>
      <point x="332" y="144" type="curve" name="n00"/>
      <point x="291.212" y="144"/>
      <point x="215.464" y="158.333"/>
      <point x="207.667" y="158.333" type="curve"/>
      <point x="187.859" y="138.66"/>
      <point x="129.467" y="73.4299"/>
      <point x="114.667" y="55.6667" type="curve"/>
      <point x="158.333" y="49" type="line"/>
      <point x="171.828" y="44.787"/>
      <point x="178.225" y="42.3658"/>
      <point x="192" y="44.6667" type="curve" name="n10"/>
      <point x="223.339" y="59.2501"/>
      <point x="271.609" y="116.727"/>
      <point x="287" y="135.333" type="curve"/>
      <point x="223.667" y="176" type="line"/>
      <point x="232.333" y="195.79"/>
      <point x="249" y="218.5"/>
      <point x="261" y="221" type="curve"/>
      <point x="293.347" y="221"/>
      <point x="335.943" y="199"/>
      <point x="342.667" y="179.667" type="curve"/>
      <point x="348.69" y="132.594"/>
      <point x="317.833" y="118.441"/>
      <point x="279.333" y="124" type="curve" name="n23"/>
      <point x="234.879" y="123.519"/>
      <point x="188.709" y="150.386" name="hr01"/>
      <point x="153" y="150" type="curve" name="n26"/>
      <point x="138" y="156.333"/>
      <point x="123.333" y="161.667"/>
      <point x="109.667" y="155.667" type="curve"/>
      <point x="103.347" y="152.56"/>
      <point x="76.6312" y="124.693"/>
      <point x="71.6667" y="116.333" type="curve"/>
      <point x="45.3333" y="123" type="line"/>
      <point x="51.2831" y="128.986"/>
      <point x="128.504" y="224.63"/>
      <point x="140" y="251" type="curve"/>
      <point x="115.51" y="251"/>
      <point x="76.3775" y="265"/>
      <point x="70" y="274" type="curve"/>
      <point x="70" y="299.496"/>
      <point x="96.6667" y="341.363"/>
      <point x="127.667" y="348" type="curve" name="n42"/>
      <point x="168.301" y="348"/>
      <point x="243.565" y="333.667"/>
      <point x="251.333" y="333.667" type="curve"/>
      <point x="269.806" y="351.807"/>
      <point x="321.844" y="410.414"/>
      <point x="335.667" y="426.333" type="curve"/>
      <point x="286" y="434.667" type="line"/>
      <point x="274.232" y="441.494"/>
      <point x="278.552" y="438.107"/>
      <point x="266" y="435.333" type="curve" name="n52"/>
      <point x="247.34" y="426.941"/>
      <point x="191.425" y="375.414"/>
      <point x="175" y="353" type="curve"/>
      <point x="230" y="310.333" type="line"/>
      <point x="226.667" y="303.624"/>
      <point x="212" y="272.749"/>
      <point x="193.333" y="268.667" type="curve" name="n59"/>
      <point x="160.331" y="268.667"/>
      <point x="125.046" y="291.333"/>
      <point x="120" y="308" type="curve"/>
      <point x="114.82" y="342.759"/>
      <point x="124.807" y="368.522"/>
      <point x="176" y="360" type="curve" name="n65"/>
      <point x="219.832" y="360.487"/>
      <point x="267.779" y="329.009" name="hr03"/>
      <point x="297" y="329.333" type="curve" name="n68"/>
      <point x="311.667" y="323"/>
      <point x="323" y="317.667"/>
      <point x="338.667" y="321.667" type="curve"/>
      <point x="344.781" y="325.352"/>
      <point x="369.858" y="357.395"/>
      <point x="374.667" y="367" type="curve"/>
      <point x="404.667" y="359" type="line"/>
      <point x="399.343" y="353.346"/>
      <point x="328.702" y="265.297"/>
      <point x="319" y="241" type="curve"/>
      <point x="343.627" y="241"/>
      <point x="383.203" y="227"/>
      <point x="389.667" y="218" type="curve" name="n81"/>
      <point x="389.667" y="192.103"/>
      <point x="363" y="150.631" name="hr05"/>
    </contour>
  </outline>
</glyph>
<glyph name="uni01B8" format="2">
  <advance width="627"/>
  <unicode hex="01B8"/>
  <outline>
    <contour>
      <point x="646" y="671" type="line" name="n00"/>
      <point x="603" y="452" type="line" name="n01"/>
      <point x="539" y="452" type="line"/>
      <point x="546" y="551" type="line"/>
      <point x="546" y="562.667"/>
      <point x="537.333" y="573" name="hr01"/>
      <point x="528.667" y="573" type="curve" smooth="yes"/>
      <point x="256.333" y="573" type="line" name="n07"/>
      <point x="441" y="270.667" type="line"/>
      <point x="398.667" y="226.333" type="line"/>
      <point x="387.333" y="238.333"/>
      <point x="379" y="246"/>
      <point x="357.333" y="246" type="curve" smooth="yes" name="n12"/>
      <point x="277.667" y="246"/>
      <point x="137" y="173.667"/>
      <point x="137" y="26.3333" type="curve" smooth="yes" name="n15"/>
      <point x="137" y="-66"/>
      <point x="194.667" y="-160.333"/>
      <point x="281.333" y="-160.333" type="curve" smooth="yes" name="n18"/>
      <point x="311.333" y="-160.333"/>
      <point x="360" y="-152.333"/>
      <point x="389" y="-131.667" type="curve"/>
      <point x="420.667" y="-20" type="line"/>
      <point x="438.667" y="-7.66667"/>
      <point x="463.667" y="-4.66667"/>
      <point x="480" y="-4.66667" type="curve" smooth="yes"/>
      <point x="522.333" y="-4.66667"/>
      <point x="547.667" y="-27.6667"/>
      <point x="547.667" y="-71.6667" type="curve" smooth="yes"/>
      <point x="547.667" y="-144"/>
      <point x="433.667" y="-229"/>
      <point x="271" y="-229" type="curve" smooth="yes" name="n31"/>
      <point x="112.667" y="-229"/>
      <point x="6.66667" y="-113"/>
      <point x="6.66667" y="15.6667" type="curve" smooth="yes" name="n34"/>
      <point x="6.66667" y="180.667"/>
      <point x="166.333" y="294.667"/>
      <point x="325.333" y="300.667" type="curve" name="n37"/>
      <point x="147.333" y="598.333" type="line"/>
      <point x="166" y="671" type="line" name="n39"/>
    </contour>
  </outline>
</glyph>
<glyph name="uni01B9" format="2">
  <advance width="518"/>
  <unicode hex="01B9"/>
  <outline>
    <contour>
      <point x="477" y="308" type="curve"/>
      <point x="472.415" y="275.598"/>
      <point x="439.358" y="229.156"/>
      <point x="405.333" y="225.333" type="curve" name="n03"/>
      <point x="382.677" y="229.811"/>
      <point x="363.862" y="253.757"/>
      <point x="360.333" y="267.667" type="curve"/>
      <point x="334.896" y="272.683"/>
      <point x="339.97" y="280.156"/>
      <point x="348.667" y="254" type="curve"/>
      <point x="346" y="240.667"/>
      <point x="344" y="223.333" name="hr01"/>
      <point x="355" y="223.333" type="curve" name="n12"/>
      <point x="339" y="223.333"/>
      <point x="319" y="210"/>
      <point x="304" y="217.333" type="curve"/>
      <point x="282.55" y="222.149"/>
      <point x="240.333" y="250.333"/>
      <point x="240.333" y="250.333" type="curve"/>
      <point x="264.614" y="227.86"/>
      <point x="355.107" y="115.446"/>
      <point x="383.667" y="86.3333" type="curve"/>
      <point x="387.657" y="79.295"/>
      <point x="367.197" y="52.0237"/>
      <point x="361" y="39" type="curve"/>
      <point x="359.155" y="10.6902"/>
      <point x="301.938" y="17.7253"/>
      <point x="265" y="23" type="curve" name="n27"/>
      <point x="161.333" y="18.3333"/>
      <point x="55" y="-12"/>
      <point x="55" y="-36.3333" type="curve" name="n30"/>
      <point x="55" y="-34"/>
      <point x="130.667" y="-52"/>
      <point x="225.667" y="-52" type="curve" name="n33"/>
      <point x="235.305" y="-41.446"/>
      <point x="219.283" y="28.18"/>
      <point x="225" y="58.6667" type="curve"/>
      <point x="281" y="144" type="line"/>
      <point x="291.406" y="143.603"/>
      <point x="309.783" y="133.858"/>
      <point x="318.667" y="131.333" type="curve"/>
      <point x="348.667" y="130.667"/>
      <point x="361" y="112"/>
      <point x="364.667" y="95.3333" type="curve"/>
      <point x="389" y="30"/>
      <point x="311.667" y="14"/>
      <point x="273" y="14" type="curve" smooth="yes" name="n46"/>
      <point x="229.333" y="14"/>
      <point x="174" y="50.6667"/>
      <point x="174" y="99.3333" type="curve" smooth="yes" name="n49"/>
      <point x="174" y="177"/>
      <point x="255.333" y="224.667"/>
      <point x="322" y="224.667" type="curve" name="n52"/>
      <point x="286.43" y="259.424"/>
      <point x="191.972" y="390.019"/>
      <point x="178.667" y="413.333" type="curve"/>
      <point x="258.333" y="465.333" type="line"/>
      <point x="257.334" y="464.975"/>
      <point x="259.843" y="449.601"/>
      <point x="254.667" y="442.667" type="curve"/>
      <point x="249.667" y="441.333"/>
      <point x="240.333" y="428"/>
      <point x="236" y="428" type="curve"/>
      <point x="248.667" y="428"/>
      <point x="299.667" y="459"/>
      <point x="329.333" y="459.333" type="curve" name="n65"/>
      <point x="390.92" y="443.002"/>
      <point x="464.923" y="365.183"/>
    </contour>
  </outline>
</glyph>
<glyph name="uni01BB" format="2">
  <advance width="566"/>
  <unicode hex="01BB"/>
  <outline>
    <contour>
      <point x="538.333" y="465.333" type="curve" name="n00"/>
      <point x="537.706" y="409.988"/>
      <point x="505.762" y="349.397"/>
      <point x="460.333" y="300.667" type="curve"/>
      <point x="467.667" y="300.667" type="line" name="n04"/>
      <point x="443.702" y="277.934"/>
      <point x="410.24" y="235.612"/>
      <point x="377" y="210" type="curve" name="n07"/>
      <point x="372" y="210" type="line"/>
      <point x="327.792" y="175.84"/>
      <point x="280.281" y="158.172"/>
      <point x="226.333" y="123.333" type="curve"/>
      <point x="434" y="123.333" type="line" name="n12"/>
      <point x="443" y="114" type="line" name="n13"/>
      <point x="311.667" y="114" type="line"/>
      <point x="296" y="27.6667" type="line" name="n15"/>
      <point x="282.106" y="40.3333"/>
      <point x="101.847" y="62"/>
      <point x="72.6667" y="89.3333" type="curve"/>
      <point x="13.3333" y="135.333" type="line"/>
      <point x="84.8828" y="190.346"/>
      <point x="144.424" y="245.163"/>
      <point x="188.333" y="284.667" type="curve"/>
      <point x="125.667" y="284.667" type="line"/>
      <point x="140.992" y="306.745"/>
      <point x="156.54" y="348.266"/>
      <point x="161" y="371.333" type="curve"/>
      <point x="203.946" y="397.667"/>
      <point x="301.003" y="416.667"/>
      <point x="311" y="416.667" type="curve"/>
      <point x="348.667" y="463.333"/>
      <point x="369.333" y="504"/>
      <point x="361.333" y="549.667" type="curve" name="n32"/>
      <point x="359.396" y="587.98"/>
      <point x="326.722" y="581.944"/>
      <point x="282.333" y="573.333" type="curve" name="n35"/>
      <point x="253.667" y="573.333"/>
      <point x="216.333" y="554.333"/>
      <point x="200.667" y="551.667" type="curve"/>
      <point x="181.592" y="536.663"/>
      <point x="167.179" y="506.085"/>
      <point x="167.667" y="507" type="curve"/>
      <point x="174.667" y="548.333"/>
      <point x="216.333" y="547"/>
      <point x="224" y="547" type="curve" smooth="yes"/>
      <point x="257.667" y="547"/>
      <point x="262.333" y="525.667"/>
      <point x="254.333" y="512.333" type="curve"/>
      <point x="250.667" y="545.333"/>
      <point x="316.333" y="582.333"/>
      <point x="381.667" y="566" type="curve" name="n50"/>
      <point x="451.512" y="566"/>
      <point x="530.724" y="539.333"/>
    </contour>
  </outline>
</glyph>
<glyph name="uni01BF" format="2">
  <advance width="516"/>
  <unicode hex="01BF"/>
  <outline>
    <contour>
      <point x="170" y="-178" type="line"/>
      <point x="170" y="-218.333" type="line"/>
      <point x="-96" y="-218.333" type="line"/>
      <point x="-96" y="-178" type="line"/>
      <point x="-41.3333" y="-173" type="line" smooth="yes"/>
      <point x="-29.3333" y="-172"/>
      <point x="-21.6667" y="-165.667"/>
      <point x="-19.6667" y="-154" type="curve" smooth="yes"/>
      <point x="93.3333" y="424.667" type="line"/>
      <point x="9.66667" y="433.667" type="line"/>
      <point x="9.66667" y="464.333" type="line"/>
      <point x="165.333" y="496" type="line"/>
      <point x="213.667" y="496" type="line"/>
      <point x="201.667" y="434.333" type="line"/>
      <point x="238" y="465.333"/>
      <point x="294" y="496"/>
      <point x="352" y="496" type="curve" smooth="yes" name="n16"/>
      <point x="446.333" y="496"/>
      <point x="486" y="438.667"/>
      <point x="486" y="365.333" type="curve" smooth="yes" name="n19"/>
      <point x="486" y="157.667"/>
      <point x="270" y="-6"/>
      <point x="99.6667" y="-89.3333" type="curve"/>
      <point x="86.6667" y="-154" type="line"/>
      <point x="85" y="-164"/>
      <point x="88.3333" y="-171.667"/>
      <point x="105" y="-172.667" type="curve" smooth="yes"/>
    </contour>
    <contour>
      <point x="189" y="368" type="curve"/>
      <point x="112" y="-25.3333" type="line"/>
      <point x="245.667" y="51.6667"/>
      <point x="370.333" y="193.667"/>
      <point x="370.333" y="346" type="curve" smooth="yes" name="n31"/>
      <point x="370.333" y="397"/>
      <point x="336.667" y="428.667"/>
      <point x="303" y="428.667" type="curve" smooth="yes" name="n34"/>
      <point x="273" y="428.667"/>
      <point x="230" y="403.333"/>
    </contour>
  </outline>
</glyph>
<glyph name="uni01C1" format="2">
  <advance width="354"/>
  <unicode hex="01C1"/>
  <outline>
    <contour>
      <point x="189.333" y="-215" type="line" name="n00"/>
      <point x="127" y="-215" type="line"/>
      <point x="308" y="736" type="line" name="n02"/>
      <point x="370.667" y="736" type="line"/>
    </contour>
    <contour>
      <point x="57.6667" y="-215" type="line"/>
      <point x="-5" y="-215" type="line"/>
      <point x="176" y="736" type="line"/>
      <point x="238.667" y="736" type="line"/>
    </contour>
  </outline>
</glyph>
<glyph name="uni01C9" format="2">
  <advance width="567"/>
  <unicode hex="01C9"/>
  <outline>
    <contour>
      <point x="276.667" y="27" type="line"/>
      <point x="250" y="14.6667"/>
      <point x="179.333" y="-12"/>
      <point x="130.667" y="-12" type="curve" smooth="yes" name="n03"/>
      <point x="68" y="-12"/>
      <point x="39" y="18"/>
      <point x="39" y="62" type="curve" smooth="yes"/>
      <point x="39" y="72.3333"/>
      <point x="40" y="84.3333"/>
      <point x="42.3333" y="97.3333" type="curve" smooth="yes"/>
      <point x="152" y="665.667" type="line"/>
      <point x="63.3333" y="674.333" type="line"/>
      <point x="63.3333" y="706.333" type="line"/>
      <point x="223.667" y="737" type="line" name="n13"/>
      <point x="271.667" y="737" type="line"/>
      <point x="149.333" y="100" type="line" smooth="yes"/>
      <point x="144.667" y="74.3333"/>
      <point x="161.667" y="47"/>
      <point x="188.667" y="47" type="curve" smooth="yes" name="n18"/>
      <point x="206.667" y="47"/>
      <point x="253.667" y="61.3333"/>
      <point x="276.667" y="70.3333" type="curve"/>
    </contour>
    <contour>
      <point x="559.667" y="648.333" type="curve" smooth="yes" name="n22"/>
      <point x="559.667" y="618"/>
      <point x="531" y="585"/>
      <point x="492" y="585" type="curve" smooth="yes" name="n25"/>
      <point x="453.667" y="585"/>
      <point x="425" y="612.667"/>
      <point x="425" y="648.333" type="curve" smooth="yes" name="n28"/>
      <point x="425" y="682.667"/>
      <point x="449.667" y="712"/>
      <point x="492" y="712" type="curve" smooth="yes" name="n31"/>
      <point x="533" y="712"/>
      <point x="559.667" y="682.667"/>
    </contour>
    <contour>
      <point x="524.333" y="496" type="line" name="n34"/>
      <point x="453.333" y="81.3333" type="line" smooth="yes"/>
      <point x="435.903" y="-18.9834"/>
      <point x="358.667" y="-229" name="n37"/>
      <point x="223.333" y="-229" type="curve" smooth="yes"/>
      <point x="179.667" y="-229"/>
      <point x="149.667" y="-205.333"/>
      <point x="149.667" y="-174.333" type="curve" smooth="yes"/>
      <point x="149.667" y="-149.333"/>
      <point x="167.667" y="-135.333"/>
      <point x="182" y="-126.333" type="curve"/>
      <point x="280.333" y="-152.667" type="line"/>
      <point x="299" y="-129.333"/>
      <point x="322" y="-63"/>
      <point x="331.667" y="-10" type="curve" smooth="yes"/>
      <point x="406.333" y="424" type="line"/>
      <point x="321.667" y="433" type="line"/>
      <point x="321.667" y="464.333" type="line"/>
      <point x="477.667" y="496" type="line"/>
    </contour>
  </outline>
</glyph>
<glyph name="uni01CB" format="2">
  <advance width="1012"/>
  <unicode hex="01CB"/>
  <outline>
    <contour>
      <point x="769" y="626.333" type="line"/>
      <point x="709.333" y="621" type="line" smooth="yes"/>
      <point x="697.674" y="619.907"/>
      <point x="689.667" y="614.333"/>
      <point x="687" y="602.667" type="curve"/>
      <point x="568.667" y="0" type="line" name="n05"/>
      <point x="483.667" y="0" type="line"/>
      <point x="241" y="509" type="line"/>
      <point x="156" y="67.3333" type="line" smooth="yes"/>
      <point x="154" y="56.6667"/>
      <point x="158.667" y="50.6667"/>
      <point x="175.333" y="49.6667" type="curve"/>
      <point x="175.333" y="49.6667"/>
      <point x="212.986" y="46.5013"/>
      <point x="232" y="44.6667" type="curve"/>
      <point x="232" y="0" type="line"/>
      <point x="-14" y="0" type="line"/>
      <point x="-14" y="44.6667" type="line"/>
      <point x="4.68334" y="46.4868"/>
      <point x="43" y="49.6667"/>
      <point x="43" y="49.6667" type="curve"/>
      <point x="56.3333" y="50.6667"/>
      <point x="65" y="55.3333"/>
      <point x="68" y="67.6667" type="curve"/>
      <point x="171" y="603" type="line" smooth="yes"/>
      <point x="173.333" y="614.333"/>
      <point x="168" y="620.333"/>
      <point x="152.333" y="621.333" type="curve" name="n27"/>
      <point x="152.333" y="621.333"/>
      <point x="114.519" y="624.513"/>
      <point x="96" y="626.333" type="curve"/>
      <point x="96" y="671" type="line" name="n31"/>
      <point x="303" y="671" type="line"/>
      <point x="303" y="643.333" type="line"/>
      <point x="518" y="189.667" type="line"/>
      <point x="599" y="603" type="line" smooth="yes"/>
      <point x="601.333" y="614.333"/>
      <point x="595.333" y="620.333"/>
      <point x="580" y="621.333" type="curve"/>
      <point x="580" y="621.333"/>
      <point x="541.02" y="624.542"/>
      <point x="523" y="626.333" type="curve"/>
      <point x="523" y="671" type="line"/>
      <point x="769" y="671" type="line"/>
    </contour>
    <contour>
      <point x="1006" y="648.333" type="curve" smooth="yes" name="n44"/>
      <point x="1006" y="618"/>
      <point x="977.333" y="585" name="hr01"/>
      <point x="938.333" y="585" type="curve" smooth="yes" name="n47"/>
      <point x="900" y="585"/>
      <point x="871.333" y="612.667"/>
      <point x="871.333" y="648.333" type="curve" smooth="yes" name="n50"/>
      <point x="871.333" y="682.667"/>
      <point x="896" y="712"/>
      <point x="938.333" y="712" type="curve" smooth="yes" name="n53"/>
      <point x="979.333" y="712"/>
      <point x="1006" y="682.667"/>
    </contour>
    <contour>
      <point x="970.667" y="496" type="line" name="n56"/>
      <point x="899.667" y="81.3333" type="line" smooth="yes"/>
      <point x="882.236" y="-18.9834"/>
      <point x="805" y="-229" name="n59"/>
      <point x="669.667" y="-229" type="curve" smooth="yes"/>
      <point x="626" y="-229"/>
      <point x="596" y="-205.333"/>
      <point x="596" y="-174.333" type="curve" smooth="yes"/>
      <point x="596" y="-149.333"/>
      <point x="614" y="-135.333"/>
      <point x="628.333" y="-126.333" type="curve"/>
      <point x="726.667" y="-152.667" type="line"/>
      <point x="745.333" y="-129.333"/>
      <point x="768.333" y="-63"/>
      <point x="778" y="-10" type="curve" smooth="yes"/>
      <point x="852.667" y="424" type="line"/>
      <point x="768" y="433" type="line"/>
      <point x="768" y="464.333" type="line"/>
      <point x="924" y="496" type="line"/>
    </contour>
  </outline>
</glyph>
<glyph name="uni01DB" format="2">
  <advance width="721"/>
  <unicode hex="01DB"/>
  <outline>
    <contour>
      <point x="763" y="626.333" type="line"/>
      <point x="702.333" y="621.333" type="line" smooth="yes"/>
      <point x="691.335" y="620.311"/>
      <point x="683" y="614.333"/>
      <point x="681" y="602.667" type="curve" smooth="yes"/>
      <point x="604" y="214.333" type="line" smooth="yes"/>
      <point x="576.333" y="71.3333"/>
      <point x="485.333" y="-16"/>
      <point x="318" y="-16" type="curve" smooth="yes" name="n08"/>
      <point x="186.667" y="-16"/>
      <point x="92" y="34"/>
      <point x="92" y="160" type="curve" smooth="yes" name="n11"/>
      <point x="92" y="179.667"/>
      <point x="96" y="218.667"/>
      <point x="105" y="264.333" type="curve" smooth="yes"/>
      <point x="175" y="603" type="line"/>
      <point x="177" y="614.333"/>
      <point x="171.667" y="620.333"/>
      <point x="155" y="621.333" type="curve" name="n18"/>
      <point x="155" y="621.333"/>
      <point x="117.019" y="624.528"/>
      <point x="99" y="626.333" type="curve"/>
      <point x="99" y="671" type="line" name="n22"/>
      <point x="373" y="671" type="line"/>
      <point x="373" y="626.333" type="line"/>
      <point x="352.82" y="624.499"/>
      <point x="313" y="621.333"/>
      <point x="313" y="621.333" type="curve"/>
      <point x="301" y="620.333"/>
      <point x="292" y="615.333"/>
      <point x="290" y="602.667" type="curve"/>
      <point x="221" y="264.333" type="line" smooth="yes"/>
      <point x="213" y="225.667"/>
      <point x="210" y="193.667"/>
      <point x="210" y="175.667" type="curve" smooth="yes" name="n34"/>
      <point x="210" y="91.3333"/>
      <point x="266.667" y="52.3333"/>
      <point x="344" y="52.3333" type="curve" smooth="yes" name="n37"/>
      <point x="465.333" y="52.3333"/>
      <point x="507.667" y="141.333"/>
      <point x="529" y="249.333" type="curve" smooth="yes"/>
      <point x="599" y="603" type="line" smooth="yes"/>
      <point x="601" y="614.333"/>
      <point x="596.667" y="620.333"/>
      <point x="579.333" y="621.333" type="curve"/>
      <point x="579.333" y="621.333"/>
      <point x="540.861" y="624.542"/>
      <point x="523" y="626.333" type="curve"/>
      <point x="523" y="671" type="line"/>
      <point x="763" y="671" type="line"/>
    </contour>
    <contour>
      <point x="631.667" y="840.333" type="curve" smooth="yes" name="n50"/>
      <point x="631.667" y="807.667"/>
      <point x="605.333" y="780"/>
      <point x="572.667" y="780" type="curve" smooth="yes" name="n53"/>
      <point x="540" y="780"/>
      <point x="513.333" y="807.667"/>
      <point x="513.333" y="840.333" type="curve" smooth="yes" name="n56"/>
      <point x="513.333" y="871.667"/>
      <point x="541.333" y="900"/>
      <point x="572.667" y="900" type="curve" smooth="yes" name="n59"/>
      <point x="605.333" y="900"/>
      <point x="631.667" y="873"/>
    </contour>
    <contour>
      <point x="423.667" y="840.333" type="curve" smooth="yes" name="n62"/>
      <point x="423.667" y="807.667"/>
      <point x="396.667" y="780"/>
      <point x="364" y="780" type="curve" smooth="yes"/>
      <point x="332" y="780"/>
      <point x="305" y="807.667"/>
      <point x="305" y="839.667" type="curve" smooth="yes" name="n68"/>
      <point x="305" y="871.667"/>
      <point x="332" y="900"/>
      <point x="364" y="900" type="curve" smooth="yes"/>
      <point x="396.667" y="900"/>
      <point x="423.667" y="873"/>
    </contour>
    <contour>
      <point x="573" y="941" type="line"/>
      <point x="508.333" y="941" type="line"/>
      <point x="357.667" y="1034.67" type="line" smooth="yes"/>
      <point x="343.667" y="1043.33"/>
      <point x="334.667" y="1059"/>
      <point x="334.667" y="1076.67" type="curve" smooth="yes"/>
      <point x="334.667" y="1098"/>
      <point x="345.333" y="1123.67" name="n81"/>
      <point x="383" y="1123.67" type="curve" smooth="yes"/>
      <point x="410.667" y="1123.67"/>
      <point x="423" y="1114"/>
      <point x="438.667" y="1096.33" type="curve" smooth="yes"/>
    </contour>
  </outline>
</glyph>
<glyph name="uni01E1" format="2">
  <advance width="536"/>
  <unicode hex="01E1"/>
  <outline>
    <contour>
      <point x="533.667" y="28" type="line"/>
      <point x="507.667" y="17.3333"/>
      <point x="439.333" y="-12"/>
      <point x="396.333" y="-12" type="curve" smooth="yes"/>
      <point x="350.333" y="-12"/>
      <point x="329.333" y="9.33333"/>
      <point x="322.333" y="48.3333" type="curve"/>
      <point x="290.667" y="22"/>
      <point x="240.333" y="-12"/>
      <point x="184.333" y="-12" type="curve" smooth="yes" name="n09"/>
      <point x="64.6667" y="-12"/>
      <point x="32" y="95.3333"/>
      <point x="32" y="168.333" type="curve" smooth="yes" name="n12"/>
      <point x="32" y="321.333"/>
      <point x="131.667" y="496"/>
      <point x="328" y="496" type="curve" smooth="yes" name="n15"/>
      <point x="362.333" y="496"/>
      <point x="396" y="481"/>
      <point x="415.667" y="465" type="curve"/>
      <point x="428" y="484" type="line"/>
      <point x="509" y="484" type="line"/>
      <point x="502.667" y="467.333"/>
      <point x="490" y="435.333"/>
      <point x="488" y="425.667" type="curve"/>
      <point x="476.914" y="381.434"/>
      <point x="424.407" y="130.81"/>
      <point x="423" y="94.3333" type="curve"/>
      <point x="423" y="61"/>
      <point x="434.667" y="50.3333"/>
      <point x="460.667" y="50.3333" type="curve" smooth="yes"/>
      <point x="471.667" y="50.3333"/>
      <point x="523.667" y="66"/>
      <point x="533.667" y="68" type="curve"/>
    </contour>
    <contour>
      <point x="372.333" y="392.667" type="curve" smooth="yes"/>
      <point x="373.667" y="399.333"/>
      <point x="354" y="444.667"/>
      <point x="342.333" y="444.667" type="curve" smooth="yes" name="n36"/>
      <point x="197.667" y="444.667"/>
      <point x="145" y="285.667"/>
      <point x="145" y="174.333" type="curve" smooth="yes" name="n39"/>
      <point x="145" y="119.333"/>
      <point x="154.333" y="57"/>
      <point x="215.667" y="57" type="curve" smooth="yes" name="n42"/>
      <point x="261.333" y="57"/>
      <point x="306.333" y="104"/>
      <point x="320.333" y="117.667" type="curve"/>
      <point x="329.597" y="166.966"/>
      <point x="343.597" y="241.633"/>
    </contour>
    <contour>
      <point x="573.333" y="852" type="line" name="n48"/>
      <point x="559.667" y="781" type="line" name="n49"/>
      <point x="244.667" y="781" type="line"/>
      <point x="259.333" y="852" type="line"/>
    </contour>
    <contour>
      <point x="430" y="645" type="curve" smooth="yes" name="n52"/>
      <point x="430" y="612"/>
      <point x="403.667" y="585"/>
      <point x="370.333" y="585" type="curve" smooth="yes" name="n55"/>
      <point x="336.667" y="585"/>
      <point x="311" y="611.333"/>
      <point x="311" y="645" type="curve" smooth="yes" name="n58"/>
      <point x="311" y="679"/>
      <point x="335.333" y="707.333"/>
      <point x="370" y="707.333" type="curve" smooth="yes" name="n61"/>
      <point x="403.667" y="707.333"/>
      <point x="430" y="680"/>
    </contour>
  </outline>
</glyph>
<glyph name="uni01E4" format="2">
  <advance width="701"/>
  <unicode hex="01E4"/>
  <outline>
    <contour>
      <point x="681" y="153.667" type="line" name="n00"/>
      <point x="586.667" y="153.667" type="line"/>
      <point x="561.667" y="24" type="line"/>
      <point x="529.667" y="15.3333"/>
      <point x="422.667" y="-16"/>
      <point x="339" y="-16" type="curve" smooth="yes" name="n05"/>
      <point x="102" y="-16"/>
      <point x="48" y="158.333"/>
      <point x="48" y="268.333" type="curve" smooth="yes" name="n08"/>
      <point x="48" y="522"/>
      <point x="262.333" y="687"/>
      <point x="486" y="687" type="curve" smooth="yes" name="n11"/>
      <point x="554.667" y="687"/>
      <point x="600.667" y="676.333"/>
      <point x="679" y="652" type="curve"/>
      <point x="646" y="484" type="line"/>
      <point x="572.333" y="484" type="line"/>
      <point x="577.333" y="583" type="line" smooth="yes"/>
      <point x="578.333" y="597"/>
      <point x="568.667" y="606.667"/>
      <point x="556" y="609.333" type="curve"/>
      <point x="548.667" y="613"/>
      <point x="516.333" y="629.667"/>
      <point x="474" y="629.667" type="curve" smooth="yes" name="n23"/>
      <point x="333" y="629.667"/>
      <point x="172" y="483.667"/>
      <point x="172" y="252.667" type="curve" smooth="yes" name="n26"/>
      <point x="172" y="91.3333"/>
      <point x="295.667" y="40.3333"/>
      <point x="359" y="40.3333" type="curve" smooth="yes" name="n29"/>
      <point x="394.333" y="40.3333"/>
      <point x="436.333" y="52"/>
      <point x="453" y="56.3333" type="curve"/>
      <point x="471.667" y="153.667" type="line"/>
      <point x="344.667" y="153.667" type="line"/>
      <point x="344.667" y="205.667" type="line"/>
      <point x="481.333" y="205.667" type="line"/>
      <point x="492" y="258.333" type="line" smooth="yes"/>
      <point x="494" y="269.667"/>
      <point x="489.667" y="275.333"/>
      <point x="472.333" y="276.333" type="curve"/>
      <point x="472.333" y="276.333"/>
      <point x="434.841" y="279.53"/>
      <point x="417" y="281" type="curve"/>
      <point x="417" y="326" type="line" name="hr01"/>
      <point x="689" y="326" type="line" name="n45"/>
      <point x="689" y="281" type="line"/>
      <point x="628.333" y="276" type="line" smooth="yes"/>
      <point x="616.667" y="275"/>
      <point x="609.667" y="270"/>
      <point x="607" y="258.333" type="curve"/>
      <point x="597" y="205.667" type="line" name="hr02"/>
      <point x="681" y="205.667" type="line" name="n52"/>
    </contour>
  </outline>
</glyph>
<glyph name="gcaron" format="2">
  <advance width="454"/>
  <unicode hex="01E7"/>
  <outline>
    <contour>
      <point x="501" y="419.667" type="line" name="n00"/>
      <point x="409" y="419.667" type="line"/>
      <point x="415" y="404.667"/>
      <point x="421.333" y="380.333"/>
      <point x="421.333" y="354.333" type="curve" smooth="yes" name="n04"/>
      <point x="421.333" y="236.667"/>
      <point x="328.333" y="162"/>
      <point x="202.667" y="161.667" type="curve" name="n07"/>
      <point x="194.333" y="142"/>
      <point x="189.667" y="115.667"/>
      <point x="192.333" y="104.667" type="curve"/>
      <point x="326" y="44" type="line" smooth="yes"/>
      <point x="388" y="16"/>
      <point x="429.333" y="-8.33333" name="hr01"/>
      <point x="429.333" y="-66.3333" type="curve" smooth="yes" name="n14"/>
      <point x="429.333" y="-151.667"/>
      <point x="303.667" y="-229"/>
      <point x="168.667" y="-229" type="curve" smooth="yes" name="n17"/>
      <point x="28.6667" y="-229"/>
      <point x="-31" y="-156.333"/>
      <point x="-31" y="-81.6667" type="curve" smooth="yes" name="n20"/>
      <point x="-31" y="-13.6667"/>
      <point x="28.6667" y="32.3333"/>
      <point x="102.333" y="57" type="curve"/>
      <point x="96.6667" y="88"/>
      <point x="114.333" y="145"/>
      <point x="141" y="172" type="curve"/>
      <point x="88" y="195.667"/>
      <point x="48.3333" y="232.667" name="hr02"/>
      <point x="48.3333" y="296.333" type="curve" smooth="yes" name="n29"/>
      <point x="48.3333" y="392"/>
      <point x="121.667" y="496"/>
      <point x="258" y="496" type="curve" smooth="yes" name="n32"/>
      <point x="306.667" y="496"/>
      <point x="347.333" y="477.667"/>
      <point x="361.667" y="470.333" type="curve" name="hr03"/>
      <point x="501" y="470.333" type="line" name="n36"/>
    </contour>
    <contour>
      <point x="311.333" y="359.333" type="curve" smooth="yes" name="n37"/>
      <point x="311.333" y="407.667"/>
      <point x="299.333" y="450.667" name="hr04"/>
      <point x="260" y="450.667" type="curve" smooth="yes" name="n40"/>
      <point x="220.667" y="450.667"/>
      <point x="158.333" y="379"/>
      <point x="158.333" y="283.667" type="curve" smooth="yes" name="n43"/>
      <point x="158.333" y="236.333"/>
      <point x="174.333" y="202"/>
      <point x="208.667" y="202" type="curve" smooth="yes" name="n46"/>
      <point x="275.333" y="202"/>
      <point x="311.333" y="297"/>
    </contour>
    <contour>
      <point x="322.333" y="-86.3333" type="curve" smooth="yes" name="n49"/>
      <point x="322.333" y="-62.6667" name="hr05"/>
      <point x="310.333" y="-42.6667"/>
      <point x="272" y="-25" type="curve" smooth="yes"/>
      <point x="151.333" y="29.3333" type="line"/>
      <point x="94" y="13"/>
      <point x="77" y="-25.6667"/>
      <point x="77" y="-64.6667" type="curve" smooth="yes" name="n56"/>
      <point x="77" y="-109.667"/>
      <point x="110.667" y="-179.667"/>
      <point x="194.667" y="-179.667" type="curve" smooth="yes" name="n59"/>
      <point x="289" y="-179.667"/>
      <point x="322.333" y="-118.667"/>
    </contour>
    <contour>
      <point x="493.333" y="720.667" type="line" name="n62"/>
      <point x="334.333" y="551" type="line"/>
      <point x="242.333" y="551" type="line"/>
      <point x="150.667" y="720.667" type="line"/>
      <point x="225.667" y="720.667" type="line"/>
      <point x="304" y="628" type="line"/>
      <point x="417.667" y="720.667" type="line"/>
    </contour>
  </outline>
</glyph>
<glyph name="kcaron" format="2">
  <advance width="522"/>
  <unicode hex="01E9"/>
  <outline>
    <contour>
      <point x="510.667" y="24" type="line"/>
      <point x="477.667" y="7"/>
      <point x="416.667" y="-12"/>
      <point x="380" y="-12" type="curve" smooth="yes" name="n03"/>
      <point x="346.667" y="-12"/>
      <point x="311" y="12.6667"/>
      <point x="294.333" y="37.6667" type="curve" smooth="yes"/>
      <point x="269" y="76.3333"/>
      <point x="219.667" y="190"/>
      <point x="197.333" y="237.333" type="curve"/>
      <point x="159.667" y="203.667" type="line"/>
      <point x="118.333" y="0" type="line" name="n11"/>
      <point x="12.6667" y="0" type="line"/>
      <point x="146" y="665.667" type="line"/>
      <point x="58" y="674.333" type="line"/>
      <point x="58" y="706.333" type="line"/>
      <point x="217.667" y="737" type="line"/>
      <point x="267" y="737" type="line"/>
      <point x="177" y="290" type="line"/>
      <point x="322.333" y="439.667" type="line" smooth="yes"/>
      <point x="361.333" y="480"/>
      <point x="387.667" y="496" name="n21"/>
      <point x="424" y="496" type="curve" smooth="yes"/>
      <point x="470.333" y="496"/>
      <point x="496.333" y="466.333"/>
      <point x="495.667" y="440.667" type="curve"/>
      <point x="495.667" y="417.333"/>
      <point x="480.333" y="383.667"/>
      <point x="423.333" y="364.333" type="curve"/>
      <point x="387.333" y="410" type="line"/>
      <point x="352" y="382.333"/>
      <point x="303.667" y="337.333"/>
      <point x="274.667" y="311.333" type="curve"/>
      <point x="292.667" y="277.333"/>
      <point x="315.667" y="204"/>
      <point x="345.333" y="150" type="curve" smooth="yes"/>
      <point x="375" y="95.3333"/>
      <point x="407.333" y="45" name="hr02"/>
      <point x="442" y="45" type="curve" smooth="yes" name="n38"/>
      <point x="451.667" y="45"/>
      <point x="480.667" y="51.3333"/>
      <point x="510.667" y="64.3333" type="curve"/>
    </contour>
    <contour>
      <point x="563.333" y="935.667" type="line" name="n42"/>
      <point x="404.333" y="766" type="line"/>
      <point x="312.333" y="766" type="line"/>
      <point x="221.333" y="935.667" type="line"/>
      <point x="295.667" y="935.667" type="line"/>
      <point x="374" y="843" type="line"/>
      <point x="488.333" y="935.667" type="line"/>
    </contour>
  </outline>
</glyph>
<glyph name="uni01EE" format="2">
  <advance width="587"/>
  <unicode hex="01EE"/>
  <outline>
    <contour>
      <point x="587" y="600.333" type="line"/>
      <point x="282.667" y="294" type="line" name="n01"/>
      <point x="401.333" y="290.667"/>
      <point x="522" y="207"/>
      <point x="522" y="94.6667" type="curve" smooth="yes"/>
      <point x="522" y="-61.6667"/>
      <point x="359.667" y="-229"/>
      <point x="153" y="-229" type="curve" smooth="yes" name="n07"/>
      <point x="-5.66667" y="-229"/>
      <point x="-65" y="-148"/>
      <point x="-65" y="-102.667" type="curve" smooth="yes"/>
      <point x="-65" y="-57.6667"/>
      <point x="-32" y="-6" name="hr01"/>
      <point x="20" y="-6" type="curve" smooth="yes" name="n13"/>
      <point x="28.3333" y="-6"/>
      <point x="63.6667" y="-6.33333"/>
      <point x="74" y="-16.6667" type="curve"/>
      <point x="87" y="-133" type="line"/>
      <point x="114" y="-153"/>
      <point x="144.667" y="-160.333" name="hr02"/>
      <point x="174" y="-160.333" type="curve" smooth="yes" name="n20"/>
      <point x="283.333" y="-160.333"/>
      <point x="385" y="-31.3333"/>
      <point x="385" y="92.6667" type="curve" smooth="yes"/>
      <point x="385" y="195"/>
      <point x="273" y="236"/>
      <point x="227" y="236" type="curve" smooth="yes" name="n26"/>
      <point x="207.333" y="236"/>
      <point x="197.333" y="229.667"/>
      <point x="178" y="215" type="curve"/>
      <point x="144" y="264" type="line"/>
      <point x="456" y="573" type="line"/>
      <point x="194" y="573" type="line" smooth="yes" name="n32"/>
      <point x="186.667" y="573"/>
      <point x="172.667" y="566.667"/>
      <point x="169.333" y="555" type="curve"/>
      <point x="134" y="452" type="line" name="n36"/>
      <point x="67.3333" y="452" type="line"/>
      <point x="109.333" y="671" type="line" name="n38"/>
      <point x="587" y="671" type="line"/>
    </contour>
    <contour>
      <point x="569.667" y="916.333" type="line" name="n40"/>
      <point x="410.667" y="746" type="line"/>
      <point x="318.333" y="746" type="line"/>
      <point x="227.333" y="916.333" type="line"/>
      <point x="302.333" y="916.333" type="line"/>
      <point x="381" y="823" type="line"/>
      <point x="494.667" y="916.333" type="line"/>
    </contour>
  </outline>
</glyph>
<glyph name="jcaron" format="2">
  <advance width="287"/>
  <unicode hex="01F0"/>
  <outline>
    <contour>
      <point x="245.667" y="496" type="line" name="n00"/>
      <point x="174.667" y="81.3333" type="line" smooth="yes"/>
      <point x="157.236" y="-18.9834"/>
      <point x="80" y="-229" name="n03"/>
      <point x="-55.3333" y="-229" type="curve" smooth="yes"/>
      <point x="-99" y="-229"/>
      <point x="-129" y="-205.333"/>
      <point x="-129" y="-174.333" type="curve" smooth="yes"/>
      <point x="-129" y="-149.333"/>
      <point x="-111" y="-135.333"/>
      <point x="-96.6667" y="-126.333" type="curve"/>
      <point x="1.66667" y="-152.667" type="line"/>
      <point x="20.3333" y="-129.333"/>
      <point x="43.3333" y="-63"/>
      <point x="53" y="-10" type="curve" smooth="yes"/>
      <point x="127.667" y="424" type="line"/>
      <point x="43" y="433" type="line"/>
      <point x="43" y="464.333" type="line"/>
      <point x="199" y="496" type="line"/>
    </contour>
    <contour>
      <point x="422.667" y="720.667" type="line" name="n19"/>
      <point x="263.667" y="551" type="line"/>
      <point x="171.667" y="551" type="line"/>
      <point x="80.6667" y="720.667" type="line"/>
      <point x="155" y="720.667" type="line"/>
      <point x="233.333" y="628" type="line"/>
      <point x="347.667" y="720.667" type="line"/>
    </contour>
  </outline>
</glyph>
<glyph name="uni01F6" format="2">
  <advance width="1032"/>
  <unicode hex="01F6"/>
  <outline>
    <contour>
      <point x="623" y="260" type="curve"/>
      <point x="690.667" y="380" type="line" name="n01"/>
      <point x="461" y="277.333" type="line"/>
      <point x="449.514" y="221.339"/>
      <point x="398.987" y="78.4669"/>
      <point x="334.333" y="38.6667" type="curve"/>
      <point x="284" y="32"/>
      <point x="266.333" y="53"/>
      <point x="285" y="88.6667" type="curve"/>
      <point x="334" y="135" type="line"/>
      <point x="244" y="107" type="line" name="n10"/>
      <point x="54.3333" y="23.3333" type="line"/>
      <point x="53.6667" y="25.3911"/>
      <point x="54.6667" y="38.187"/>
      <point x="60.3333" y="46.3333" type="curve" name="hr01"/>
      <point x="60.3333" y="46.3333"/>
      <point x="99.4671" y="48.193"/>
      <point x="118.333" y="48" type="curve"/>
      <point x="127" y="45.4533"/>
      <point x="133" y="39.0485"/>
      <point x="135" y="44" type="curve"/>
      <point x="103.333" y="402.667" type="line"/>
      <point x="104.667" y="412.805"/>
      <point x="102" y="427.477"/>
      <point x="90" y="432.667" type="curve" name="n24"/>
      <point x="90.6532" y="434.501"/>
      <point x="72.6667" y="437.667"/>
      <point x="72.6667" y="437.667" type="curve"/>
      <point x="77.3333" y="444.538"/>
      <point x="79.3333" y="461.333"/>
      <point x="80" y="471" type="curve" name="n30"/>
      <point x="288" y="647.667" type="line"/>
      <point x="288.667" y="645.762"/>
      <point x="286.333" y="631.146"/>
      <point x="281.667" y="624.667" type="curve"/>
      <point x="281.667" y="624.667"/>
      <point x="242.85" y="622.835"/>
      <point x="223.667" y="623" type="curve"/>
      <point x="215.667" y="625.28"/>
      <point x="209" y="631.781"/>
      <point x="207.667" y="626.333" type="curve"/>
      <point x="278.667" y="474.333" type="line"/>
      <point x="486.667" y="457.667" type="line" name="n42"/>
      <point x="483.677" y="494.718"/>
      <point x="495.333" y="608"/>
      <point x="495.333" y="608" type="curve"/>
      <point x="492.412" y="614.985"/>
      <point x="487.667" y="619.333"/>
      <point x="475" y="616" type="curve"/>
      <point x="422.667" y="546.333" type="line"/>
      <point x="512.667" y="574.333" type="line"/>
      <point x="700.333" y="647.667" type="line"/>
      <point x="701" y="646.191"/>
      <point x="698.667" y="631.882"/>
      <point x="693.333" y="625" type="curve"/>
      <point x="693.333" y="625"/>
      <point x="653.676" y="622.777"/>
      <point x="636" y="623" type="curve"/>
      <point x="628" y="625.28"/>
      <point x="621.333" y="631.781"/>
      <point x="620" y="626.333" type="curve"/>
      <point x="662" y="323.667" type="line"/>
      <point x="648" y="252.697"/>
      <point x="684" y="241.795"/>
      <point x="701.333" y="240.333" type="curve" name="n64"/>
      <point x="730.471" y="240.061"/>
      <point x="758.895" y="254.768"/>
      <point x="764.333" y="304.333" type="curve" smooth="yes"/>
      <point x="770.723" y="354.88"/>
      <point x="796.045" y="485.377"/>
      <point x="803.333" y="521.333" type="curve"/>
      <point x="836.333" y="375.333" type="line"/>
      <point x="822.414" y="305.596"/>
      <point x="807.02" y="166.636"/>
      <point x="816" y="131" type="curve"/>
      <point x="814.333" y="58.3333"/>
      <point x="753" y="19.3333"/>
      <point x="685.333" y="46" type="curve" name="n77"/>
      <point x="627.746" y="66.8498"/>
      <point x="602.683" y="157.821"/>
    </contour>
  </outline>
</glyph>
<glyph name="uni01F7" format="2">
  <advance width="574"/>
  <unicode hex="01F7"/>
  <outline>
    <contour>
      <point x="532.333" y="560.333" type="curve" name="n00"/>
      <point x="556.667" y="429.667"/>
      <point x="413.667" y="275"/>
      <point x="305" y="198" type="curve"/>
      <point x="301.61" y="108.954"/>
      <point x="187.05" y="-50.6616"/>
      <point x="127.667" y="-98" type="curve"/>
      <point x="124.654" y="-112.908"/>
      <point x="121.303" y="-147.764"/>
      <point x="130.333" y="-163" type="curve"/>
      <point x="135.411" y="-166.141"/>
      <point x="156.568" y="-169.939"/>
      <point x="174.667" y="-171.333" type="curve"/>
      <point x="196" y="-201.333" type="line" name="n13"/>
      <point x="22.6667" y="-218" type="line"/>
      <point x="-76.6667" y="-190" type="line"/>
      <point x="-38" y="-169.667" type="line"/>
      <point x="-26.403" y="-168.695"/>
      <point x="-8.02821" y="-163.646"/>
      <point x="-2.33333" y="-155.333" type="curve"/>
      <point x="25.2829" y="-35.576"/>
      <point x="79.2452" y="235.038"/>
      <point x="102.333" y="352.333" type="curve"/>
      <point x="91.3333" y="608" type="line"/>
      <point x="62" y="630.333" type="line"/>
      <point x="166" y="662.667" type="line" name="n25"/>
      <point x="253" y="673" type="line"/>
      <point x="267.667" y="633.667" type="line"/>
      <point x="292.431" y="651.997"/>
      <point x="331.137" y="662.812"/>
      <point x="358" y="660.333" type="curve" name="n30"/>
      <point x="447.333" y="671"/>
      <point x="502.667" y="625.667"/>
    </contour>
    <contour>
      <point x="438.333" y="518" type="curve" name="n33"/>
      <point x="422" y="572.667"/>
      <point x="379" y="590.333"/>
      <point x="332.667" y="576.667" type="curve" name="n36"/>
      <point x="307.488" y="560.232"/>
      <point x="259.268" y="451.354"/>
      <point x="222.667" y="393.333" type="curve"/>
      <point x="260.563" y="377.897"/>
      <point x="270.902" y="227.187"/>
      <point x="263" y="234.333" type="curve"/>
      <point x="350.333" y="302.333"/>
      <point x="452.333" y="420.667"/>
    </contour>
  </outline>
</glyph>
<glyph name="uni021D" format="2">
  <advance width="400"/>
  <unicode hex="021D"/>
  <outline>
    <contour>
      <point x="389" y="373.773" type="curve" smooth="yes" name="n00"/>
      <point x="389" y="301"/>
      <point x="330.333" y="238.333"/>
      <point x="250" y="188.667" type="curve"/>
      <point x="302.667" y="173.667"/>
      <point x="342.667" y="136.333" name="hr01"/>
      <point x="342.667" y="77.8405" type="curve" smooth="yes" name="n06"/>
      <point x="342.667" y="-52.3333"/>
      <point x="145.333" y="-166.333"/>
      <point x="-37.3333" y="-229" type="curve"/>
      <point x="-25.3333" y="-172.667" type="line"/>
      <point x="135.667" y="-105.333"/>
      <point x="228" y="-17.6667"/>
      <point x="228" y="62.6509" type="curve" smooth="yes" name="n13"/>
      <point x="228" y="114"/>
      <point x="204" y="142"/>
      <point x="176" y="149" type="curve"/>
      <point x="140.333" y="132.667"/>
      <point x="103.192" y="118"/>
      <point x="66.6667" y="106" type="curve"/>
      <point x="78" y="162.333" type="line"/>
      <point x="215.333" y="221.667"/>
      <point x="274.333" y="293" name="hr02"/>
      <point x="274.333" y="368.937" type="curve" smooth="yes" name="n23"/>
      <point x="274.333" y="425.333"/>
      <point x="242.667" y="445.333"/>
      <point x="212.102" y="445.333" type="curve" smooth="yes" name="n26"/>
      <point x="186.85" y="445.333"/>
      <point x="131.923" y="431.231"/>
      <point x="120.333" y="408" type="curve"/>
      <point x="97.3333" y="350.667" type="line"/>
      <point x="48.3333" y="350.667" type="line"/>
      <point x="70.3333" y="459.667" type="line"/>
      <point x="141.667" y="489.667"/>
      <point x="185" y="496"/>
      <point x="234" y="496" type="curve" smooth="yes" name="n35"/>
      <point x="308.667" y="496"/>
      <point x="389" y="457.667"/>
    </contour>
  </outline>
</glyph>
<glyph name="uni0221" format="2">
  <advance width="588"/>
  <unicode hex="0221"/>
  <outline>
    <contour>
      <point x="604.333" y="129" type="curve" smooth="yes" name="n00"/>
      <point x="604.333" y="39.6667"/>
      <point x="517.667" y="-12"/>
      <point x="428.667" y="-12" type="curve" smooth="yes" name="n03"/>
      <point x="365.667" y="-12"/>
      <point x="328.333" y="5.66667"/>
      <point x="324" y="56" type="curve" name="n06"/>
      <point x="278.333" y="14"/>
      <point x="232.333" y="-53.6667"/>
      <point x="197.667" y="-115.667" type="curve"/>
      <point x="146.667" y="-97.6667" type="line"/>
      <point x="161.667" y="-68"/>
      <point x="179.667" y="-38"/>
      <point x="200" y="-10" type="curve"/>
      <point x="188.667" y="-12"/>
      <point x="176.333" y="-11.6667"/>
      <point x="171" y="-11" type="curve" name="n16"/>
      <point x="65.6667" y="-5.66667"/>
      <point x="32" y="86"/>
      <point x="32" y="167.667" type="curve" smooth="yes" name="n19"/>
      <point x="32" y="324.667"/>
      <point x="136.333" y="496"/>
      <point x="321.667" y="496" type="curve" smooth="yes" name="n22"/>
      <point x="350" y="496"/>
      <point x="375.333" y="485.333"/>
      <point x="391" y="480" type="curve"/>
      <point x="423.667" y="665.667" type="line"/>
      <point x="333" y="674.333" type="line"/>
      <point x="333" y="706.333" type="line"/>
      <point x="492.667" y="737" type="line" name="n29"/>
      <point x="542.667" y="737" type="line"/>
      <point x="475.595" y="356.699"/>
      <point x="447.341" y="196.273"/>
      <point x="445.667" y="186.333" type="curve"/>
      <point x="477.667" y="196.333"/>
      <point x="495.333" y="202.667"/>
      <point x="528.667" y="202.667" type="curve" smooth="yes" name="n36"/>
      <point x="575" y="202.667"/>
      <point x="604.333" y="164"/>
    </contour>
    <contour>
      <point x="430.667" y="300" type="curve"/>
      <point x="430.667" y="310"/>
      <point x="408" y="352"/>
      <point x="382.667" y="352" type="curve" smooth="yes" name="n42"/>
      <point x="313.667" y="352"/>
      <point x="244.667" y="266"/>
      <point x="240.333" y="160" type="curve" name="n45"/>
      <point x="239" y="95"/>
      <point x="264.667" y="64.6667"/>
      <point x="290.667" y="63.3333" type="curve" name="n48"/>
      <point x="314.667" y="53"/>
      <point x="349.333" y="74.6667"/>
      <point x="378" y="102.667" type="curve"/>
      <point x="396.319" y="132.498"/>
      <point x="425.075" y="254.972"/>
    </contour>
    <contour>
      <point x="486.667" y="210" type="curve" name="n54"/>
      <point x="487" y="226.333"/>
      <point x="471.667" y="253"/>
      <point x="445.667" y="253" type="curve" smooth="yes" name="n57"/>
      <point x="403" y="253"/>
      <point x="356.667" y="206"/>
      <point x="338.667" y="145" type="curve"/>
      <point x="336" y="102"/>
      <point x="341.333" y="79.6667"/>
      <point x="353.667" y="77" type="curve" name="n63"/>
      <point x="365" y="54.3333"/>
      <point x="391.333" y="56.6667"/>
      <point x="414" y="69.6667" type="curve" name="n66"/>
      <point x="445.184" y="83.8431"/>
      <point x="484.09" y="166.161" name="hr02"/>
    </contour>
  </outline>
</glyph>
<glyph name="uni0222" format="2">
  <advance width="614"/>
  <unicode hex="0222"/>
  <outline>
    <contour>
      <point x="532" y="481" type="curve" name="n00"/>
      <point x="559.667" y="406.333"/>
      <point x="518.333" y="342.667"/>
      <point x="465" y="304" type="curve"/>
      <point x="517" y="251"/>
      <point x="505" y="191.333"/>
      <point x="455.667" y="134.667" type="curve" name="n06"/>
      <point x="411.333" y="47.3333"/>
      <point x="280.667" y="6.66667"/>
      <point x="188" y="42.3333" type="curve" name="n09"/>
      <point x="105.333" y="82.3333"/>
      <point x="84.3333" y="145"/>
      <point x="122" y="216.333" type="curve" name="n12"/>
      <point x="101.333" y="297.333"/>
      <point x="146.333" y="364.333"/>
      <point x="216.333" y="403.333" type="curve"/>
      <point x="177.667" y="454"/>
      <point x="187.667" y="496.333"/>
      <point x="230.667" y="551" type="curve" name="n18"/>
      <point x="268" y="637.667"/>
      <point x="390" y="666.333"/>
      <point x="470" y="634.667" type="curve" name="n21"/>
      <point x="539.333" y="598"/>
      <point x="560.333" y="546.333"/>
    </contour>
    <contour>
      <point x="414.333" y="600.667" type="curve" name="n24"/>
      <point x="361" y="620"/>
      <point x="310" y="596.667"/>
      <point x="294.667" y="534" type="curve" name="n27"/>
      <point x="275.667" y="498.667"/>
      <point x="275.667" y="450"/>
      <point x="316.333" y="420.667" type="curve" name="n30"/>
      <point x="372.333" y="401.333"/>
      <point x="418.333" y="438"/>
      <point x="434" y="491.333" type="curve" name="n33"/>
      <point x="457" y="530"/>
      <point x="449.667" y="575.667"/>
    </contour>
    <contour>
      <point x="277.667" y="38.6667" type="curve" smooth="yes" name="n36"/>
      <point x="366.333" y="38.6667"/>
      <point x="431.667" y="119"/>
      <point x="431.667" y="213.333" type="curve" smooth="yes" name="n39"/>
      <point x="431.667" y="280.667" name="hr03"/>
      <point x="389.333" y="331.667"/>
      <point x="328.667" y="331.667" type="curve" smooth="yes" name="n42"/>
      <point x="236.667" y="331.667"/>
      <point x="175.333" y="247"/>
      <point x="175.333" y="152.667" type="curve" smooth="yes" name="n45"/>
      <point x="175.333" y="88.6667"/>
      <point x="210.333" y="38.6667"/>
    </contour>
  </outline>
</glyph>
<glyph name="uni0223" format="2">
  <advance width="557"/>
  <unicode hex="0223"/>
  <outline>
    <contour>
      <point x="360" y="737" type="curve" smooth="yes" name="n00"/>
      <point x="454.667" y="737"/>
      <point x="525.667" y="679.667"/>
      <point x="525.667" y="584.667" type="curve" smooth="yes" name="n03"/>
      <point x="525.667" y="473.333"/>
      <point x="430.667" y="395"/>
      <point x="352.333" y="383" type="curve"/>
      <point x="422.667" y="365"/>
      <point x="481.333" y="315" name="hr01"/>
      <point x="481.333" y="228" type="curve" smooth="yes" name="n09"/>
      <point x="481.333" y="89"/>
      <point x="351" y="-12"/>
      <point x="217.667" y="-12" type="curve" smooth="yes" name="n12"/>
      <point x="104.667" y="-12"/>
      <point x="31.3333" y="50.3333"/>
      <point x="31.3333" y="152.667" type="curve" smooth="yes" name="n15"/>
      <point x="31.3333" y="275"/>
      <point x="129.667" y="365"/>
      <point x="233" y="383" type="curve"/>
      <point x="180.667" y="392"/>
      <point x="122.667" y="432.333" name="hr02"/>
      <point x="122.667" y="515.667" type="curve" smooth="yes" name="n21"/>
      <point x="122.667" y="652"/>
      <point x="242.333" y="737"/>
    </contour>
    <contour>
      <point x="366.333" y="650.333" type="curve" name="n24"/>
      <point x="311" y="671.333"/>
      <point x="279.667" y="624.333"/>
      <point x="265" y="572.333" type="curve" name="n27"/>
      <point x="248.333" y="536.333"/>
      <point x="248" y="479"/>
      <point x="280" y="448.667" type="curve" name="n30"/>
      <point x="329.333" y="429.333"/>
      <point x="368.667" y="467.667"/>
      <point x="381.333" y="527.667" type="curve" name="n33"/>
      <point x="398.333" y="567"/>
      <point x="397" y="619.333"/>
    </contour>
    <contour>
      <point x="229.333" y="41" type="curve" smooth="yes" name="n36"/>
      <point x="310" y="41"/>
      <point x="365.333" y="130"/>
      <point x="365.333" y="233" type="curve" smooth="yes" name="n39"/>
      <point x="365.333" y="303.333" name="hr03"/>
      <point x="332.333" y="356"/>
      <point x="285" y="356" type="curve" smooth="yes" name="n42"/>
      <point x="204" y="356"/>
      <point x="147.333" y="261.333"/>
      <point x="147.333" y="160" type="curve" smooth="yes" name="n45"/>
      <point x="147.333" y="95.3333"/>
      <point x="180.667" y="41"/>
    </contour>
  </outline>
</glyph>
